<svg id="Layer_1" data-name="Layer 1" xmlns="http://www.w3.org/2000/svg" viewBox="0 0 210.83 210.83"><defs><style>.cls-1{fill:#575c71;}.cls-2{font-size:17px;fill:#15172d;font-family:Roboto-Regular, Roboto;}.cls-3{fill:#191c33;}</style></defs><title>Hindeloopen</title><rect class="cls-1" width="210.83" height="210.83" rx="15.54" ry="15.54"/><text class="cls-2" transform="translate(54.62 190.04)">Hindeloopen</text><path class="cls-3" d="M155.62,85.37V74.18h0v-31l-9.7-23-9.87,23V57.7l-.06.18.06,0V74.18h0V85.37l-6.86,7.92h-8.81v10.15l-6.29,7.25v2.46L95.4,81.5V72.69h36.74V68.38h-14L94.68,62.25a1.18,1.18,0,0,0-2.36,0L59.4,68.38H54.85v4.31h0l-8.26,52.79H46.5v4.31H40.78v22.44h5.83V129.79H89.35l-3.07,22.44H102.5l-4.36-22.44h16v22.44h63.5V110.69Zm-1.31-11.19h0Zm-.95-18v1.14l-7.61,6.77-7.43-6.62V56.18Zm-6.18,9.17,6.18-5.49v11Zm6.18-15.25v3.53h-15V50.1Zm-7.58,16.49,5.64,5H140.15Zm-1.42-1.26-6,5.37V60Zm-7.1,8.85ZM50.08,117.33H91.6v2.16H49.74ZM94.29,68.38V64.51l14.84,3.87Zm-1.58-3.93v3.93H71.81ZM91.6,72.69V113.5H50.68l6.39-40.81ZM48.8,125.48l.34-2.16H91.6v2.16Zm46.6,1.76V90l18.69,31.66v5.63Z"/></svg>