<svg id="Layer_1" data-name="Layer 1" xmlns="http://www.w3.org/2000/svg" viewBox="0 0 210.83 210.83"><defs><style>.cls-1{fill:#575c71;}.cls-2{fill:#15172d;}.cls-3{fill:#191c33;}</style></defs><title>hindeloopen_1</title><rect class="cls-1" width="210.83" height="210.83" rx="15.54" ry="15.54"/><path class="cls-2" d="M65.31,190h-1.6v-5.59H57.62V190H56V178h1.6v5.2h6.09V178h1.6Z"/><path class="cls-2" d="M67.91,178.67a.92.92,0,0,1,.23-.63.86.86,0,0,1,.67-.26.9.9,0,0,1,.69.26.92.92,0,0,1,.23.63.88.88,0,0,1-.23.62.9.9,0,0,1-.69.25.85.85,0,0,1-.67-.25A.88.88,0,0,1,67.91,178.67ZM69.57,190H68v-9h1.54Z"/><path class="cls-2" d="M73.48,181.05l0,1.13a3.54,3.54,0,0,1,1.16-1,3.31,3.31,0,0,1,1.53-.34,3.72,3.72,0,0,1,1.19.18,2.23,2.23,0,0,1,.9.57,2.68,2.68,0,0,1,.58,1,5,5,0,0,1,.2,1.5V190H77.55v-5.91a2.93,2.93,0,0,0-.11-.89,1.37,1.37,0,0,0-.35-.6,1.28,1.28,0,0,0-.56-.34,2.57,2.57,0,0,0-.78-.11,2.21,2.21,0,0,0-1.31.4,2.67,2.67,0,0,0-.88,1V190H72v-9Z"/><path class="cls-2" d="M81,185.47a6.4,6.4,0,0,1,.26-1.87,4.46,4.46,0,0,1,.71-1.45,3.32,3.32,0,0,1,1.12-.93,3.17,3.17,0,0,1,1.46-.33,3.38,3.38,0,0,1,1.43.28,3,3,0,0,1,1.07.8v-4.68h1.53V190H87.2l-.07-1a2.93,2.93,0,0,1-1.08.84,3.6,3.6,0,0,1-1.49.29,3,3,0,0,1-1.44-.34,3.39,3.39,0,0,1-1.12-1,4.61,4.61,0,0,1-.71-1.44,6.27,6.27,0,0,1-.26-1.83Zm1.54.17a5.21,5.21,0,0,0,.14,1.27,3.09,3.09,0,0,0,.42,1,2.06,2.06,0,0,0,1.81,1,2.34,2.34,0,0,0,.73-.1,2.12,2.12,0,0,0,1-.68,2.75,2.75,0,0,0,.36-.53v-4.13a3.54,3.54,0,0,0-.35-.51,2.93,2.93,0,0,0-.46-.4,2.25,2.25,0,0,0-.59-.26,2.32,2.32,0,0,0-.72-.1,2.16,2.16,0,0,0-1.08.26,2.21,2.21,0,0,0-.75.71,3.34,3.34,0,0,0-.42,1,5.21,5.21,0,0,0-.14,1.27Z"/><path class="cls-2" d="M94.72,190.2a4.44,4.44,0,0,1-1.7-.32,4,4,0,0,1-1.3-.9,4.17,4.17,0,0,1-.83-1.38,5.12,5.12,0,0,1-.29-1.74v-.35a5.48,5.48,0,0,1,.33-2,4.36,4.36,0,0,1,.88-1.45,3.8,3.8,0,0,1,1.25-.9,3.56,3.56,0,0,1,1.47-.31,3.84,3.84,0,0,1,1.66.33,3.19,3.19,0,0,1,1.15.93,4.08,4.08,0,0,1,.67,1.39,7,7,0,0,1,.21,1.76V186H92.14a4,4,0,0,0,.2,1.17,2.82,2.82,0,0,0,.53.93,2.43,2.43,0,0,0,1.93.87,2.66,2.66,0,0,0,1.38-.33,3.61,3.61,0,0,0,1-.88l.94.73a4.38,4.38,0,0,1-.53.64,3.66,3.66,0,0,1-.71.56,4.1,4.1,0,0,1-1,.39A4.82,4.82,0,0,1,94.72,190.2Zm-.19-8a2.24,2.24,0,0,0-.86.17,2.18,2.18,0,0,0-.69.49,2.54,2.54,0,0,0-.51.81,3.94,3.94,0,0,0-.28,1.1h4.5v-.11a4.48,4.48,0,0,0-.15-.89,2.3,2.3,0,0,0-.37-.79,2,2,0,0,0-.65-.56A2,2,0,0,0,94.53,182.15Z"/><path class="cls-2" d="M101.67,190h-1.54V177.29h1.54Z"/><path class="cls-2" d="M103.72,185.46a5.29,5.29,0,0,1,.29-1.81,4.36,4.36,0,0,1,.81-1.45,3.69,3.69,0,0,1,1.28-1,3.87,3.87,0,0,1,1.69-.35,4,4,0,0,1,1.72.35,3.64,3.64,0,0,1,1.29,1,4.36,4.36,0,0,1,.81,1.45,5.54,5.54,0,0,1,.29,1.81v.18a5.6,5.6,0,0,1-.29,1.82,4.31,4.31,0,0,1-.81,1.44,3.64,3.64,0,0,1-1.29,1,4.42,4.42,0,0,1-3.4,0,3.82,3.82,0,0,1-1.29-1,4.31,4.31,0,0,1-.81-1.44,5.35,5.35,0,0,1-.29-1.82Zm1.54.18a5.13,5.13,0,0,0,.16,1.27,3.16,3.16,0,0,0,.48,1.05,2.3,2.3,0,0,0,.8.72,2.17,2.17,0,0,0,1.11.27,2.23,2.23,0,0,0,1.11-.27,2.3,2.3,0,0,0,.8-.72,3.37,3.37,0,0,0,.48-1.05,4.7,4.7,0,0,0,.16-1.27v-.18a4.73,4.73,0,0,0-.16-1.26,3.33,3.33,0,0,0-.48-1.06,2.5,2.5,0,0,0-.8-.72,2.3,2.3,0,0,0-1.13-.27,2.19,2.19,0,0,0-1.1.27,2.37,2.37,0,0,0-.79.72,3.12,3.12,0,0,0-.48,1.06,5.18,5.18,0,0,0-.16,1.26Z"/><path class="cls-2" d="M113.41,185.46a5.54,5.54,0,0,1,.29-1.81,4.36,4.36,0,0,1,.81-1.45,3.73,3.73,0,0,1,1.29-1,3.84,3.84,0,0,1,1.69-.35,3.9,3.9,0,0,1,1.71.35,3.77,3.77,0,0,1,1.3,1,4.36,4.36,0,0,1,.81,1.45,5.54,5.54,0,0,1,.28,1.81v.18a5.6,5.6,0,0,1-.28,1.82,4.31,4.31,0,0,1-.81,1.44,3.82,3.82,0,0,1-1.29,1,4,4,0,0,1-1.7.34,4.11,4.11,0,0,1-1.71-.34,3.69,3.69,0,0,1-1.28-1,4.16,4.16,0,0,1-.82-1.44,5.6,5.6,0,0,1-.29-1.82Zm1.55.18a4.7,4.7,0,0,0,.16,1.27,3.15,3.15,0,0,0,.47,1.05,2.39,2.39,0,0,0,.8.72,2.44,2.44,0,0,0,2.23,0,2.3,2.3,0,0,0,.8-.72,3.15,3.15,0,0,0,.47-1.05,4.7,4.7,0,0,0,.16-1.27v-.18a4.73,4.73,0,0,0-.16-1.26,3.12,3.12,0,0,0-.48-1.06,2.4,2.4,0,0,0-.8-.72,2.24,2.24,0,0,0-1.12-.27,2.16,2.16,0,0,0-1.1.27,2.5,2.5,0,0,0-.8.72,3.11,3.11,0,0,0-.47,1.06,4.73,4.73,0,0,0-.16,1.26Z"/><path class="cls-2" d="M131.1,185.64a6.65,6.65,0,0,1-.23,1.83,4.36,4.36,0,0,1-.68,1.44,3,3,0,0,1-2.57,1.29,4,4,0,0,1-1.48-.26,3.12,3.12,0,0,1-1.09-.78v4.33h-1.53V181.05h1.4l.07,1a3.09,3.09,0,0,1,1.11-.86,3.52,3.52,0,0,1,1.5-.3,3.28,3.28,0,0,1,1.5.33,3.17,3.17,0,0,1,1.1.93,4.22,4.22,0,0,1,.67,1.45,6.79,6.79,0,0,1,.23,1.87Zm-1.53-.17a5.75,5.75,0,0,0-.14-1.27,3.36,3.36,0,0,0-.44-1,2.25,2.25,0,0,0-.76-.71,2.2,2.2,0,0,0-1.09-.26,2.65,2.65,0,0,0-.71.09,2.12,2.12,0,0,0-.57.26,2.16,2.16,0,0,0-.46.39,3.45,3.45,0,0,0-.35.5v4.29a2.9,2.9,0,0,0,.35.49,1.71,1.71,0,0,0,.46.39,2,2,0,0,0,.58.26,2.63,2.63,0,0,0,.72.09,2.09,2.09,0,0,0,1.08-.27A2.31,2.31,0,0,0,129,188a3.32,3.32,0,0,0,.44-1.05,5.84,5.84,0,0,0,.14-1.28Z"/><path class="cls-2" d="M136.78,190.2a4.44,4.44,0,0,1-1.7-.32,4,4,0,0,1-1.3-.9,4.17,4.17,0,0,1-.83-1.38,5.12,5.12,0,0,1-.29-1.74v-.35a5.48,5.48,0,0,1,.33-2,4.36,4.36,0,0,1,.88-1.45,3.8,3.8,0,0,1,1.25-.9,3.56,3.56,0,0,1,1.47-.31,3.84,3.84,0,0,1,1.66.33,3.28,3.28,0,0,1,1.15.93,4.08,4.08,0,0,1,.67,1.39,7,7,0,0,1,.21,1.76V186H134.2a4,4,0,0,0,.2,1.17,2.82,2.82,0,0,0,.53.93,2.43,2.43,0,0,0,1.93.87,2.66,2.66,0,0,0,1.38-.33,3.61,3.61,0,0,0,1-.88l.94.73a4.38,4.38,0,0,1-.53.64,3.66,3.66,0,0,1-.71.56,4.1,4.1,0,0,1-1,.39A4.82,4.82,0,0,1,136.78,190.2Zm-.19-8a2.15,2.15,0,0,0-.85.17,2,2,0,0,0-.7.49,2.54,2.54,0,0,0-.51.81,3.94,3.94,0,0,0-.28,1.1h4.5v-.11a4.48,4.48,0,0,0-.15-.89,2.3,2.3,0,0,0-.37-.79,2,2,0,0,0-.65-.56A2,2,0,0,0,136.59,182.15Z"/><path class="cls-2" d="M143.51,181.05l.05,1.13a3.54,3.54,0,0,1,1.16-1,3.37,3.37,0,0,1,1.53-.34,3.72,3.72,0,0,1,1.19.18,2.23,2.23,0,0,1,.9.57,2.56,2.56,0,0,1,.58,1,4.7,4.7,0,0,1,.2,1.5V190h-1.53v-5.91a2.9,2.9,0,0,0-.12-.89,1.45,1.45,0,0,0-.34-.6,1.26,1.26,0,0,0-.57-.34,2.55,2.55,0,0,0-.77-.11,2.17,2.17,0,0,0-1.31.4,2.59,2.59,0,0,0-.88,1V190h-1.54v-9Z"/><path class="cls-3" d="M155.62,85.37V74.18h0v-31l-9.7-23-9.87,23V57.7l-.06.18.06,0V74.18h0V85.37l-6.86,7.92h-8.81v10.15l-6.29,7.25v2.46L95.4,81.5V72.69h36.74V68.38h-14L94.68,62.25a1.18,1.18,0,0,0-2.36,0L59.4,68.38H54.85v4.31h0l-8.26,52.79H46.5v4.31H40.78v22.44h5.83V129.79H89.35l-3.07,22.44H102.5l-4.36-22.44h16v22.44h63.5V110.69Zm-1.31-11.19h0Zm-.95-18v1.14l-7.61,6.77-7.43-6.62V56.18Zm-6.18,9.17,6.18-5.49v11Zm6.18-15.25v3.53h-15V50.1Zm-7.58,16.49,5.64,5H140.15Zm-1.42-1.26-6,5.37V60Zm-7.1,8.85ZM50.08,117.33H91.6v2.16H49.74ZM94.29,68.38V64.51l14.84,3.87Zm-1.58-3.93v3.93H71.81ZM91.6,72.69V113.5H50.68l6.39-40.81ZM48.8,125.48l.34-2.16H91.6v2.16Zm46.6,1.76V90l18.69,31.66v5.63Z"/></svg>