<svg id="Laag_1" data-name="Laag 1" xmlns="http://www.w3.org/2000/svg" viewBox="0 0 524.02 68.42"><defs><style>.cls-1{fill:#009fe3;}.cls-2{fill:#646c86;}</style></defs><title>ijspegels</title><path class="cls-1" d="M182.28,4.79c0,1.19.32,2.35.42,3.54.06.68.11,1.37.17,2.06,0,.48.25.85.77.87a.76.76,0,0,0,.83-.8c0-.83.05-1.67.05-2.51A2.54,2.54,0,0,1,185,6.49a7.9,7.9,0,0,0,.78-1.7L184,4.17Z"/><path class="cls-2" d="M444.84,4.79c0,1.19.31,2.35.42,3.54.06.68.11,1.37.16,2.06,0,.48.26.85.77.87a.75.75,0,0,0,.83-.8c0-.83.06-1.67.05-2.51a2.55,2.55,0,0,1,.46-1.46,7.86,7.86,0,0,0,.77-1.7l-.55-.19L447,5l-.78-.69-.69.72Z"/><path class="cls-2" d="M8.44,3.92l1.31.63,3.75.87,2.55-.63C16,6,16,7.12,16,8.29a8.42,8.42,0,0,1-.3,2.58A12.19,12.19,0,0,0,15,14.59a14.63,14.63,0,0,1-.46,2,2,2,0,0,0,0,.65,6.55,6.55,0,0,1-.23,3A4.21,4.21,0,0,0,14.09,22a5.1,5.1,0,0,1-.47,3.2,3.14,3.14,0,0,0-.2,1c-.14,1.25-.25,2.51-.41,3.76a.78.78,0,0,1-.84.68c-.47,0-.65-.34-.7-.73-.09-.55-.12-1.11-.18-1.67-.15-1.57-.36-3.15-.47-4.73C10.6,20,10.43,16.5,10.22,13a4.16,4.16,0,0,0-.19-.84c-.24.17-.4.29-.58.4-.62.36-1.09.18-1.24-.52a4.56,4.56,0,0,1-.11-1.16,4.37,4.37,0,0,0-.48-2.79A3.19,3.19,0,0,1,7.33,6.8c-.1-.66-.12-1.35-.23-2Zm8.85.87c.08.94.16,1.88.21,2.82a10.42,10.42,0,0,0,.61,2.65c.49,1.42.8,2.9,1.19,4.35a2.76,2.76,0,0,1-.05,1.75,2.88,2.88,0,0,0,0,1.74c.25,1.06.29,2.18.48,3.25a8.8,8.8,0,0,0,.58,1.89.87.87,0,0,0,.71.41.93.93,0,0,0,.5-.64,16.17,16.17,0,0,0,.69-3.66c0-1.67.21-3.3.27-5a24.47,24.47,0,0,1,.89-7.18c.27-.81.54-1.63.85-2.43L22.19,3.42l-1.42-1ZM0,4.79C0,6,.31,7.14.42,8.33.48,9,.53,9.7.59,10.39c0,.48.25.85.76.87a.75.75,0,0,0,.83-.8c0-.83.06-1.67,0-2.51a2.63,2.63,0,0,1,.46-1.46,7.41,7.41,0,0,0,.77-1.7L2.32,3.92Zm83.91,1c0-.34.09-.67.14-1l-2.23-.87-3.63.87-2-1.5-2,1.5c.15,1.29.28,2.57.4,3.86.19,2,.18,3.95,1,5.81a2.54,2.54,0,0,1,0,2.22,2.51,2.51,0,0,0-.24,1.08,10.21,10.21,0,0,0,.13,2.6,1.74,1.74,0,0,1,0,1.29,1.71,1.71,0,0,0,0,1.4,10.91,10.91,0,0,1,.48,1.89,11.77,11.77,0,0,0,.39,2.35,5.75,5.75,0,0,1,.35,2.83A17.76,17.76,0,0,0,77,35.8a13.78,13.78,0,0,1,.36,3.2,22.49,22.49,0,0,0,.47,3.75,1,1,0,0,0,1.35.75,1.11,1.11,0,0,0,.77-1.35,3.93,3.93,0,0,1,.12-1.57,10.9,10.9,0,0,0,.73-3.08c0-.61.18-1.21.25-1.82a1.54,1.54,0,0,0,0-.83,2,2,0,0,1,.09-1.92c.14-.36.27-.73.39-1.1A16.55,16.55,0,0,0,82,27.51a8.63,8.63,0,0,1,.46-2.84,4.92,4.92,0,0,0,.31-3.32,1.47,1.47,0,0,1,.57-1.71,1,1,0,0,0,.38-1c-.22-1.29-.46-2.56-.66-3.85a1.87,1.87,0,0,1,.08-.85,18.23,18.23,0,0,0,.68-1.82c.41-1.89.82-3.8.18-5.74A1.28,1.28,0,0,1,83.91,5.8Zm7.36.41c.06-.47.12-1,.19-1.42h-.89L89,3.29l-2.42,1.5c.07.4.14.81.22,1.21a12.77,12.77,0,0,1,.4,4.31,2.43,2.43,0,0,0,.4,2.08,1.76,1.76,0,0,1,.46,1.26,9.14,9.14,0,0,0,.14,1.27c.07.35.3.68.69.59a1.17,1.17,0,0,0,.62-.58,3.12,3.12,0,0,0,.14-.93,5.94,5.94,0,0,1,.15-.94c.15-.55.35-1.09.53-1.64.27-.84.53-1.7.81-2.54a2.68,2.68,0,0,0,.11-2.06A1.14,1.14,0,0,1,91.27,6.21ZM59.89,4.79l.18.35a24.86,24.86,0,0,1,1.67,6.33,15.45,15.45,0,0,1,.2,3.33,2.74,2.74,0,0,0,.27,1.5,2.1,2.1,0,0,1,.29,1.88,5.15,5.15,0,0,0,.06,3.67,37.69,37.69,0,0,1,1.5,7.88,12.54,12.54,0,0,0,.32,1.93c.18.65.69.82,1.2.38a2.13,2.13,0,0,0,.76-1.11c.14-.9.08-1.82.14-2.73a5.54,5.54,0,0,1,.21-1.53A11.68,11.68,0,0,0,67.4,21a.5.5,0,0,1,.06-.37A2.77,2.77,0,0,0,68,19,12.08,12.08,0,0,1,68.4,17a2.58,2.58,0,0,0,0-1.58,1.16,1.16,0,0,1,.07-.78,16.84,16.84,0,0,0,1.1-2.1,25.89,25.89,0,0,0,.53-3.07l.72-4.64-2-.87-4.5,1.62L61.57,3.92Zm-34.13,0a8.79,8.79,0,0,1,1.62,4.3,2.8,2.8,0,0,0,.36,1.26,4.64,4.64,0,0,1,.74,2.31c.23,2.75.46,5.51.7,8.26a42.83,42.83,0,0,0,.92,7,4.19,4.19,0,0,1,.12,1.61A11.57,11.57,0,0,0,30.64,34c.15.73.22,1.47.34,2.2a1.2,1.2,0,0,0,.17.58,1.43,1.43,0,0,1,.15,1.37,6.61,6.61,0,0,0-.22,1.7,42.23,42.23,0,0,0,.48,5.52,31.46,31.46,0,0,1,.13,5.22c0,1.13.22,2.26.32,3.39q.38,4.07.73,8.13c0,.33.09.66.12,1,.12,1.39.22,2.78.34,4.17A1.15,1.15,0,0,0,34,68.42h.67a1.84,1.84,0,0,0,.56-1.4c0-1.27.07-2.53.07-3.8a21.31,21.31,0,0,1,.36-4.85,8.21,8.21,0,0,0,0-3.88,5,5,0,0,1,0-2.31,19.64,19.64,0,0,0,.12-7.29,1.79,1.79,0,0,1,.16-1.07A8.48,8.48,0,0,0,37,39.2a2.5,2.5,0,0,1,.4-1.54,2,2,0,0,0,.32-.93c.14-1.37.15-2.76.36-4.12a10.31,10.31,0,0,0,0-3.28,1.8,1.8,0,0,1,.09-1,6,6,0,0,0,.37-2.74,21.39,21.39,0,0,1,.08-2.4c.06-.66.21-1.31.31-2a7.55,7.55,0,0,1,.68-3.2,1.28,1.28,0,0,0,.06-.87,4.55,4.55,0,0,1,0-2.26,2.06,2.06,0,0,0,0-.56L39.8,6A.94.94,0,0,1,40.38,5a6.06,6.06,0,0,1,.21.84,43.63,43.63,0,0,0,1.33,7.41c.53,1.74.67,3.59,1.52,5.24a1.26,1.26,0,0,1,.17.59,13.72,13.72,0,0,0,.46,4,6.56,6.56,0,0,1,.1,1.34,4.7,4.7,0,0,0,.1.83c.15.56.57.76,1,.37a2.17,2.17,0,0,0,.69-1.2,26.24,26.24,0,0,1,.86-5.06,2.31,2.31,0,0,0,0-.83,20,20,0,0,1,.56-6.32,18.37,18.37,0,0,0,.56-2.73c.12-1.07.09-2.16.15-3.23a2,2,0,0,1,.18-.52,1.09,1.09,0,0,1,.3.65c.07,1.09.14,2.19.16,3.29a8.69,8.69,0,0,0,.36,2.81,11.34,11.34,0,0,1,.36,2c.14.84.23,1.7.4,2.53,0,.24.33.44.51.66a2.68,2.68,0,0,0,.54-.58,4.18,4.18,0,0,0,.43-1.26c.19-1.42.31-2.84.46-4.27.1-1,.18-2.07.31-3.1s.31-2.24.52-3.36a1.13,1.13,0,0,1,.16-.41L34.57,1.67Zm167.09,0c.11.66.13,1.35.23,2a3.19,3.19,0,0,0,.29,1.25,4.37,4.37,0,0,1,.48,2.79A4.15,4.15,0,0,0,194,12c.15.7.62.88,1.24.52.18-.11.34-.23.58-.4A5,5,0,0,1,196,13c.21,3.54.38,7.08.6,10.61.1,1.58.31,3.16.47,4.73.06.56.09,1.12.17,1.67.06.39.24.72.71.73a.77.77,0,0,0,.83-.68c.17-1.25.28-2.51.42-3.76a3.14,3.14,0,0,1,.2-1,5.1,5.1,0,0,0,.47-3.2,4.21,4.21,0,0,1,.21-1.78,6.55,6.55,0,0,0,.23-3,1.79,1.79,0,0,1,0-.65,14.63,14.63,0,0,0,.46-2,12.19,12.19,0,0,1,.66-3.72,8.12,8.12,0,0,0,.29-2.58c.05-1.17,0-2.34.07-3.5l-1-1.5L198,4.17h-2.89Zm10.19,0c.08.94.16,1.88.21,2.82a10,10,0,0,0,.61,2.65c.49,1.42.8,2.9,1.19,4.35a2.76,2.76,0,0,1-.05,1.75,2.88,2.88,0,0,0,0,1.74c.25,1.06.29,2.18.48,3.25a8.8,8.8,0,0,0,.58,1.89.87.87,0,0,0,.71.41c.2,0,.44-.39.5-.64a16.17,16.17,0,0,0,.69-3.66c0-1.67.21-3.3.27-5a24.47,24.47,0,0,1,.89-7.18,9.25,9.25,0,0,1,1.25-2.65H208.6l-2.08-1.28-2.86.81Zm32.63,1c.05-.34.68-1.46.73-1.8l-2-.71L232,4.79l-3.91-2.12L225.9,4.79c.15,1.29.28,2.57.4,3.86.19,2,.18,3.95,1,5.81a2.54,2.54,0,0,1,0,2.22,2.51,2.51,0,0,0-.24,1.08,10.21,10.21,0,0,0,.13,2.6,1.74,1.74,0,0,1,0,1.29,1.71,1.71,0,0,0,0,1.4,10.91,10.91,0,0,1,.48,1.89,11.77,11.77,0,0,0,.39,2.35,5.87,5.87,0,0,1,.35,2.83,17.76,17.76,0,0,0,.35,5.68,13.78,13.78,0,0,1,.36,3.2,22.49,22.49,0,0,0,.47,3.75,1,1,0,0,0,1.35.75,1.11,1.11,0,0,0,.77-1.35,3.93,3.93,0,0,1,.12-1.57,10.9,10.9,0,0,0,.73-3.08c0-.61.18-1.21.25-1.82a1.54,1.54,0,0,0,0-.83,2,2,0,0,1,.09-1.92c.14-.36.27-.73.39-1.1a16.55,16.55,0,0,0,.47-4.32,8.63,8.63,0,0,1,.46-2.84,4.92,4.92,0,0,0,.31-3.32,1.47,1.47,0,0,1,.57-1.71,1,1,0,0,0,.38-1c-.22-1.29-.46-2.56-.66-3.85a1.87,1.87,0,0,1,.08-.85,18.23,18.23,0,0,0,.68-1.82c.41-1.89.82-3.8.18-5.74A1.14,1.14,0,0,1,235.67,5.8Zm7.36.41c.06-.47.12-1,.19-1.42l-.9-1.5L240,4l-2.54.33c.07.41,1.08,1.27,1.16,1.67a12.77,12.77,0,0,1,.4,4.31,2.43,2.43,0,0,0,.4,2.08,1.76,1.76,0,0,1,.46,1.26,9.14,9.14,0,0,0,.14,1.27c.07.35.3.68.69.59a1.17,1.17,0,0,0,.62-.58,3.12,3.12,0,0,0,.14-.93,5.94,5.94,0,0,1,.15-.94c.15-.55.35-1.09.53-1.64.27-.84.53-1.7.81-2.54a2.68,2.68,0,0,0,.11-2.06A1.14,1.14,0,0,1,243,6.21Zm-31-2.92c.06.12-.3,1.73-.24,1.85a24.86,24.86,0,0,1,1.67,6.33,15.45,15.45,0,0,1,.2,3.33,2.66,2.66,0,0,0,.27,1.5,2.1,2.1,0,0,1,.29,1.88,5.15,5.15,0,0,0,.06,3.67,37.69,37.69,0,0,1,1.5,7.88,11.43,11.43,0,0,0,.32,1.93c.18.65.69.82,1.2.38a2.13,2.13,0,0,0,.76-1.11c.14-.9.08-1.82.14-2.73a5.54,5.54,0,0,1,.21-1.53,11.68,11.68,0,0,0,.71-5.7.5.5,0,0,1,.06-.37,2.77,2.77,0,0,0,.51-1.57,12.08,12.08,0,0,1,.43-2.07,2.58,2.58,0,0,0,0-1.58,1.16,1.16,0,0,1,.07-.78,16.84,16.84,0,0,0,1.1-2.1,25.89,25.89,0,0,0,.53-3.07c.24-1.55.48-4.59.72-6.14l-1.38,1.5-2.58-1.5-4.25,1.5Zm32.24,1.5c.1.66.13,1.35.22,2a3.37,3.37,0,0,0,.29,1.25,4.31,4.31,0,0,1,.49,2.79,4.14,4.14,0,0,0,.1,1.16c.16.7.63.88,1.25.52l.58-.4a6.19,6.19,0,0,1,.19.84c.2,3.54.37,7.08.6,10.61.1,1.58.31,3.16.47,4.73.06.56.09,1.12.17,1.67.06.39.24.72.71.73a.77.77,0,0,0,.83-.68c.17-1.25.28-2.51.42-3.76a3.14,3.14,0,0,1,.2-1,5.1,5.1,0,0,0,.47-3.2,4.21,4.21,0,0,1,.21-1.78,6.55,6.55,0,0,0,.23-3,1.79,1.79,0,0,1,0-.65,16.21,16.21,0,0,0,.46-2,12.49,12.49,0,0,1,.65-3.72,7.85,7.85,0,0,0,.3-2.58c.05-1.17,0-2.34.06-3.5l-1.06-.54-2-1-3.16.54h-1.34Zm10.19,0q.12,1.41.21,2.82a10,10,0,0,0,.61,2.65c.49,1.42.79,2.9,1.19,4.35a2.7,2.7,0,0,1-.06,1.75,2.88,2.88,0,0,0,.05,1.74c.25,1.06.28,2.18.48,3.25a8.8,8.8,0,0,0,.58,1.89.87.87,0,0,0,.7.41c.21,0,.45-.39.51-.64a16.17,16.17,0,0,0,.69-3.66c0-1.67.21-3.3.27-5a24.8,24.8,0,0,1,.88-7.18c.28-.81.78-2.33,1.08-3.14l-1.5.46-2.12-.46-1.25.71-1.5-.54Zm-153.78,0c.1.66.13,1.35.22,2a3.37,3.37,0,0,0,.29,1.25,4.38,4.38,0,0,1,.49,2.79,4.14,4.14,0,0,0,.1,1.16c.16.7.63.88,1.25.52l.58-.4a6.19,6.19,0,0,1,.19.84c.2,3.54.37,7.08.6,10.61.1,1.58.31,3.16.47,4.73.06.56.09,1.12.17,1.67.06.39.24.72.71.73a.77.77,0,0,0,.83-.68c.17-1.25.28-2.51.42-3.76a3.14,3.14,0,0,1,.2-1,5.1,5.1,0,0,0,.47-3.2,4.21,4.21,0,0,1,.21-1.78,6.55,6.55,0,0,0,.23-3,1.79,1.79,0,0,1,0-.65,16.21,16.21,0,0,0,.46-2,12.49,12.49,0,0,1,.65-3.72,7.85,7.85,0,0,0,.3-2.58c.05-1.17,0-2.34.06-3.5l-1.09-1.5-2.75,2-2.63-2Zm-7.1,0c0,1.19.31,2.35.42,3.54.06.68.11,1.37.16,2.06,0,.48.26.85.77.87a.75.75,0,0,0,.83-.8c0-.83,0-1.67,0-2.51a2.54,2.54,0,0,1,.45-1.46,7.45,7.45,0,0,0,.78-1.7l-1.73-.87Zm78.95,1c.05-.34,1.45-2.17,1.5-2.51l-2.88,1.5L168.69,4l-2.5.75-3.38-1.5c.15,1.29.28,4.07.4,5.36.19,2,.18,3.95,1,5.81a2.54,2.54,0,0,1,0,2.22,2.67,2.67,0,0,0-.25,1.08,10.2,10.2,0,0,0,.14,2.6,1.74,1.74,0,0,1,0,1.29,1.71,1.71,0,0,0,0,1.4,10.91,10.91,0,0,1,.48,1.89,11.09,11.09,0,0,0,.39,2.35,5.87,5.87,0,0,1,.35,2.83,17.76,17.76,0,0,0,.35,5.68A13.78,13.78,0,0,1,166,39a22.49,22.49,0,0,0,.47,3.75,1,1,0,0,0,1.35.75c.62-.19.83-.66.76-1.35a3.93,3.93,0,0,1,.12-1.57,10.58,10.58,0,0,0,.74-3.08c0-.61.17-1.21.24-1.82a1.37,1.37,0,0,0,0-.83,2,2,0,0,1,.1-1.92c.14-.36.27-.73.39-1.1a17,17,0,0,0,.47-4.32,8.63,8.63,0,0,1,.46-2.84,4.92,4.92,0,0,0,.31-3.32,1.46,1.46,0,0,1,.57-1.71,1,1,0,0,0,.38-1c-.22-1.29-.46-2.56-.66-3.85a1.87,1.87,0,0,1,.07-.85,16.13,16.13,0,0,0,.69-1.82c.41-1.89.82-3.8.18-5.74A1.28,1.28,0,0,1,172.57,5.8Zm7.37.41c.06-.47.12-1,.19-1.42l-1.69-1.5-3.15,1.5c.06.4.14.81.21,1.21a12.53,12.53,0,0,1,.41,4.31,2.43,2.43,0,0,0,.4,2.08,1.81,1.81,0,0,1,.46,1.26,7.83,7.83,0,0,0,.14,1.27c.07.35.3.68.68.59a1.19,1.19,0,0,0,.63-.58,3.48,3.48,0,0,0,.14-.93,5.94,5.94,0,0,1,.15-.94c.15-.55.35-1.09.52-1.64.28-.84.54-1.7.81-2.54A2.64,2.64,0,0,0,180,6.82,1.14,1.14,0,0,1,179.94,6.21ZM148.56,4.79l.18.35a25.28,25.28,0,0,1,1.67,6.33,16.12,16.12,0,0,1,.2,3.33,2.57,2.57,0,0,0,.27,1.5,2.1,2.1,0,0,1,.29,1.88,5.15,5.15,0,0,0,.05,3.67,36.44,36.44,0,0,1,1.5,7.88,12.56,12.56,0,0,0,.33,1.93c.18.65.69.82,1.2.38a2.11,2.11,0,0,0,.75-1.11c.14-.9.09-1.82.14-2.73a5.55,5.55,0,0,1,.22-1.53,11.8,11.8,0,0,0,.71-5.7.5.5,0,0,1,.06-.37,2.69,2.69,0,0,0,.5-1.57,13.14,13.14,0,0,1,.44-2.07,2.58,2.58,0,0,0,0-1.58,1.22,1.22,0,0,1,.06-.78,14.54,14.54,0,0,0,1.1-2.1,22.38,22.38,0,0,0,.53-3.07c.25-1.55.49-3.09.73-4.64l-2.2-.87-2.5-.63-3,2Zm-33.63,0,.18.35a24.86,24.86,0,0,1,1.67,6.33,15.45,15.45,0,0,1,.2,3.33,2.66,2.66,0,0,0,.28,1.5,2.13,2.13,0,0,1,.28,1.88,5.15,5.15,0,0,0,.06,3.67,37.69,37.69,0,0,1,1.5,7.88,12.54,12.54,0,0,0,.32,1.93c.18.65.69.82,1.2.38a2.13,2.13,0,0,0,.76-1.11c.14-.9.08-1.82.14-2.73a5.54,5.54,0,0,1,.21-1.53,11.68,11.68,0,0,0,.71-5.7.5.5,0,0,1,.06-.37A2.77,2.77,0,0,0,123,19a12.08,12.08,0,0,1,.43-2.07,2.58,2.58,0,0,0,0-1.58,1.23,1.23,0,0,1,.07-.78,15.6,15.6,0,0,0,1.1-2.1,25.89,25.89,0,0,0,.53-3.07,31.2,31.2,0,0,0,.47-5.51h-1.45l-2.75.87-4.37-1.5Zm154-.71a6.13,6.13,0,0,1,.91,2.72,3.37,3.37,0,0,0,.29,1.25,4.44,4.44,0,0,1,.49,2.79,4.14,4.14,0,0,0,.1,1.16c.15.7.62.88,1.24.52.18-.11.34-.23.59-.4a6.19,6.19,0,0,1,.19.84c.2,3.54.37,7.08.6,10.61.1,1.58.31,3.16.47,4.73,0,.56.09,1.12.17,1.67.06.39.23.72.71.73a.77.77,0,0,0,.83-.68c.17-1.25.27-2.51.42-3.76a3.13,3.13,0,0,1,.19-1,5,5,0,0,0,.47-3.2,4.22,4.22,0,0,1,.22-1.78,6.83,6.83,0,0,0,.23-3,1.59,1.59,0,0,1,0-.65,14.59,14.59,0,0,0,.45-2,12.5,12.5,0,0,1,.66-3.72,8.12,8.12,0,0,0,.3-2.58c0-1.17,0-3,.06-4.21l-1,.71-2-.56-2.29.56L272,4.26l-2.28-.18Zm10.88-.35c.08.94.15,2.94.21,3.88a9.64,9.64,0,0,0,.61,2.65c.48,1.42.79,2.9,1.19,4.35a2.76,2.76,0,0,1-.06,1.75,2.88,2.88,0,0,0,.05,1.74c.24,1.06.28,2.18.48,3.25a8.27,8.27,0,0,0,.58,1.89.87.87,0,0,0,.7.41c.2,0,.45-.39.51-.64a16.72,16.72,0,0,0,.68-3.66c0-1.67.22-3.3.27-5A25.16,25.16,0,0,1,286,7.22c.27-.81.55-1.63.85-2.43l-.56-1.5-1.93,1.5-1.44-.71-1.75.71Zm-17.3,1.06c0,1.19.32,2.35.42,3.54.06.68.11,1.37.17,2.06,0,.48.25.85.77.87a.76.76,0,0,0,.83-.8c0-.83.05-1.67,0-2.51a2.63,2.63,0,0,1,.46-1.46,7.9,7.9,0,0,0,.78-1.7l-.45-.71-1.1.37-1.19-.37Zm83.91,1c.05-.34.1-.67.14-1l-1.9.8L340,3.67l-3.29,1.12c.15,1.29.28,2.57.41,3.86a18.56,18.56,0,0,0,1,5.81,2.54,2.54,0,0,1,0,2.22,2.52,2.52,0,0,0-.25,1.08,9.77,9.77,0,0,0,.14,2.6,1.78,1.78,0,0,1,0,1.29,1.71,1.71,0,0,0,0,1.4,10.09,10.09,0,0,1,.49,1.89,11.09,11.09,0,0,0,.39,2.35,5.74,5.74,0,0,1,.34,2.83,17.76,17.76,0,0,0,.36,5.68,13.77,13.77,0,0,1,.35,3.2,22.5,22.5,0,0,0,.48,3.75,1,1,0,0,0,1.34.75,1.1,1.1,0,0,0,.77-1.35,3.93,3.93,0,0,1,.12-1.57,10.57,10.57,0,0,0,.73-3.08c0-.61.18-1.21.25-1.82a1.54,1.54,0,0,0,0-.83,2,2,0,0,1,.09-1.92c.15-.36.27-.73.39-1.1a17,17,0,0,0,.48-4.32,8.63,8.63,0,0,1,.46-2.84,5,5,0,0,0,.3-3.32,1.47,1.47,0,0,1,.57-1.71,1,1,0,0,0,.38-1c-.22-1.29-.45-2.56-.66-3.85a1.87,1.87,0,0,1,.08-.85,18.31,18.31,0,0,0,.69-1.82c.4-1.89.81-3.8.18-5.74A1.28,1.28,0,0,1,346.46,5.8Zm7.36.41c.07-.47.13-1,.19-1.42l-1.78-.71-3.06.71c.07.4.15.81.22,1.21a12.53,12.53,0,0,1,.41,4.31,2.39,2.39,0,0,0,.4,2.08,1.86,1.86,0,0,1,.46,1.26,7.83,7.83,0,0,0,.14,1.27c.07.35.29.68.68.59a1.19,1.19,0,0,0,.63-.58,3.12,3.12,0,0,0,.13-.93c.05-.32.07-.63.15-.94.16-.55.36-1.09.53-1.64.27-.84.53-1.7.81-2.54a2.68,2.68,0,0,0,.11-2.06A1.38,1.38,0,0,1,353.82,6.21Zm-32.5-2.33c.06.11,1.25,1.14,1.3,1.26a24.88,24.88,0,0,1,1.68,6.33,16.84,16.84,0,0,1,.2,3.33,2.57,2.57,0,0,0,.27,1.5,2.09,2.09,0,0,1,.28,1.88,5.15,5.15,0,0,0,.06,3.67,37.06,37.06,0,0,1,1.5,7.88,11.45,11.45,0,0,0,.33,1.93c.18.65.68.82,1.2.38a2.11,2.11,0,0,0,.75-1.11c.14-.9.08-1.82.14-2.73a5.19,5.19,0,0,1,.22-1.53A11.67,11.67,0,0,0,330,21a.5.5,0,0,1,.07-.37,2.76,2.76,0,0,0,.5-1.57A13.11,13.11,0,0,1,331,17a2.59,2.59,0,0,0,0-1.58,1.16,1.16,0,0,1,.06-.78,14.54,14.54,0,0,0,1.1-2.1,24,24,0,0,0,.53-3.07l.72-4.64-2.17-1.71-3.54,1.71-4.08-1.87Zm-33,.91a8.7,8.7,0,0,1,1.62,4.3,2.81,2.81,0,0,0,.37,1.26,4.62,4.62,0,0,1,.73,2.31c.24,2.75.46,5.51.7,8.26a45.1,45.1,0,0,0,.92,7,3.83,3.83,0,0,1,.12,1.61,11.77,11.77,0,0,0,.42,4.42c.15.73.23,1.47.35,2.2a1.19,1.19,0,0,0,.16.58,1.38,1.38,0,0,1,.15,1.37,6.19,6.19,0,0,0-.21,1.7,42.23,42.23,0,0,0,.47,5.52,30.41,30.41,0,0,1,.13,5.22c0,1.13.22,2.26.33,3.39.25,2.71.48,5.42.73,8.13,0,.33.09.66.11,1,.12,1.39.23,2.78.34,4.17a1.17,1.17,0,0,0,.79,1.16h.67a1.89,1.89,0,0,0,.57-1.4c0-1.27.07-2.53.06-3.8a21.31,21.31,0,0,1,.36-4.85,8.21,8.21,0,0,0,0-3.88,5,5,0,0,1,0-2.31,19.64,19.64,0,0,0,.11-7.29,1.79,1.79,0,0,1,.16-1.07,8.49,8.49,0,0,0,1.06-4.62,2.43,2.43,0,0,1,.4-1.54,2,2,0,0,0,.31-.93c.14-1.37.15-2.76.37-4.12a10.61,10.61,0,0,0,0-3.28,1.88,1.88,0,0,1,.09-1,5.86,5.86,0,0,0,.37-2.74c0-.8,0-1.6.08-2.4s.22-1.31.32-2c.16-1.08,0-2.21.67-3.2a1.34,1.34,0,0,0,.07-.87,4.44,4.44,0,0,1,0-2.26,2.55,2.55,0,0,0,0-.56L302.36,6a.91.91,0,0,1,.58-.92c.07.3.17.57.21.84a42.66,42.66,0,0,0,1.33,7.41c.53,1.74.67,3.59,1.52,5.24a1.37,1.37,0,0,1,.16.59,13.72,13.72,0,0,0,.46,4,7.35,7.35,0,0,1,.11,1.34,4.68,4.68,0,0,0,.09.83c.15.56.57.76,1,.37a2.17,2.17,0,0,0,.69-1.2,25.52,25.52,0,0,1,.87-5.06,2.31,2.31,0,0,0,0-.83,19.48,19.48,0,0,1,.56-6.32,19.7,19.7,0,0,0,.55-2.73c.12-1.07.1-2.16.15-3.23a2,2,0,0,1,.18-.52,1.09,1.09,0,0,1,.3.65c.07,1.09.14,2.19.16,3.29a9,9,0,0,0,.36,2.81,11.36,11.36,0,0,1,.37,2c.13.84.22,1.7.39,2.53.06.24.34.44.52.66a2.63,2.63,0,0,0,.53-.58,4.5,4.5,0,0,0,.44-1.26c.18-1.42.3-2.84.45-4.27.1-1,.18-2.07.32-3.1s.3-2.24.51-3.36a1.15,1.15,0,0,1,.17-.41L308.5,2.73,302.57,0l-3.19,4.79-3-2.12-1.9,2.12h-2.37l-2.38-1.5Zm167.1,0c.1.66.12,1.35.22,2a3.37,3.37,0,0,0,.29,1.25,4.44,4.44,0,0,1,.49,2.79,4.14,4.14,0,0,0,.1,1.16c.15.7.62.88,1.24.52.18-.11.34-.23.59-.4a4.89,4.89,0,0,1,.18.84c.21,3.54.38,7.08.61,10.61.1,1.58.31,3.16.47,4.73,0,.56.09,1.12.17,1.67.06.39.23.72.7.73a.78.78,0,0,0,.84-.68c.16-1.25.27-2.51.41-3.76a3.42,3.42,0,0,1,.2-1,5,5,0,0,0,.47-3.2,4.38,4.38,0,0,1,.21-1.78,6.69,6.69,0,0,0,.24-3,1.59,1.59,0,0,1,0-.65,16.17,16.17,0,0,0,.45-2,12.5,12.5,0,0,1,.66-3.72,8.12,8.12,0,0,0,.3-2.58c0-1.17,0-2.34.06-3.5l-1.47.69L461.1,4,458.63,5.1,457.19,4l-.78.84Zm10.19,0c.07.94.15,1.88.21,2.82a9.64,9.64,0,0,0,.61,2.65c.48,1.42.79,2.9,1.18,4.35a2.69,2.69,0,0,1-.05,1.75,2.88,2.88,0,0,0,.05,1.74c.24,1.06.28,2.18.48,3.25a8.78,8.78,0,0,0,.57,1.89.89.89,0,0,0,.71.41.93.93,0,0,0,.5-.64,16.17,16.17,0,0,0,.69-3.66c0-1.67.22-3.3.27-5a25.16,25.16,0,0,1,.89-7.18c.27-.81.55-1.63.85-2.43L471.75,4l-1.7,1.12L469,4.29,468.1,5,466.91,4Zm32.62,1c0-.34.34-2.17.39-2.51l-1.86,1.5L495,3.54l-2.37.69-1.27.19-1.81-1.25L488.52,4.5c.08,1.58.21,2.86.34,4.15a18.56,18.56,0,0,0,1,5.81,2.51,2.51,0,0,1,0,2.22,2.66,2.66,0,0,0-.24,1.08,9.77,9.77,0,0,0,.14,2.6,1.78,1.78,0,0,1,0,1.29,1.71,1.71,0,0,0,0,1.4,10.09,10.09,0,0,1,.49,1.89,10.49,10.49,0,0,0,.39,2.35,5.74,5.74,0,0,1,.34,2.83,17.76,17.76,0,0,0,.36,5.68,13.77,13.77,0,0,1,.35,3.2,22.5,22.5,0,0,0,.48,3.75,1,1,0,0,0,1.34.75,1.1,1.1,0,0,0,.77-1.35,3.93,3.93,0,0,1,.12-1.57,10.57,10.57,0,0,0,.73-3.08c0-.61.18-1.21.25-1.82a1.54,1.54,0,0,0,0-.83,2,2,0,0,1,.09-1.92c.15-.36.27-.73.39-1.1a17,17,0,0,0,.48-4.32,8.63,8.63,0,0,1,.46-2.84,5,5,0,0,0,.3-3.32,1.47,1.47,0,0,1,.57-1.71,1,1,0,0,0,.38-1c-.22-1.29-.46-2.56-.66-3.85a1.87,1.87,0,0,1,.08-.85,18.31,18.31,0,0,0,.69-1.82c.4-1.89.81-3.8.18-5.74A1.14,1.14,0,0,1,498.22,5.8Zm7.36.41c.07-.47.13-1,.19-1.42l-1,.42-1.4-.77-1.1.64L501.48,4l-.55.81c.07.4.15.81.22,1.21a12.53,12.53,0,0,1,.41,4.31,2.39,2.39,0,0,0,.4,2.08,1.86,1.86,0,0,1,.46,1.26,7.83,7.83,0,0,0,.14,1.27c.07.35.29.68.68.59a1.19,1.19,0,0,0,.63-.58A3.12,3.12,0,0,0,504,14c.05-.32.07-.63.15-.94.16-.55.36-1.09.53-1.64.27-.84.53-1.7.81-2.54a2.68,2.68,0,0,0,.11-2.06A1.38,1.38,0,0,1,505.58,6.21ZM474.21,4.79c.06.12.12.23.17.35a24.88,24.88,0,0,1,1.68,6.33,16.84,16.84,0,0,1,.2,3.33,2.57,2.57,0,0,0,.27,1.5,2.09,2.09,0,0,1,.28,1.88,5.15,5.15,0,0,0,.06,3.67,37.06,37.06,0,0,1,1.5,7.88,11.45,11.45,0,0,0,.33,1.93c.18.65.68.82,1.2.38a2.11,2.11,0,0,0,.75-1.11c.14-.9.08-1.82.14-2.73a5.19,5.19,0,0,1,.22-1.53,11.67,11.67,0,0,0,.7-5.7.5.5,0,0,1,.07-.37,2.76,2.76,0,0,0,.5-1.57,13.11,13.11,0,0,1,.43-2.07,2.59,2.59,0,0,0,0-1.58,1.16,1.16,0,0,1,.06-.78,14.54,14.54,0,0,0,1.1-2.1,24,24,0,0,0,.53-3.07l.72-4.64L483.63,4l-2.06,1.37-1.89-1.56-2.52,1-1,.69Zm32.65,0c.11.66.13,1.35.23,2a3.19,3.19,0,0,0,.29,1.25,4.37,4.37,0,0,1,.48,2.79A4.56,4.56,0,0,0,508,12c.15.7.62.88,1.24.52.18-.11.34-.23.58-.4A4.16,4.16,0,0,1,510,13c.21,3.54.38,7.08.61,10.61.1,1.58.31,3.16.47,4.73.05.56.09,1.12.17,1.67,0,.39.23.72.7.73a.78.78,0,0,0,.84-.68c.16-1.25.27-2.51.41-3.76a3.14,3.14,0,0,1,.2-1,5.1,5.1,0,0,0,.47-3.2,4.21,4.21,0,0,1,.21-1.78,6.55,6.55,0,0,0,.23-3,1.79,1.79,0,0,1,.05-.65,16.17,16.17,0,0,0,.45-2,12.19,12.19,0,0,1,.66-3.72,8.42,8.42,0,0,0,.3-2.58c0-1.17,0-2.34.06-3.5l-1-.46-1.65,1-1.06-1-2,.82-1.46-.57-1.27.84Zm10.19,0c.08.94.16,1.88.21,2.82a10,10,0,0,0,.62,2.65c.48,1.42.79,2.9,1.18,4.35a2.76,2.76,0,0,1,0,1.75,2.88,2.88,0,0,0,0,1.74c.25,1.06.29,2.18.48,3.25a8.8,8.8,0,0,0,.58,1.89.87.87,0,0,0,.71.41.93.93,0,0,0,.5-.64,16.17,16.17,0,0,0,.69-3.66c0-1.67.22-3.3.27-5a24.81,24.81,0,0,1,.89-7.18c.27-.81.55-1.63.85-2.43l-1.14.4-1-.71-1.77.6-1.52-.5-1,.84ZM363.27,4.08c.11.66.13,2.06.23,2.72a3.19,3.19,0,0,0,.29,1.25,4.37,4.37,0,0,1,.48,2.79,4.56,4.56,0,0,0,.11,1.16c.15.7.62.88,1.24.52.18-.11.34-.23.58-.4a4.16,4.16,0,0,1,.19.84c.21,3.54.38,7.08.6,10.61.11,1.58.32,3.16.48,4.73,0,.56.08,1.12.17,1.67.05.39.23.72.7.73a.78.78,0,0,0,.84-.68c.16-1.25.27-2.51.41-3.76a3.14,3.14,0,0,1,.2-1,5.1,5.1,0,0,0,.47-3.2,4.21,4.21,0,0,1,.21-1.78,6.55,6.55,0,0,0,.23-3,1.79,1.79,0,0,1,.05-.65,16.17,16.17,0,0,0,.45-2,12.19,12.19,0,0,1,.66-3.72,8.42,8.42,0,0,0,.3-2.58c0-1.17,0-2.34.06-3.5H370.9l-2.67-1.87L365.9,5.33Zm10.19.71c.08.94.16,1.88.21,2.82a10.42,10.42,0,0,0,.61,2.65c.49,1.42.8,2.9,1.19,4.35a2.76,2.76,0,0,1-.05,1.75,2.88,2.88,0,0,0,0,1.74c.25,1.06.29,2.18.48,3.25a8.8,8.8,0,0,0,.58,1.89.87.87,0,0,0,.71.41.93.93,0,0,0,.5-.64,16.17,16.17,0,0,0,.69-3.66c0-1.67.22-3.3.27-5a24.81,24.81,0,0,1,.89-7.18c.27-.81.55-1.63.85-2.43l-.86-.71L378,5.17l-2.75-1.09Zm-17.29,0c0,1.19.31,2.35.42,3.54.06.68.11,1.37.17,2.06,0,.48.25.85.77.87a.76.76,0,0,0,.83-.8c0-.83.05-1.67,0-2.51a2.63,2.63,0,0,1,.46-1.46,7.9,7.9,0,0,0,.78-1.7l-1.74-.71Zm25.76-.71a11.53,11.53,0,0,1,1.62,5,2.8,2.8,0,0,0,.36,1.26,4.64,4.64,0,0,1,.74,2.31c.23,2.75.46,5.51.7,8.26a42.83,42.83,0,0,0,.92,7,4,4,0,0,1,.12,1.61,11.57,11.57,0,0,0,.42,4.42c.15.73.22,1.47.34,2.2a1.32,1.32,0,0,0,.17.58,1.43,1.43,0,0,1,.15,1.37,6.61,6.61,0,0,0-.22,1.7,42.23,42.23,0,0,0,.48,5.52,31.46,31.46,0,0,1,.13,5.22c0,1.13.22,2.26.32,3.39q.38,4.07.73,8.13c0,.33.09.66.12,1,.12,1.39.22,2.78.34,4.17a1.15,1.15,0,0,0,.79,1.16h.67a1.89,1.89,0,0,0,.57-1.4c0-1.27.06-2.53.06-3.8a21.31,21.31,0,0,1,.36-4.85,8.21,8.21,0,0,0,0-3.88,5,5,0,0,1,0-2.31,19.64,19.64,0,0,0,.12-7.29,1.79,1.79,0,0,1,.16-1.07,8.48,8.48,0,0,0,1.05-4.62,2.5,2.5,0,0,1,.4-1.54,2,2,0,0,0,.32-.93c.14-1.37.15-2.76.36-4.12a10.31,10.31,0,0,0,0-3.28,1.8,1.8,0,0,1,.09-1,5.86,5.86,0,0,0,.37-2.74,21.39,21.39,0,0,1,.08-2.4c.06-.66.21-1.31.31-2a7.55,7.55,0,0,1,.68-3.2,1.28,1.28,0,0,0,.06-.87,4.55,4.55,0,0,1,0-2.26,2.06,2.06,0,0,0,0-.56L396,6a.94.94,0,0,1,.58-.92,6.06,6.06,0,0,1,.21.84,43.63,43.63,0,0,0,1.33,7.41c.54,1.74.67,3.59,1.53,5.24a1.37,1.37,0,0,1,.16.59,13.72,13.72,0,0,0,.46,4,6.56,6.56,0,0,1,.1,1.34,5.87,5.87,0,0,0,.1.83c.15.56.57.76,1,.37a2.17,2.17,0,0,0,.69-1.2,26.24,26.24,0,0,1,.86-5.06,2.55,2.55,0,0,0,0-.83,19.75,19.75,0,0,1,.55-6.32,18.37,18.37,0,0,0,.56-2.73c.12-1.07.09-2.16.15-3.23a2,2,0,0,1,.18-.52,1.09,1.09,0,0,1,.3.65c.07,1.09.14,2.19.16,3.29a8.69,8.69,0,0,0,.36,2.81,11.34,11.34,0,0,1,.36,2c.14.84.23,1.7.4,2.53.05.24.34.44.51.66a2.45,2.45,0,0,0,.54-.58,4.18,4.18,0,0,0,.43-1.26c.19-1.42.31-2.84.46-4.27.1-1,.18-2.07.31-3.1s.31-2.24.52-3.36a1.35,1.35,0,0,1,.16-.41l-1.63-1.87-4.17,1.16H400L391.4,1.92l-4.75,2.87L385.23,2.5Zm53.2,1.72c.05-.34.09-.67.14-1l-1.54-1.16-2,.58-2-.58-2.71-1.8-1.58,2.75c.15,1.5.28,2.78.4,4.07.19,2,.18,3.95,1,5.81a2.51,2.51,0,0,1,0,2.22,2.51,2.51,0,0,0-.24,1.08,10.21,10.21,0,0,0,.13,2.6,1.74,1.74,0,0,1,0,1.29,1.71,1.71,0,0,0,0,1.4,10.93,10.93,0,0,1,.49,1.89,11.09,11.09,0,0,0,.38,2.35,5.64,5.64,0,0,1,.35,2.83,17.76,17.76,0,0,0,.36,5.68,14.33,14.33,0,0,1,.35,3.2,22.49,22.49,0,0,0,.47,3.75,1,1,0,0,0,1.35.75,1.1,1.1,0,0,0,.77-1.35,3.93,3.93,0,0,1,.12-1.57A10.9,10.9,0,0,0,432,37.5c0-.61.18-1.21.25-1.82a1.54,1.54,0,0,0,0-.83,2,2,0,0,1,.09-1.92c.15-.36.27-.73.39-1.1a17,17,0,0,0,.48-4.32,8.37,8.37,0,0,1,.45-2.84,4.92,4.92,0,0,0,.31-3.32,1.47,1.47,0,0,1,.57-1.71,1,1,0,0,0,.38-1c-.22-1.29-.46-2.56-.66-3.85a1.87,1.87,0,0,1,.08-.85,18.23,18.23,0,0,0,.68-1.82c.41-1.89.82-3.8.18-5.74A1.28,1.28,0,0,1,435.13,5.8Zm7.36.41c.06-.47.12-1,.19-1.42l-.7-.44-.79-.93-.58.71-.71-.71-.69,1.21L438.4,4l-.56.75c.07.4.14.81.22,1.21a12.77,12.77,0,0,1,.4,4.31,2.43,2.43,0,0,0,.4,2.08,1.76,1.76,0,0,1,.46,1.26,11,11,0,0,0,.14,1.27c.07.35.3.68.69.59a1.13,1.13,0,0,0,.62-.58,3.12,3.12,0,0,0,.14-.93,7.36,7.36,0,0,1,.15-.94c.16-.55.35-1.09.53-1.64.27-.84.53-1.7.81-2.54a2.68,2.68,0,0,0,.11-2.06A1.14,1.14,0,0,1,442.49,6.21ZM411.11,4.79l.18.35A24.86,24.86,0,0,1,413,11.47a15.45,15.45,0,0,1,.2,3.33,2.66,2.66,0,0,0,.28,1.5,2.09,2.09,0,0,1,.28,1.88,5.15,5.15,0,0,0,.06,3.67,37.06,37.06,0,0,1,1.5,7.88,12.54,12.54,0,0,0,.32,1.93c.18.65.69.82,1.2.38a2.13,2.13,0,0,0,.76-1.11c.14-.9.08-1.82.14-2.73a5.54,5.54,0,0,1,.21-1.53,11.56,11.56,0,0,0,.71-5.7.55.55,0,0,1,.06-.37,2.7,2.7,0,0,0,.51-1.57,12.08,12.08,0,0,1,.43-2.07,2.58,2.58,0,0,0,0-1.58,1.23,1.23,0,0,1,.07-.78,15.6,15.6,0,0,0,1.1-2.1,24,24,0,0,0,.53-3.07l.72-4.64s-.75-1-1.25-1.12-3.75,1.12-3.75,1.12l-3.75-1.87Zm-269.19,1c0-.34.09-.67.14-1l-1-1.5-5.13,1.5h-3.79c.15,1.29.28,2.57.4,3.86.19,2,.18,3.95,1,5.81a2.54,2.54,0,0,1,0,2.22,2.67,2.67,0,0,0-.25,1.08,10.2,10.2,0,0,0,.14,2.6,1.74,1.74,0,0,1,0,1.29,1.71,1.71,0,0,0,0,1.4,10.91,10.91,0,0,1,.48,1.89,11.77,11.77,0,0,0,.39,2.35,5.87,5.87,0,0,1,.35,2.83A17.76,17.76,0,0,0,135,35.8a13.78,13.78,0,0,1,.36,3.2,22.49,22.49,0,0,0,.47,3.75,1,1,0,0,0,1.35.75c.62-.19.83-.66.77-1.35a3.6,3.6,0,0,1,.12-1.57,10.9,10.9,0,0,0,.73-3.08c0-.61.18-1.21.25-1.82a1.54,1.54,0,0,0,0-.83,2,2,0,0,1,.09-1.92c.14-.36.27-.73.39-1.1a17,17,0,0,0,.47-4.32,8.63,8.63,0,0,1,.46-2.84,4.92,4.92,0,0,0,.31-3.32,1.47,1.47,0,0,1,.57-1.71,1,1,0,0,0,.38-1c-.22-1.29-.46-2.56-.66-3.85a1.87,1.87,0,0,1,.08-.85,18.23,18.23,0,0,0,.68-1.82c.41-1.89.82-3.8.18-5.74A1.14,1.14,0,0,1,141.92,5.8Z"/></svg>