<svg id="Laag_1" data-name="Laag 1" xmlns="http://www.w3.org/2000/svg" xmlns:xlink="http://www.w3.org/1999/xlink" viewBox="0 0 74.56 73.97"><defs><style>.cls-1{fill:none;}.cls-2{fill:#e94c3a;}.cls-3{fill:#2f2e50;}.cls-4{clip-path:url(#clip-path);}.cls-5{fill:#bc1e1d;}.cls-6{fill:#fdf0f7;}.cls-7{fill:#fff;stroke:#efd176;stroke-miterlimit:10;stroke-width:1.58px;}</style><clipPath id="clip-path"><path class="cls-1" d="M15.69,55.94s16-12.42,22.61-16S63.5,25.73,65.69,26s7,11.9,7,11.9-23.59,13.37-29.5,16.7C37.55,57.71,25,67.78,23.4,67.71s-2.54-5-3.75-6.49S15.6,57.67,15.69,55.94Z"/></clipPath></defs><title>muts</title><g id="Group_1141" data-name="Group 1141"><path id="Path_2978" data-name="Path 2978" class="cls-2" d="M17.53,21.14A27.47,27.47,0,0,0,13,34.72c-.43,7.47,3.77,19.18,4.16,21.62s11.68-8.43,13.74-8.82,9.83-6.14,11.19-7.24,13.61-9,16.08-9.69a45.58,45.58,0,0,0,7.22-3.67s-6.67-7.09-11.83-10S42.09,10.26,38.87,11s-8.7-.82-9.79.77S17.53,21.14,17.53,21.14Z"/><circle id="Ellipse_64" data-name="Ellipse 64" class="cls-3" cx="22.9" cy="15.31" r="7.92"/><g id="Group_1140" data-name="Group 1140"><g class="cls-4"><g id="Group_1137" data-name="Group 1137"><path id="Path_2979" data-name="Path 2979" class="cls-5" d="M71,28.39S48.5,40.53,40.23,45.65,11.07,65.56,11.07,65.56L8.21,60.94S29.37,46.21,37.48,41.2,68.17,23.78,68.17,23.78Z"/></g></g><g class="cls-4"><g id="Group_1138" data-name="Group 1138"><path id="Path_2981" data-name="Path 2981" class="cls-6" d="M73.42,32.24S50.89,44.38,42.62,49.5,13.46,69.41,13.46,69.41L10.6,64.79S31.76,50.06,39.87,45.05,70.56,27.62,70.56,27.62Z"/></g></g><g class="cls-4"><g id="Group_1139" data-name="Group 1139"><path id="Path_2983" data-name="Path 2983" class="cls-3" d="M76.12,36.59S53.59,48.73,45.32,53.85,16.16,73.76,16.16,73.76L13.3,69.14S34.46,54.41,42.56,49.4,73.26,32,73.26,32Z"/></g></g></g><path id="Path_2985" data-name="Path 2985" class="cls-7" d="M48.64,37.59,42,41.67l-.18.12-6.63,4.09s1.34,5.8,5.12,6.07,5.35-2.08,6.16-1.81a6.09,6.09,0,0,0,.73.21h0a5.86,5.86,0,0,0,.13-.73c.13-.86,2.93-1.2,4.41-4.7S48.64,37.59,48.64,37.59Z"/></g></svg>