<?xml version="1.0" encoding="utf-8"?>
<!-- Generator: Adobe Illustrator 17.0.0, SVG Export Plug-In . SVG Version: 6.00 Build 0)  -->
<!DOCTYPE svg PUBLIC "-//W3C//DTD SVG 1.1//EN" "http://www.w3.org/Graphics/SVG/1.1/DTD/svg11.dtd">
<svg version="1.1" id="Laag_1" xmlns="http://www.w3.org/2000/svg" xmlns:xlink="http://www.w3.org/1999/xlink" x="0px" y="0px"
	 width="1000px" height="1000px" viewBox="0 0 1000 1000" enable-background="new 0 0 1000 1000" xml:space="preserve">
<g>
	<path fill="#313131" d="M526.884,524.029c0.316,4.104,1.995,7.664,4.362,10.951c0.808,1.77,1.967,3.238,3.655,4.252
		c2.088,2.506,4.684,4.188,7.896,4.871c1.537,1.189,3.358,1.502,5.218,1.692c4.615,0.978,9.246,1.608,13.949,0.618
		c2.039,0.389,4.043,0.149,6.032-0.344c4.999-0.08,9.997-0.16,14.996-0.24c1.673,0.007,3.347,0.013,5.02,0.02
		c4.994,0.01,9.989,0.021,14.983,0.031c1.669,0.039,3.338,0.078,5.008,0.117c4.648,0.427,9.291,0.995,13.974,0.612
		c1.674,0.147,3.347,0.293,5.021,0.44c3.966,1.137,7.931,2.274,11.897,3.411c1.04,0.458,2.08,0.915,3.12,1.373
		c2.975,1.783,5.951,3.566,8.926,5.349c1.034,0.899,2.069,1.799,3.103,2.698c2.246,2.533,4.492,5.067,6.737,7.6
		c0.121,0.685,0.297,1.332,1.079,1.56c1.633,3.353,3.266,6.707,4.899,10.06c0.135,1.405,0.4,2.766,1.321,3.904
		c0.698,3.994,1.397,7.987,2.095,11.981c-0.088,2.055-0.201,4.113,0.607,6.079c-0.383,4.652-0.413,9.303,0.049,13.953
		c-0.36,1.368-0.628,2.727,0.348,3.978c-0.045,0.332-0.038,0.662,0.02,0.992c-1.316,3.349-0.595,6.844-0.569,10.254
		c0.022,2.855-0.963,3.736-3.74,3.603c-3.284-0.157-6.589,0.116-9.885,0.203c-1.668-0.015-3.335-0.03-5.003-0.045
		c-4.999,0.015-9.998,0.03-14.997,0.045c-1.668-0.015-3.335-0.03-5.003-0.045c-4.999,0.015-9.998,0.03-14.997,0.045
		c-1.668-0.015-3.335-0.03-5.003-0.045c-4.999,0.015-9.998,0.03-14.997,0.045c-1.668-0.015-3.335-0.03-5.003-0.045
		c-4.999,0.015-9.998,0.03-14.997,0.045c-1.668-0.015-3.335-0.03-5.003-0.045c-4.999,0.015-9.998,0.03-14.997,0.045
		c-1.668-0.015-3.335-0.03-5.003-0.045c-4.999,0.015-9.998,0.03-14.997,0.045c-1.668-0.015-3.335-0.03-5.003-0.045
		c-4.999,0.015-9.998,0.03-14.997,0.045c-1.668-0.015-3.335-0.03-5.003-0.045c-4.999,0.015-9.998,0.03-14.997,0.045
		c-1.668-0.015-3.335-0.03-5.003-0.045c-4.999,0.015-9.998,0.03-14.997,0.045c-1.668-0.015-3.335-0.03-5.003-0.045
		c-4.999,0.015-9.998,0.03-14.997,0.045c-1.668-0.015-3.335-0.03-5.003-0.045c-4.999,0.015-9.998,0.03-14.997,0.045
		c-1.668-0.015-3.335-0.03-5.003-0.045c-4.999,0.015-9.998,0.03-14.997,0.045c-1.668-0.015-3.335-0.03-5.003-0.045
		c-4.999,0.015-9.998,0.03-14.997,0.045c-1.668-0.015-3.335-0.03-5.003-0.045c-4.999,0.015-9.998,0.03-14.997,0.045
		c-1.668-0.015-3.335-0.03-5.003-0.045c-4.999,0.015-9.998,0.03-14.997,0.045c-1.668-0.015-3.336-0.03-5.003-0.045
		c-4.999,0.015-9.998,0.03-14.997,0.046c-1.663-0.065-3.325-0.13-4.988-0.195c-1.396-3.534,0.029-7.292-0.863-10.866
		c0.446-1.665,0.43-3.325-0.059-4.979c0.552-5.004,0.47-10.012,0.073-15.021c0.613-1.971,0.61-3.985,0.427-6.013
		c0.656-6.118,2.029-12.088,3.691-18c1.608-3.31,3.217-6.62,4.825-9.93c4.253-5.664,9.175-10.641,15.051-14.636
		c2.945-1.457,5.89-2.914,8.836-4.371c5.906-1.599,11.833-3.093,17.97-3.514c2.029,0.374,4.039,0.387,6.012-0.318
		c5.004-0.118,10.008-0.235,15.012-0.353c1.673,0.003,3.346,0.006,5.019,0.009c4.994-0.003,9.987-0.006,14.981-0.009
		c1.671,0.029,3.343,0.058,5.014,0.088c4.654,0.214,9.308,0.427,13.961,0.641c1.961,0.46,3.922,0.467,5.885,0.01
		c17.599-1.195,26.539-10.169,28.543-28.648c0.847-1.928,0.679-3.939,0.486-5.953c0.39-4.705,0.791-9.411-0.861-13.991
		c0.038-1.426,0.145-2.869-0.988-4.006c-0.554-4.643-2.452-8.793-4.693-12.817c-0.212-0.833-0.207-1.776-1.134-2.248
		c-1.359-3.861-3.473-7.294-5.949-10.522c-0.11-0.633-0.2-1.28-0.967-1.487c-1.906-3.769-4.257-7.23-7.14-10.323
		c-0.289-1.221-1.01-2.128-2.042-2.809c-1.606-2.905-3.587-5.527-5.948-7.861c-0.715-1.605-1.678-3.025-3.071-4.126
		c-1.622-2.633-3.245-5.266-4.867-7.9c-0.668-1.46-1.337-2.919-2.005-4.379c-1.049-3.175-2.097-6.351-3.146-9.526
		c-0.016-1.413,0.076-2.852-0.962-4.021c-0.397-4.656-0.794-9.312-1.192-13.968c0.043-1.667,0.087-3.335,0.131-5.002
		c1.201-6.056,2.402-12.113,3.603-18.169c0.91-2.561,1.821-5.122,2.732-7.683c6.413-13.451,16.612-23.184,29.616-30.162
		c2.937-1.108,5.874-2.215,8.812-3.323c5.951-1.801,12.027-3.016,18.178-3.88c1.968-0.085,3.936-0.17,5.904-0.255
		c4.365,0.409,8.73,0.817,13.095,1.226c1.675,0.359,3.351,0.718,5.026,1.078c3.646,1.122,7.292,2.244,10.938,3.367
		c1.024,0.512,2.047,1.024,3.071,1.535c3.309,1.817,6.619,3.634,9.928,5.451c0.144,0.781,0.78,0.926,1.405,1.085
		c2.562,2.238,5.124,4.477,7.686,6.715c1.278,1.438,2.555,2.876,3.833,4.314c1.91,2.926,3.821,5.852,5.731,8.778
		c0.352,0.678,0.704,1.355,1.056,2.033c1.421,3.641,2.842,7.282,4.263,10.923c0.01,1.077-0.072,2.178,0.778,3.041
		c0.69,4.317,1.379,8.635,2.069,12.952c0.111,1.66,0.222,3.319,0.333,4.979c-0.574,5.379-1.148,10.758-1.722,16.137
		c-0.513,2.264-1.026,4.529-1.539,6.793c-4.406,13.431-13.962,23.615-21.925,34.804c-1.251,1.758-2.388,3.597-3.578,5.398
		c-2.944,4.005-5.706,8.117-7.526,12.784c-4.47,7.144-7.216,14.914-8.448,23.235c-0.544,1.925-0.623,3.875-0.31,5.845
		c-0.324,4.709-0.517,9.409,0.944,13.997C525.937,521.422,525.787,522.863,526.884,524.029z"/>
	<path fill="#323232" d="M596.966,668.446c-4.976,0.015-9.953,0.031-14.929,0.046c-1.69-0.015-3.381-0.031-5.071-0.046
		c-4.976,0.015-9.953,0.031-14.929,0.046c-1.69-0.015-3.381-0.031-5.071-0.046c-4.976,0.015-9.953,0.031-14.929,0.046
		c-1.69-0.015-3.381-0.031-5.071-0.046c-4.976,0.015-9.953,0.031-14.929,0.046c-1.69-0.015-3.381-0.031-5.071-0.046
		c-4.976,0.015-9.953,0.031-14.929,0.046c-1.69-0.015-3.381-0.031-5.071-0.046c-4.976,0.015-9.953,0.031-14.929,0.046
		c-1.69-0.015-3.381-0.031-5.071-0.046c-4.976,0.015-9.953,0.031-14.929,0.046c-1.69-0.015-3.381-0.031-5.071-0.046
		c-4.976,0.015-9.953,0.031-14.929,0.046c-1.69-0.015-3.381-0.031-5.071-0.046c-4.643,0.015-9.286,0.031-13.929,0.046
		c-2.024-0.015-4.048-0.031-6.071-0.046c-4.976,0.015-9.952,0.031-14.929,0.046c-1.69-0.015-3.381-0.031-5.071-0.046
		c-4.976,0.015-9.953,0.031-14.929,0.046c-1.69-0.015-3.381-0.031-5.071-0.046c-4.977,0.018-9.955,0.035-14.932,0.053
		c-1.347-0.122-2.695-0.245-4.042-0.367c-3.105-1.017-5.619-2.95-7.964-5.144c-0.604-1.02-1.208-2.039-1.812-3.059
		c-1.134-4.248-0.584-8.639-1.103-12.938c0.436-1.662,0.366-3.322-0.011-4.982c0.299-0.344,0.598-0.688,0.898-1.032
		c1.669-0.022,3.339-0.044,5.008-0.065c4.995-0.013,9.991-0.026,14.986-0.038c1.671,0.013,3.343,0.026,5.014,0.038
		c4.995-0.013,9.991-0.026,14.986-0.038c1.671,0.013,3.343,0.026,5.014,0.038c4.995-0.013,9.991-0.026,14.986-0.038
		c1.671,0.013,3.343,0.026,5.014,0.038c4.995-0.013,9.991-0.026,14.986-0.038c1.671,0.013,3.343,0.026,5.014,0.038
		c4.995-0.013,9.991-0.026,14.986-0.038c1.671,0.013,3.343,0.026,5.014,0.038c4.995-0.013,9.99-0.026,14.986-0.038
		c1.671,0.013,3.343,0.026,5.014,0.038c4.995-0.013,9.99-0.026,14.986-0.038c1.671,0.013,3.343,0.026,5.014,0.038
		c4.995-0.013,9.991-0.026,14.986-0.038c1.671,0.013,3.343,0.026,5.014,0.038c4.995-0.013,9.99-0.026,14.986-0.038
		c1.671,0.013,3.343,0.026,5.014,0.038c4.995-0.013,9.99-0.026,14.986-0.038c1.671,0.013,3.343,0.026,5.014,0.038
		c4.995-0.013,9.99-0.026,14.986-0.038c1.671,0.013,3.343,0.026,5.014,0.038c4.995-0.013,9.99-0.026,14.986-0.038
		c1.671,0.013,3.343,0.026,5.014,0.038c4.995-0.013,9.99-0.026,14.986-0.038c1.671,0.013,3.343,0.026,5.014,0.038
		c4.995-0.013,9.99-0.026,14.986-0.038c1.671,0.013,3.343,0.026,5.014,0.038c4.995-0.013,9.991-0.026,14.986-0.038
		c1.671,0.013,3.343,0.026,5.014,0.038c3.617,2.814,0.415,6.888,1.866,10.102c-0.02,1.657-0.04,3.313-0.06,4.97
		c-1.743,6.73-5.638,11.244-12.781,12.413c-1.688,0.017-3.377,0.034-5.065,0.051c-4.976,0.015-9.953,0.031-14.929,0.046
		c-1.69-0.015-3.381-0.031-5.071-0.046c-4.976,0.015-9.953,0.031-14.929,0.046C600.346,668.477,598.656,668.461,596.966,668.446z"/>
	<path fill="#EFEFEF" d="M671.177,618.995c0.317-0.005,0.629,0.034,0.936,0.117c-0.305,0.292-0.611,0.584-0.917,0.875
		C671.139,619.657,671.132,619.327,671.177,618.995z"/>
</g>
</svg>
