<svg id="Layer_1" data-name="Layer 1" xmlns="http://www.w3.org/2000/svg" viewBox="0 0 210.83 210.83"><defs><style>.cls-1{fill:#575c71;}.cls-2{fill:#191c33;}.cls-3{font-size:17px;fill:#15172d;font-family:Roboto-Regular, Roboto;}</style></defs><title>Sloten</title><rect class="cls-1" width="210.83" height="210.83" rx="15.54" ry="15.54"/><path class="cls-2" d="M144.49,93.23,121.38,63.62V54.5h2.1V52h-2.1V49.88h-2.75V52h-2.1V54.5h2.1v9.12L95.52,93.23H89.63v-53h.1l1-.48v-6H88.38L75.61,15.23,62.84,33.68H60.45v6l1,.48h.1V151.32h50.25V126.68a13.72,13.72,0,0,1,2.24-7.53c1.45-2.23,3.52-4.78,5.93-6,2.4,1.18,4.47,3.73,5.92,6a13.72,13.72,0,0,1,2.24,7.53v24.64h22.21V93.23ZM70.09,55.51a8.29,8.29,0,0,1,.55-3,6.33,6.33,0,0,1,1.47-2.4,6.21,6.21,0,0,1,1.47,2.4,8.29,8.29,0,0,1,.56,3v9.94h-4Zm9.13,79.38H72V117.16a14.62,14.62,0,0,1,1-5.41,11.34,11.34,0,0,1,2.62-4.29,11.34,11.34,0,0,1,2.62,4.29,14.62,14.62,0,0,1,1,5.41Zm1.91-69.44h-4V55.51a8.09,8.09,0,0,1,.56-3,6.21,6.21,0,0,1,1.47-2.4,6.32,6.32,0,0,1,1.46,2.4,8.09,8.09,0,0,1,.56,3Z"/><text class="cls-3" transform="translate(81.49 190.04)">Sloten</text></svg>