<svg id="Layer_1" data-name="Layer 1" xmlns="http://www.w3.org/2000/svg" viewBox="0 0 210.83 210.83"><defs><style>.cls-1{fill:#575c71;}.cls-2{fill:#191c33;}.cls-3{fill:#15172d;}</style></defs><title>sloten_1</title><rect class="cls-1" width="210.83" height="210.83" rx="15.54" ry="15.54"/><path class="cls-2" d="M144.49,93.23,121.38,63.62V54.5h2.1V52h-2.1V49.88h-2.75V52h-2.1V54.5h2.1v9.12L95.52,93.23H89.63v-53h.1l1-.48v-6H88.38L75.61,15.23,62.84,33.68H60.45v6l1,.48h.1V151.32h50.25V126.68a13.72,13.72,0,0,1,2.24-7.53c1.45-2.23,3.52-4.78,5.93-6,2.4,1.18,4.47,3.73,5.92,6a13.72,13.72,0,0,1,2.24,7.53v24.64h22.21V93.23ZM70.09,55.51a8.29,8.29,0,0,1,.55-3,6.33,6.33,0,0,1,1.47-2.4,6.21,6.21,0,0,1,1.47,2.4,8.29,8.29,0,0,1,.56,3v9.94h-4Zm9.13,79.38H72V117.16a14.62,14.62,0,0,1,1-5.41,11.34,11.34,0,0,1,2.62-4.29,11.34,11.34,0,0,1,2.62,4.29,14.62,14.62,0,0,1,1,5.41Zm1.91-69.44h-4V55.51a8.09,8.09,0,0,1,.56-3,6.21,6.21,0,0,1,1.47-2.4,6.32,6.32,0,0,1,1.46,2.4,8.09,8.09,0,0,1,.56,3Z"/><path class="cls-3" d="M89.34,187a2.18,2.18,0,0,0-.13-.75,1.56,1.56,0,0,0-.46-.59,3.72,3.72,0,0,0-.88-.51,13.33,13.33,0,0,0-1.41-.48,11.86,11.86,0,0,1-1.63-.59,5.59,5.59,0,0,1-1.23-.75,3.05,3.05,0,0,1-.79-1,2.77,2.77,0,0,1-.27-1.25,3,3,0,0,1,.29-1.31,3.11,3.11,0,0,1,.84-1A4,4,0,0,1,85,178a5.6,5.6,0,0,1,1.69-.25,5.08,5.08,0,0,1,1.81.31,4.37,4.37,0,0,1,1.35.81,3.47,3.47,0,0,1,1.1,2.54h-1.6a2.56,2.56,0,0,0-.16-.93,2,2,0,0,0-.49-.75,2.43,2.43,0,0,0-.83-.49,3.53,3.53,0,0,0-1.18-.18,3.75,3.75,0,0,0-1.12.15,2.24,2.24,0,0,0-.78.42,1.67,1.67,0,0,0-.45.61,2,2,0,0,0-.15.78,1.47,1.47,0,0,0,.16.7,1.91,1.91,0,0,0,.5.58,3.78,3.78,0,0,0,.88.49,9.07,9.07,0,0,0,1.28.43,11.62,11.62,0,0,1,1.78.65,4.76,4.76,0,0,1,1.23.8,3,3,0,0,1,.72,1,3.15,3.15,0,0,1,.24,1.26,2.93,2.93,0,0,1-.3,1.34,2.87,2.87,0,0,1-.85,1,4,4,0,0,1-1.33.65,5.84,5.84,0,0,1-1.73.23,6,6,0,0,1-1.11-.1,6.28,6.28,0,0,1-1.07-.31,4.87,4.87,0,0,1-1-.52,3.66,3.66,0,0,1-.76-.71,3.27,3.27,0,0,1-.5-.92,3.23,3.23,0,0,1-.18-1.11h1.6A2.23,2.23,0,0,0,84,187.6a2.11,2.11,0,0,0,.66.73,2.66,2.66,0,0,0,1,.43,4.52,4.52,0,0,0,1.12.14,3.06,3.06,0,0,0,1.93-.52A1.67,1.67,0,0,0,89.34,187Z"/><path class="cls-3" d="M94.41,190H92.87V177.29h1.54Z"/><path class="cls-3" d="M96.46,185.46a5.54,5.54,0,0,1,.28-1.81,4.56,4.56,0,0,1,.82-1.45,3.69,3.69,0,0,1,1.28-1,3.87,3.87,0,0,1,1.69-.35,4,4,0,0,1,1.72.35,3.82,3.82,0,0,1,1.29,1,4.36,4.36,0,0,1,.81,1.45,5.54,5.54,0,0,1,.28,1.81v.18a5.6,5.6,0,0,1-.28,1.82,4.31,4.31,0,0,1-.81,1.44,3.73,3.73,0,0,1-1.29,1,4.42,4.42,0,0,1-3.4,0,3.82,3.82,0,0,1-1.29-1,4.51,4.51,0,0,1-.82-1.44,5.6,5.6,0,0,1-.28-1.82Zm1.54.18a4.7,4.7,0,0,0,.16,1.27,3,3,0,0,0,.48,1.05,2.26,2.26,0,0,0,.79.72,2.44,2.44,0,0,0,2.23,0,2.21,2.21,0,0,0,.8-.72,3.37,3.37,0,0,0,.48-1.05,5.13,5.13,0,0,0,.16-1.27v-.18a5.18,5.18,0,0,0-.16-1.26,3.33,3.33,0,0,0-.48-1.06,2.44,2.44,0,0,0-.81-.72,2.24,2.24,0,0,0-1.12-.27,2.19,2.19,0,0,0-1.1.27,2.37,2.37,0,0,0-.79.72,2.94,2.94,0,0,0-.48,1.06,4.73,4.73,0,0,0-.16,1.26Z"/><path class="cls-3" d="M108.64,178.88v2.17h1.68v1.19h-1.68v5.57a1.46,1.46,0,0,0,.09.56.8.8,0,0,0,.22.33.6.6,0,0,0,.31.15,1.5,1.5,0,0,0,.37,0,1.87,1.87,0,0,0,.4,0l.33-.06V190l-.47.1a3.55,3.55,0,0,1-.71.06,2.63,2.63,0,0,1-.8-.12,1.61,1.61,0,0,1-.66-.4,2,2,0,0,1-.45-.74,3.44,3.44,0,0,1-.16-1.14v-5.56h-1.64v-1.19h1.64v-2.17Z"/><path class="cls-3" d="M115.84,190.2a4.44,4.44,0,0,1-1.7-.32,4,4,0,0,1-1.3-.9,4.17,4.17,0,0,1-.83-1.38,5.12,5.12,0,0,1-.29-1.74v-.35a5.48,5.48,0,0,1,.33-2,4.36,4.36,0,0,1,.88-1.45,3.8,3.8,0,0,1,1.25-.9,3.56,3.56,0,0,1,1.47-.31,3.87,3.87,0,0,1,1.66.33,3.28,3.28,0,0,1,1.15.93,4.08,4.08,0,0,1,.67,1.39,7,7,0,0,1,.21,1.76V186h-6.08a4,4,0,0,0,.2,1.17,2.82,2.82,0,0,0,.53.93,2.43,2.43,0,0,0,1.93.87,2.66,2.66,0,0,0,1.38-.33,3.61,3.61,0,0,0,1-.88l.94.73a4.38,4.38,0,0,1-.53.64,3.66,3.66,0,0,1-.71.56,4.1,4.1,0,0,1-.95.39A4.82,4.82,0,0,1,115.84,190.2Zm-.19-8a2.2,2.2,0,0,0-.86.17,2.07,2.07,0,0,0-.69.49,2.54,2.54,0,0,0-.51.81,3.94,3.94,0,0,0-.28,1.1h4.5v-.11a4.48,4.48,0,0,0-.15-.89,2.3,2.3,0,0,0-.37-.79,2,2,0,0,0-.65-.56A2,2,0,0,0,115.65,182.15Z"/><path class="cls-3" d="M122.57,181.05l.05,1.13a3.54,3.54,0,0,1,1.16-1,3.37,3.37,0,0,1,1.53-.34,3.72,3.72,0,0,1,1.19.18,2.23,2.23,0,0,1,.9.57,2.68,2.68,0,0,1,.58,1,4.7,4.7,0,0,1,.2,1.5V190h-1.53v-5.91a2.9,2.9,0,0,0-.12-.89,1.45,1.45,0,0,0-.34-.6,1.26,1.26,0,0,0-.57-.34,2.55,2.55,0,0,0-.77-.11,2.17,2.17,0,0,0-1.31.4,2.66,2.66,0,0,0-.88,1V190h-1.54v-9Z"/></svg>