<svg id="Layer_1" data-name="Layer 1" xmlns="http://www.w3.org/2000/svg" viewBox="0 0 210.83 210.83"><defs><style>.cls-1{fill:#575c71;}.cls-2{font-size:17px;fill:#15172d;font-family:Roboto-Regular, Roboto;}.cls-3{letter-spacing:-0.02em;}.cls-4{fill:#191c33;}</style></defs><title>Workum</title><rect class="cls-1" width="210.83" height="210.83" rx="15.54" ry="15.54"/><text class="cls-2" transform="translate(73.83 190.04)"><tspan class="cls-3">W</tspan><tspan x="14.83" y="0">orkum</tspan></text><path class="cls-4" d="M127.49,152.23l0-48.2H125.2l0-43.94h0V57.81h0v-.9h.14v-.23h-1v.23h-8.13L113,54.52l-1.79-1.31h-.71V46.05h.56l1.39-2.21s1.59-8.59-4.73-10.08a7.49,7.49,0,0,1-2-4.27s1.33-.48.13-1.56l-.22-3.16s1.17-.5-.1-1.31L105.42,16l-.16,7.47c-1.27.81-.1,1.31-.1,1.31l-.22,3.16c-1.2,1.08.13,1.56.13,1.56a7.49,7.49,0,0,1-2,4.27c-6.32,1.49-4.73,10.08-4.73,10.08l1.39,2.21h.51v7.16h-.71l-1.79,1.31-3.26,2.39H86.61v-.23h-1v.23h.14v.14h0v3h.84V57.81h.68v2.28H85.77V104H83.34v48.2H98.67v-21c0-2.27,3.32-4.12,7.43-4.12s7.43,1.85,7.43,4.12v21ZM106,53.21v-7.1h1.1v7.11Zm-1.16,0h-1.08V46.1h1.08Zm4.55,0h-1.19V46.08h1.19Zm-7.92-7.14h1.2v7.13h-1.2Zm17.89,54.75h-5.4V84.32a2.71,2.71,0,1,1,5.4,0Zm2.36-43h.75v2.28h-.75Zm-1.3,2.11-.75-.55V57.81h.75Zm4,.17h-.62V57.81h.62Zm-6-2.28v.61l-.84-.61Zm-27.69,0h.75V59.2l-.75.55Zm2,0h.61l-.61.44Zm-4.1,0h.75v2.28h-.75Zm9.68,43h-5.4V84.32a2.71,2.71,0,1,1,5.4,0Zm10.53,0h-5.4V84.32a2.71,2.71,0,1,1,5.4,0Z"/></svg>