<svg id="Layer_1" data-name="Layer 1" xmlns="http://www.w3.org/2000/svg" viewBox="0 0 210.83 210.83"><defs><style>.cls-1{fill:#575c71;}.cls-2{fill:#15172d;}.cls-3{fill:#191c33;}</style></defs><title>workum_1</title><rect class="cls-1" width="210.83" height="210.83" rx="15.54" ry="15.54"/><path class="cls-2" d="M77.84,186.23l.24,1.59.34-1.44L80.81,178h1.34l2.33,8.43.34,1.46.25-1.62L87,178h1.6L85.62,190H84.17l-2.49-8.81-.19-.92-.19.92L78.72,190H77.26L74.34,178h1.59Z"/><path class="cls-2" d="M89.42,185.46a5.54,5.54,0,0,1,.28-1.81,4.21,4.21,0,0,1,.82-1.45,3.6,3.6,0,0,1,1.28-1,4.3,4.3,0,0,1,3.4,0,3.77,3.77,0,0,1,1.3,1,4.36,4.36,0,0,1,.81,1.45,5.54,5.54,0,0,1,.28,1.81v.18a5.6,5.6,0,0,1-.28,1.82,4.41,4.41,0,0,1-.81,1.44,3.82,3.82,0,0,1-1.29,1,4.42,4.42,0,0,1-3.4,0,3.64,3.64,0,0,1-1.29-1,4.43,4.43,0,0,1-.82-1.44,5.6,5.6,0,0,1-.28-1.82Zm1.54.18a4.7,4.7,0,0,0,.16,1.27,3.15,3.15,0,0,0,.47,1.05,2.39,2.39,0,0,0,.8.72,2.44,2.44,0,0,0,2.23,0,2.3,2.3,0,0,0,.8-.72,3.15,3.15,0,0,0,.47-1.05,4.7,4.7,0,0,0,.17-1.27v-.18a4.73,4.73,0,0,0-.17-1.26,2.94,2.94,0,0,0-.48-1.06,2.4,2.4,0,0,0-.8-.72,2.24,2.24,0,0,0-1.12-.27,2.16,2.16,0,0,0-1.1.27,2.5,2.5,0,0,0-.8.72,3.11,3.11,0,0,0-.47,1.06,4.73,4.73,0,0,0-.16,1.26Z"/><path class="cls-2" d="M103.86,182.43l-.37,0-.39,0a2.27,2.27,0,0,0-1.3.35,2.19,2.19,0,0,0-.75.94V190H99.52v-9H101l0,1a2.71,2.71,0,0,1,.87-.88,2.42,2.42,0,0,1,1.27-.32l.38,0,.3.08Z"/><path class="cls-2" d="M107.78,185.88l-1,1V190h-1.53V177.29h1.53V185l.83-1,2.79-3h1.87l-3.49,3.76,3.9,5.23h-1.8Z"/><path class="cls-2" d="M119.43,189.15a2.8,2.8,0,0,1-1.07.77,3.85,3.85,0,0,1-1.56.28,3.51,3.51,0,0,1-1.2-.19,2.28,2.28,0,0,1-.93-.59,2.74,2.74,0,0,1-.61-1,5,5,0,0,1-.21-1.53v-5.81h1.54v5.82a3.08,3.08,0,0,0,.14,1,1.55,1.55,0,0,0,.37.62,1.28,1.28,0,0,0,.53.32,2.16,2.16,0,0,0,.62.09,2.75,2.75,0,0,0,1.5-.36,2.14,2.14,0,0,0,.84-.95v-6.54h1.54v9h-1.47Z"/><path class="cls-2" d="M124.7,181.05l0,1a3.3,3.3,0,0,1,1.13-.86,3.68,3.68,0,0,1,1.54-.3,3.32,3.32,0,0,1,1.54.34,2.28,2.28,0,0,1,1,1.1,3.36,3.36,0,0,1,1.17-1,3.39,3.39,0,0,1,1.7-.4,4.1,4.1,0,0,1,1.27.18,2.32,2.32,0,0,1,.95.59,2.63,2.63,0,0,1,.58,1,4.56,4.56,0,0,1,.2,1.46V190h-1.53v-5.91a2.78,2.78,0,0,0-.14-.94,1.42,1.42,0,0,0-.39-.6,1.38,1.38,0,0,0-.6-.31,3.24,3.24,0,0,0-.79-.09,2.17,2.17,0,0,0-.84.15,2.05,2.05,0,0,0-.63.4,1.94,1.94,0,0,0-.41.6,2.64,2.64,0,0,0-.2.73v6h-1.54v-5.91a2.6,2.6,0,0,0-.14-.89,1.51,1.51,0,0,0-.38-.6,1.58,1.58,0,0,0-.61-.34,2.69,2.69,0,0,0-.79-.11,2.2,2.2,0,0,0-1.32.36,2.28,2.28,0,0,0-.75.93V190h-1.53v-9Z"/><path class="cls-3" d="M127.49,152.23l0-48.2H125.2l0-43.94h0V57.81h0v-.9h.14v-.23h-1v.23h-8.13L113,54.52l-1.79-1.31h-.71V46.05h.56l1.39-2.21s1.59-8.59-4.73-10.08a7.49,7.49,0,0,1-2-4.27s1.33-.48.13-1.56l-.22-3.16s1.17-.5-.1-1.31L105.42,16l-.16,7.47c-1.27.81-.1,1.31-.1,1.31l-.22,3.16c-1.2,1.08.13,1.56.13,1.56a7.49,7.49,0,0,1-2,4.27c-6.32,1.49-4.73,10.08-4.73,10.08l1.39,2.21h.51v7.16h-.71l-1.79,1.31-3.26,2.39H86.61v-.23h-1v.23h.14v.14h0v3h.84V57.81h.68v2.28H85.77V104H83.34v48.2H98.67v-21c0-2.27,3.32-4.12,7.43-4.12s7.43,1.85,7.43,4.12v21ZM106,53.21v-7.1h1.1v7.11Zm-1.16,0h-1.08V46.1h1.08Zm4.55,0h-1.19V46.08h1.19Zm-7.92-7.14h1.2v7.13h-1.2Zm17.89,54.75h-5.4V84.32a2.71,2.71,0,1,1,5.4,0Zm2.36-43h.75v2.28h-.75Zm-1.3,2.11-.75-.55V57.81h.75Zm4,.17h-.62V57.81h.62Zm-6-2.28v.61l-.84-.61Zm-27.69,0h.75V59.2l-.75.55Zm2,0h.61l-.61.44Zm-4.1,0h.75v2.28h-.75Zm9.68,43h-5.4V84.32a2.71,2.71,0,1,1,5.4,0Zm10.53,0h-5.4V84.32a2.71,2.71,0,1,1,5.4,0Z"/></svg>