<svg id="Laag_1" data-name="Laag 1" xmlns="http://www.w3.org/2000/svg" viewBox="0 0 217.76 229.86"><defs><style>.cls-1{fill:#70b1fb;}</style></defs><title>maps-active</title><path class="cls-1" d="M24.2,24.2A24.19,24.19,0,0,0,0,48.39V172.88l99-99A84.31,84.31,0,0,1,96.78,54.8a66.61,66.61,0,0,1,7.14-30.6H24.2M181.47,229.86a24.19,24.19,0,0,0,24.19-24.2V119.28c-9.19,13.8-20.44,28.43-32.78,44l-9.56,12.1-9.44-12.1c-16.09-20-30.24-38.47-40.28-55.53a154.28,154.28,0,0,1-10.41-20.93L54,136.1l93.75,93.76h33.76M0,205.66a24.19,24.19,0,0,0,24.2,24.2H130.54L45.37,144.69,0,190.06v15.6m163.32-48.39c31.58-40.77,54.44-71.38,54.44-102S193.56,0,163.32,0s-54.44,24.8-54.44,55.29,22.62,61.21,54.44,102m24.2-102.83a24.2,24.2,0,1,1-24.2-24.2A24.21,24.21,0,0,1,187.52,54.44Z"/></svg>