<svg id="Laag_1" data-name="Laag 1" xmlns="http://www.w3.org/2000/svg" viewBox="0 0 213 223.92"><defs><style>.cls-1{fill:#636b86;}</style></defs><title>stempel</title><g id="_4azaxI.tif" data-name="4azaxI.tif"><path class="cls-1" d="M0,202.08v-43.7c17-1.66,33.41-6.07,50.84-5.7,40.56.86,58.08-25.18,35.82-58.62C67.31,65,54.62,0,105.13,0c47.79,0,43.77,67.73,20,93.93-2.33,2.58-3.47,6.29-5,9.57-12.8,28.46-.74,48.64,30.38,49.31,21.49.46,43.12-1.31,62.4,11v38.23Z"/><path class="cls-1" d="M10.92,223.92c1.86-11,10.24-10.86,18.56-10.86h154c8.33,0,16.7-.14,18.57,10.86Z"/></g></svg>