<svg id="Layer_1" data-name="Layer 1" xmlns="http://www.w3.org/2000/svg" viewBox="0 0 210.75 210.83"><defs><style>.cls-1{fill:#575c71;}.cls-2{fill:#15172d;}.cls-3{fill:#191c33;}</style></defs><title>harlingen_1</title><rect class="cls-1" x="-0.04" width="210.83" height="210.83" rx="15.54" ry="15.54"/><path class="cls-2" d="M79.73,190h-1.6v-5.59H72V190H70.44V178H72v5.2h6.1V178h1.6Z"/><path class="cls-2" d="M87.86,190a2.08,2.08,0,0,1-.13-.42c0-.17-.06-.35-.08-.53a5.19,5.19,0,0,1-.49.43,3.4,3.4,0,0,1-.59.35,2.56,2.56,0,0,1-.69.24,3.35,3.35,0,0,1-.79.09,3.52,3.52,0,0,1-1.25-.21,2.72,2.72,0,0,1-1-.56,2.39,2.39,0,0,1-.61-.84,2.46,2.46,0,0,1-.22-1,2.74,2.74,0,0,1,.28-1.28,2.47,2.47,0,0,1,.81-.92,3.86,3.86,0,0,1,1.28-.57,6.53,6.53,0,0,1,1.66-.19h1.53v-.71a1.74,1.74,0,0,0-.48-1.28,1.92,1.92,0,0,0-1.42-.48,2.47,2.47,0,0,0-.79.12,2.06,2.06,0,0,0-.61.31,1.38,1.38,0,0,0-.39.45,1.09,1.09,0,0,0-.14.54H82.24a2,2,0,0,1,.26-.95,2.71,2.71,0,0,1,.71-.85,3.94,3.94,0,0,1,1.13-.62,4.53,4.53,0,0,1,1.47-.23,4.79,4.79,0,0,1,1.35.18,3,3,0,0,1,1.06.57,2.64,2.64,0,0,1,.69.94,3.38,3.38,0,0,1,.25,1.32v4.18a5.48,5.48,0,0,0,.08,1,3.69,3.69,0,0,0,.23.86V190Zm-2.55-1.18a2.45,2.45,0,0,0,.78-.11,3.16,3.16,0,0,0,.67-.3,2.77,2.77,0,0,0,.52-.43,2.21,2.21,0,0,0,.34-.5v-1.84H86.34a4.05,4.05,0,0,0-2,.41,1.33,1.33,0,0,0-.71,1.24,1.74,1.74,0,0,0,.1.61,1.47,1.47,0,0,0,.33.48,1.61,1.61,0,0,0,.54.32A2.09,2.09,0,0,0,85.31,188.86Z"/><path class="cls-2" d="M95.91,182.43l-.37,0-.39,0a2.27,2.27,0,0,0-1.3.35,2.19,2.19,0,0,0-.75.94V190H91.57v-9h1.49l0,1a2.84,2.84,0,0,1,.88-.88,2.39,2.39,0,0,1,1.27-.32,1.89,1.89,0,0,1,.38,0,1.68,1.68,0,0,1,.3.07Z"/><path class="cls-2" d="M99,190H97.45V177.29H99Z"/><path class="cls-2" d="M101.45,178.67a.92.92,0,0,1,.23-.63.87.87,0,0,1,.68-.26.9.9,0,0,1,.68.26.92.92,0,0,1,.23.63.88.88,0,0,1-.23.62.89.89,0,0,1-.68.25.86.86,0,0,1-.68-.25A.88.88,0,0,1,101.45,178.67ZM103.11,190h-1.53v-9h1.53Z"/><path class="cls-2" d="M107,181.05l0,1.13a3.54,3.54,0,0,1,1.16-1,3.37,3.37,0,0,1,1.53-.34,3.72,3.72,0,0,1,1.19.18,2.23,2.23,0,0,1,.9.57,2.68,2.68,0,0,1,.58,1,5,5,0,0,1,.2,1.5V190H111.1v-5.91a2.9,2.9,0,0,0-.12-.89,1.45,1.45,0,0,0-.34-.6,1.32,1.32,0,0,0-.57-.34,2.55,2.55,0,0,0-.77-.11,2.22,2.22,0,0,0-1.32.4,2.67,2.67,0,0,0-.88,1V190h-1.53v-9Z"/><path class="cls-2" d="M114.58,185.47a6.41,6.41,0,0,1,.25-1.87,4.55,4.55,0,0,1,.7-1.45,3.17,3.17,0,0,1,2.6-1.26,3.4,3.4,0,0,1,1.48.3,3,3,0,0,1,1.08.86l.08-1h1.4v8.79a4.18,4.18,0,0,1-.28,1.59,3.29,3.29,0,0,1-.78,1.17,3.42,3.42,0,0,1-1.21.72,4.44,4.44,0,0,1-1.54.25,4.08,4.08,0,0,1-.8-.08,5.14,5.14,0,0,1-.91-.25,4,4,0,0,1-.89-.48A3,3,0,0,1,115,192l.8-.92a3.53,3.53,0,0,0,.58.58,3.25,3.25,0,0,0,.6.37,2.94,2.94,0,0,0,.61.21,3.34,3.34,0,0,0,.62.06,2.76,2.76,0,0,0,1-.16,1.79,1.79,0,0,0,.75-.46,1.94,1.94,0,0,0,.48-.75,2.92,2.92,0,0,0,.17-1v-.78a3.2,3.2,0,0,1-1.07.79,3.61,3.61,0,0,1-1.45.27,3.08,3.08,0,0,1-1.46-.34,3.35,3.35,0,0,1-1.11-1,4.61,4.61,0,0,1-.71-1.44,6.63,6.63,0,0,1-.25-1.83Zm1.55.17a5.76,5.76,0,0,0,.13,1.27,3.33,3.33,0,0,0,.43,1,2,2,0,0,0,.73.7,2.15,2.15,0,0,0,1.07.26,2.82,2.82,0,0,0,.74-.1,2.29,2.29,0,0,0,.59-.28,2.22,2.22,0,0,0,.46-.41,3.24,3.24,0,0,0,.35-.53v-4.1a3.54,3.54,0,0,0-.35-.51,2.22,2.22,0,0,0-.46-.41,2,2,0,0,0-.59-.27,2.28,2.28,0,0,0-.72-.1,2.16,2.16,0,0,0-1.08.26,2.28,2.28,0,0,0-.74.71,3.61,3.61,0,0,0-.43,1,5.76,5.76,0,0,0-.13,1.27Z"/><path class="cls-2" d="M128.21,190.2a4.35,4.35,0,0,1-1.69-.32,3.88,3.88,0,0,1-1.3-.9,4,4,0,0,1-.83-1.38,4.89,4.89,0,0,1-.29-1.74v-.35a5.71,5.71,0,0,1,.32-2,4.36,4.36,0,0,1,.88-1.45,3.8,3.8,0,0,1,1.25-.9,3.56,3.56,0,0,1,1.47-.31,3.84,3.84,0,0,1,1.66.33,3.19,3.19,0,0,1,1.15.93,3.91,3.91,0,0,1,.67,1.39,7,7,0,0,1,.22,1.76V186h-6.09a4,4,0,0,0,.2,1.17,2.84,2.84,0,0,0,.54.93,2.5,2.5,0,0,0,.83.64,2.57,2.57,0,0,0,1.1.23,2.65,2.65,0,0,0,1.37-.33,3.45,3.45,0,0,0,1-.88l.94.73a4.29,4.29,0,0,1-.52.64,4.07,4.07,0,0,1-.72.56,4.21,4.21,0,0,1-.94.39A5,5,0,0,1,128.21,190.2Zm-.19-8a2.15,2.15,0,0,0-.85.17,2.11,2.11,0,0,0-.7.49,2.73,2.73,0,0,0-.51.81,3.94,3.94,0,0,0-.28,1.1h4.5v-.11a3.85,3.85,0,0,0-.15-.89,2.39,2.39,0,0,0-.37-.79,1.86,1.86,0,0,0-.65-.56A2,2,0,0,0,128,182.15Z"/><path class="cls-2" d="M134.94,181.05l.05,1.13a3.58,3.58,0,0,1,1.17-1,3.3,3.3,0,0,1,1.52-.34,3.67,3.67,0,0,1,1.19.18,2.2,2.2,0,0,1,.91.57,2.54,2.54,0,0,1,.57,1,4.68,4.68,0,0,1,.21,1.5V190H139v-5.91a2.9,2.9,0,0,0-.12-.89,1.35,1.35,0,0,0-.34-.6,1.28,1.28,0,0,0-.56-.34,2.67,2.67,0,0,0-.78-.11,2.17,2.17,0,0,0-1.31.4,2.59,2.59,0,0,0-.88,1V190h-1.54v-9Z"/><path class="cls-3" d="M121.86,132l-1-2.9L119.67,74.7l1-1.17s.2-.29-.17-.35l0-.22a1.34,1.34,0,0,0,.46-.8L120.87,59s.53-1.95,0-2.91l0-.89.4-.19v-.34l.41-2.5-1.8-2V50h.35l0-1.38-.61,0L119.44,47s2.79-2.22-.64-5.88l-.07-.19.41-1.28-1.69,0,.62-1.89h0a1.79,1.79,0,0,0,0-.61c-.12-1.12-1.24-2.2-3.3-3.19a8.91,8.91,0,0,0-1.37-.48l0-.66v-.24s.75,0,.21-2.06a13.24,13.24,0,0,0-5.73-8.79l-.1-.67.19-.09v-.58l-.49-.5a2.06,2.06,0,0,0-1-1.38h0a2.26,2.26,0,0,0-.52-.22l0-.39h-.11l-.39-7.14-.08-.48-.08.48-.38,7.14h-.12v.39a2.56,2.56,0,0,0-.53.22h0a2,2,0,0,0-1,1.38l-.49.5v.58l.19.09-.1.67a13.28,13.28,0,0,0-5.74,8.79c-.53,2.06.22,2.06.22,2.06l0,1.44c-.41.14-.82.3-1.2.47a9.88,9.88,0,0,0-2.11,1.22l-.14,0v.08a3,3,0,0,0-1.25,2,2.12,2.12,0,0,0,.08.8h0l.26,1-1.4,0L92,40.9l-.08.19C88.52,44.75,91.3,47,91.3,47l0,1.63-.61,0,0,1.38h.34v.12l-1.81,2,.42,2.5V55l.4.19,0,.89c-.55,1,0,2.91,0,2.91l-.18,13.19a1.38,1.38,0,0,0,.47.8l0,.22c-.37.06-.18.35-.18.35l1,1.17-1.19,54.43-1,2.9-.31,18.11,16.79.41v-.07h0v.07l16.8-.41ZM101.27,35.72,101.05,34c.37-.07.75-.12,1.12-.17v1.87Zm-4.73,3.76-.42.07H95.9l-.82-3.48c.22-.14.45-.28.71-.42ZM99,34.4l1-.25.2,1.67-.93.11Zm4.65,1.18-.1-1.94c.44,0,.87-.07,1.3-.08l.08,2Zm3.32,0-1,0-.09-2H107ZM104,58.1a1.45,1.45,0,1,1,2.88,0v9.22H104Zm4.63-24.49,1.2.11-.18,2-1-.07Zm2.26.24.87.14-.24,1.94-.81-.09Zm4.15,1.27a6.62,6.62,0,0,1,.59.37l-.79,4.06h-.25l-.4-.07ZM117,37.18a2,2,0,0,1-.92,1.66l.5-2.55A1.68,1.68,0,0,1,117,37.18Zm-2.91-2.57-.91,4.69-.14,0,.46-2.53-.19-.69.05-1.7A6.77,6.77,0,0,1,114.1,34.61Zm-.85-1.9-.54-.13Zm-.77-.19v.68a27.16,27.16,0,0,0-3.8-.49v-.92A32.42,32.42,0,0,1,112.48,32.52Zm-4.88-.85v1a35.66,35.66,0,0,0-4.36.11V31.58A27.29,27.29,0,0,1,107.6,31.67Zm-9.36.85a16.11,16.11,0,0,1,3.93-.85v1.22a24.48,24.48,0,0,0-3.9.78Zm-.82,3.54,0,.14-.15.55.46,2.53-.12,0-.8-4.13.61-.25Zm.66,0-.35.06Zm-4.35,1.73a1.83,1.83,0,0,1,.45-1l.64,2.71h-.13A2.25,2.25,0,0,1,93.73,37.82Zm5.88,29.5H96.72V58.1a1.46,1.46,0,1,1,2.89,0Zm9.6,80.78h-7.67V132h7.67Zm5.45-80.78h-2.88V58.1a1.45,1.45,0,1,1,2.88,0Z"/></svg>