<svg id="Layer_1" data-name="Layer 1" xmlns="http://www.w3.org/2000/svg" viewBox="0 0 210.75 210.83"><defs><style>.cls-1{fill:#575c71;}.cls-2{font-size:17px;fill:#15172d;font-family:Roboto-Regular, Roboto;}.cls-3{fill:#191c33;}</style></defs><title>Harlingen</title><rect class="cls-1" x="-0.04" width="210.83" height="210.83" rx="15.54" ry="15.54"/><text class="cls-2" transform="translate(69.04 190.04)">Harlingen</text><path class="cls-3" d="M121.86,132l-1-2.9L119.67,74.7l1-1.17s.2-.29-.17-.35l0-.22a1.34,1.34,0,0,0,.46-.8L120.87,59s.53-1.95,0-2.91l0-.89.4-.19v-.34l.41-2.5-1.8-2V50h.35l0-1.38-.61,0L119.44,47s2.79-2.22-.64-5.88l-.07-.19.41-1.28-1.69,0,.62-1.89h0a1.79,1.79,0,0,0,0-.61c-.12-1.12-1.24-2.2-3.3-3.19a8.91,8.91,0,0,0-1.37-.48l0-.66v-.24s.75,0,.21-2.06a13.24,13.24,0,0,0-5.73-8.79l-.1-.67.19-.09v-.58l-.49-.5a2.06,2.06,0,0,0-1-1.38h0a2.26,2.26,0,0,0-.52-.22l0-.39h-.11l-.39-7.14-.08-.48-.08.48-.38,7.14h-.12v.39a2.56,2.56,0,0,0-.53.22h0a2,2,0,0,0-1,1.38l-.49.5v.58l.19.09-.1.67a13.28,13.28,0,0,0-5.74,8.79c-.53,2.06.22,2.06.22,2.06l0,1.44c-.41.14-.82.3-1.2.47a9.88,9.88,0,0,0-2.11,1.22l-.14,0v.08a3,3,0,0,0-1.25,2,2.12,2.12,0,0,0,.08.8h0l.26,1-1.4,0L92,40.9l-.08.19C88.52,44.75,91.3,47,91.3,47l0,1.63-.61,0,0,1.38h.34v.12l-1.81,2,.42,2.5V55l.4.19,0,.89c-.55,1,0,2.91,0,2.91l-.18,13.19a1.38,1.38,0,0,0,.47.8l0,.22c-.37.06-.18.35-.18.35l1,1.17-1.19,54.43-1,2.9-.31,18.11,16.79.41v-.07h0v.07l16.8-.41ZM101.27,35.72,101.05,34c.37-.07.75-.12,1.12-.17v1.87Zm-4.73,3.76-.42.07H95.9l-.82-3.48c.22-.14.45-.28.71-.42ZM99,34.4l1-.25.2,1.67-.93.11Zm4.65,1.18-.1-1.94c.44,0,.87-.07,1.3-.08l.08,2Zm3.32,0-1,0-.09-2H107ZM104,58.1a1.45,1.45,0,1,1,2.88,0v9.22H104Zm4.63-24.49,1.2.11-.18,2-1-.07Zm2.26.24.87.14-.24,1.94-.81-.09Zm4.15,1.27a6.62,6.62,0,0,1,.59.37l-.79,4.06h-.25l-.4-.07ZM117,37.18a2,2,0,0,1-.92,1.66l.5-2.55A1.68,1.68,0,0,1,117,37.18Zm-2.91-2.57-.91,4.69-.14,0,.46-2.53-.19-.69.05-1.7A6.77,6.77,0,0,1,114.1,34.61Zm-.85-1.9-.54-.13Zm-.77-.19v.68a27.16,27.16,0,0,0-3.8-.49v-.92A32.42,32.42,0,0,1,112.48,32.52Zm-4.88-.85v1a35.66,35.66,0,0,0-4.36.11V31.58A27.29,27.29,0,0,1,107.6,31.67Zm-9.36.85a16.11,16.11,0,0,1,3.93-.85v1.22a24.48,24.48,0,0,0-3.9.78Zm-.82,3.54,0,.14-.15.55.46,2.53-.12,0-.8-4.13.61-.25Zm.66,0-.35.06Zm-4.35,1.73a1.83,1.83,0,0,1,.45-1l.64,2.71h-.13A2.25,2.25,0,0,1,93.73,37.82Zm5.88,29.5H96.72V58.1a1.46,1.46,0,1,1,2.89,0Zm9.6,80.78h-7.67V132h7.67Zm5.45-80.78h-2.88V58.1a1.45,1.45,0,1,1,2.88,0Z"/></svg>