<svg id="Layer_1" data-name="Layer 1" xmlns="http://www.w3.org/2000/svg" viewBox="0 0 210.83 210.83"><defs><style>.cls-1{fill:#575c71;}.cls-2{fill:#191c33;}.cls-3{fill:#15172d;}</style></defs><title>ijlst_1</title><rect class="cls-1" width="210.83" height="210.83" rx="15.54" ry="15.54"/><path class="cls-2" d="M131.23,72a36.92,36.92,0,0,0-5.38-9l-2.13,1.69Z"/><path class="cls-2" d="M103.8,62.06a26.86,26.86,0,0,0-3.9,6.47l5.85-4.66Z"/><path class="cls-2" d="M115.09,55.44l.61-.63-.63-.3-.62.16Z"/><path class="cls-2" d="M91.45,118.64h3v3.15l4.06,4.26,24.34-20,1-.79.9.87,12.87,12.53h4.88a78.51,78.51,0,0,1-9.16-21.56l-19-23.86-16,16.44c-1.68,8.42-4.48,18.79-9,26.75Z"/><polygon class="cls-2" points="123.73 107.11 98.39 127.95 78.55 107.11 60.18 131.82 62.67 131.82 62.47 154.03 146.75 154.03 146.89 131.82 149.12 131.82 123.73 107.11"/><polygon class="cls-2" points="164.65 30.5 153.19 18.14 115.02 57.29 79.63 15.04 67.27 26.5 107.66 63.94 65.09 97.81 75.43 108.96 77.43 106.27 78.42 104.95 79.56 106.14 80.02 106.62 114.41 71.35 148.01 113.58 160.37 102.11 121.85 64.56 164.65 30.5"/><path class="cls-3" d="M92.3,192H90.71V180H92.3Z"/><path class="cls-3" d="M100.28,180h1.6v8.56a4.18,4.18,0,0,1-.28,1.59,3.19,3.19,0,0,1-.79,1.16,3.46,3.46,0,0,1-1.21.7,4.72,4.72,0,0,1-1.53.24,5.31,5.31,0,0,1-1.54-.21,3.16,3.16,0,0,1-1.2-.65,2.92,2.92,0,0,1-.79-1.09,3.9,3.9,0,0,1-.28-1.55h1.59a2.71,2.71,0,0,0,.16,1,2.09,2.09,0,0,0,.46.68,1.94,1.94,0,0,0,.7.4,2.84,2.84,0,0,0,.9.13,2.37,2.37,0,0,0,.88-.16,1.92,1.92,0,0,0,.7-.45,2.23,2.23,0,0,0,.47-.74,3,3,0,0,0,.16-1Z"/><path class="cls-3" d="M106,192h-1.54V179.29H106Z"/><path class="cls-3" d="M113.71,189.65a1.49,1.49,0,0,0-.07-.47,1,1,0,0,0-.3-.41,2.07,2.07,0,0,0-.62-.36,7.19,7.19,0,0,0-1.07-.31,10,10,0,0,1-1.35-.37,4.42,4.42,0,0,1-1-.52,2.09,2.09,0,0,1-.64-.72,2,2,0,0,1-.22-1,2.37,2.37,0,0,1,.23-1,2.57,2.57,0,0,1,.67-.84,3.3,3.3,0,0,1,1.05-.57,4.19,4.19,0,0,1,1.37-.21,4.35,4.35,0,0,1,1.44.22,3.32,3.32,0,0,1,1.08.6,2.57,2.57,0,0,1,.9,2h-1.54a1.4,1.4,0,0,0-.12-.55,1.75,1.75,0,0,0-.37-.5,2,2,0,0,0-.59-.35,2.2,2.2,0,0,0-.8-.14,2.76,2.76,0,0,0-.82.11,1.68,1.68,0,0,0-.55.3,1.15,1.15,0,0,0-.32.42,1.38,1.38,0,0,0-.1.49,1.29,1.29,0,0,0,.08.45,1,1,0,0,0,.32.36,2.56,2.56,0,0,0,.64.3c.26.09.61.18,1,.28a9.28,9.28,0,0,1,1.42.43,3.7,3.7,0,0,1,1,.56,2.14,2.14,0,0,1,.59.73,2.4,2.4,0,0,1-.75,2.88,3.29,3.29,0,0,1-1.09.55,4.88,4.88,0,0,1-1.42.19,4.48,4.48,0,0,1-1.58-.25,3.31,3.31,0,0,1-1.15-.66,2.69,2.69,0,0,1-.71-.94,2.57,2.57,0,0,1-.24-1.08h1.53a1.59,1.59,0,0,0,.74,1.31,1.85,1.85,0,0,0,.68.28,3,3,0,0,0,.73.09,3.43,3.43,0,0,0,.83-.1,2.08,2.08,0,0,0,.6-.28,1.21,1.21,0,0,0,.37-.41A1.07,1.07,0,0,0,113.71,189.65Z"/><path class="cls-3" d="M119.33,180.88v2.17H121v1.19h-1.68v5.57a1.71,1.71,0,0,0,.08.56.81.81,0,0,0,.23.33.6.6,0,0,0,.31.15,1.5,1.5,0,0,0,.37,0,1.87,1.87,0,0,0,.4,0l.33-.06V192l-.47.1a3.62,3.62,0,0,1-.71.06,2.63,2.63,0,0,1-.8-.12,1.61,1.61,0,0,1-.66-.4,2,2,0,0,1-.45-.74,3.44,3.44,0,0,1-.16-1.14v-5.56h-1.64v-1.19h1.64v-2.17Z"/></svg>