<svg id="Layer_1" data-name="Layer 1" xmlns="http://www.w3.org/2000/svg" viewBox="0 0 210.83 210.83"><defs><style>.cls-1{fill:#575c71;}.cls-2{fill:#191c33;}.cls-3{font-size:17px;fill:#15172d;font-family:Roboto-Regular, Roboto;}</style></defs><title>IJlst</title><rect class="cls-1" width="210.83" height="210.83" rx="15.54" ry="15.54"/><path class="cls-2" d="M131.23,72a36.92,36.92,0,0,0-5.38-9l-2.13,1.69Z"/><path class="cls-2" d="M103.8,62.06a26.86,26.86,0,0,0-3.9,6.47l5.85-4.66Z"/><path class="cls-2" d="M115.09,55.44l.61-.63-.63-.3-.62.16Z"/><path class="cls-2" d="M91.45,118.64h3v3.15l4.06,4.26,24.34-20,1-.79.9.87,12.87,12.53h4.88a78.51,78.51,0,0,1-9.16-21.56l-19-23.86-16,16.44c-1.68,8.42-4.48,18.79-9,26.75Z"/><polygon class="cls-2" points="123.73 107.11 98.39 127.95 78.55 107.11 60.18 131.82 62.67 131.82 62.47 154.03 146.75 154.03 146.89 131.82 149.12 131.82 123.73 107.11"/><polygon class="cls-2" points="164.65 30.5 153.19 18.14 115.02 57.29 79.63 15.04 67.27 26.5 107.66 63.94 65.09 97.81 75.43 108.96 77.43 106.27 78.42 104.95 79.56 106.14 80.02 106.62 114.41 71.35 148.01 113.58 160.37 102.11 121.85 64.56 164.65 30.5"/><text class="cls-3" transform="translate(89.19 192.04)">IJlst</text></svg>