<svg id="Layer_1" data-name="Layer 1" xmlns="http://www.w3.org/2000/svg" viewBox="0 0 210.83 210.83"><defs><style>.cls-1{fill:#575c71;}.cls-2{fill:#15172d;}.cls-3{fill:#191c33;}</style></defs><title>dokkum_1</title><rect class="cls-1" width="210.83" height="210.83" rx="15.54" ry="15.54"/><path class="cls-2" d="M75.64,190V178h3.42a5.63,5.63,0,0,1,2.17.4,4.75,4.75,0,0,1,1.68,1.13,5.26,5.26,0,0,1,1.09,1.8,6.75,6.75,0,0,1,.39,2.36v.72a6.75,6.75,0,0,1-.39,2.36,4.92,4.92,0,0,1-1.1,1.79,4.65,4.65,0,0,1-1.72,1.13,6.23,6.23,0,0,1-2.26.4Zm1.6-10.78v9.47h1.68a4.25,4.25,0,0,0,1.69-.31,3.3,3.3,0,0,0,1.22-.88,3.73,3.73,0,0,0,.73-1.38,6,6,0,0,0,.25-1.8v-.74a6.18,6.18,0,0,0-.25-1.85,3.9,3.9,0,0,0-.73-1.37,3.17,3.17,0,0,0-1.18-.85,4.17,4.17,0,0,0-1.59-.29Z"/><path class="cls-2" d="M86.15,185.46a5.54,5.54,0,0,1,.28-1.81,4.21,4.21,0,0,1,.82-1.45,3.6,3.6,0,0,1,1.28-1,3.87,3.87,0,0,1,1.69-.35,4,4,0,0,1,1.72.35,3.82,3.82,0,0,1,1.29,1,4.36,4.36,0,0,1,.81,1.45,5.54,5.54,0,0,1,.28,1.81v.18a5.6,5.6,0,0,1-.28,1.82,4.31,4.31,0,0,1-.81,1.44,3.82,3.82,0,0,1-1.29,1,4.42,4.42,0,0,1-3.4,0,3.64,3.64,0,0,1-1.29-1,4.33,4.33,0,0,1-.82-1.44,5.6,5.6,0,0,1-.28-1.82Zm1.54.18a4.7,4.7,0,0,0,.16,1.27,3.15,3.15,0,0,0,.47,1.05,2.29,2.29,0,0,0,.8.72,2.44,2.44,0,0,0,2.23,0,2.21,2.21,0,0,0,.8-.72,3.15,3.15,0,0,0,.47-1.05,4.7,4.7,0,0,0,.17-1.27v-.18a4.73,4.73,0,0,0-.17-1.26,3,3,0,0,0-.48-1.06,2.4,2.4,0,0,0-.8-.72,2.24,2.24,0,0,0-1.12-.27,2.16,2.16,0,0,0-1.1.27,2.5,2.5,0,0,0-.8.72,3.2,3.2,0,0,0-.47,1.06,4.73,4.73,0,0,0-.16,1.26Z"/><path class="cls-2" d="M98.75,185.88l-1,1V190H96.26V177.29h1.53V185l.82-1,2.8-3h1.87l-3.5,3.76,3.91,5.23h-1.81Z"/><path class="cls-2" d="M107.37,185.88l-1,1V190h-1.54V177.29h1.54V185l.82-1,2.8-3h1.86l-3.49,3.76,3.9,5.23h-1.8Z"/><path class="cls-2" d="M119,189.15a2.73,2.73,0,0,1-1.07.77,3.85,3.85,0,0,1-1.56.28,3.51,3.51,0,0,1-1.2-.19,2.36,2.36,0,0,1-.93-.58,2.71,2.71,0,0,1-.6-1,5,5,0,0,1-.21-1.53v-5.81H115v5.82a3.08,3.08,0,0,0,.14,1,1.68,1.68,0,0,0,.38.63,1.24,1.24,0,0,0,.53.31,2.1,2.1,0,0,0,.61.09,2.79,2.79,0,0,0,1.51-.36,2.11,2.11,0,0,0,.83-.95v-6.54h1.54v9h-1.46Z"/><path class="cls-2" d="M124.3,181.05l0,1a3.12,3.12,0,0,1,1.12-.85,3.56,3.56,0,0,1,1.54-.31,3.3,3.3,0,0,1,1.54.34,2.3,2.3,0,0,1,1,1.1,3.33,3.33,0,0,1,1.16-1,3.42,3.42,0,0,1,1.7-.4,4.17,4.17,0,0,1,1.28.18,2.35,2.35,0,0,1,.94.59,2.65,2.65,0,0,1,.59,1,4.86,4.86,0,0,1,.2,1.46V190H133.9v-5.91a2.78,2.78,0,0,0-.14-.94,1.51,1.51,0,0,0-.38-.6,1.41,1.41,0,0,0-.61-.31,3.24,3.24,0,0,0-.79-.09,2.24,2.24,0,0,0-.84.15,1.89,1.89,0,0,0-.62.4,1.81,1.81,0,0,0-.42.6,2.52,2.52,0,0,0-.19.74v6h-1.55v-5.91a2.65,2.65,0,0,0-.13-.89,1.53,1.53,0,0,0-.39-.6,1.49,1.49,0,0,0-.6-.34,2.79,2.79,0,0,0-.79-.11,2.2,2.2,0,0,0-1.32.36,2.13,2.13,0,0,0-.75.93V190h-1.54v-9Z"/><path class="cls-3" d="M137.3,149.6l.08-3.54-.53-.76.07-19-1.94-1.8,0-12,.84-.52-.12-.41-3.1-2.2v-4.24c.16,0,.36-.13.37-.33,0,0,.5.07.51-.32l.1-4.7h.06V86.19l-.05-7.35.22-.35-.37-.37v-.4l-.37-.53-.17-9.73.2-.38-.29-.52v-.39l-.22-.28V59.76l.05-.18,0-1.3h-.09V57l.1-.67h-.1V55.17l-7-21.07-7-21.06-7,21.06-7,21.07V66.89l.63-1.75,4.58-12.66L111,49.11l1.22,3.37,3.48,9.61c.1-.62.5-1.09,1-1.09s1,.62,1,1.39V67.6l3,8.29A11.53,11.53,0,0,0,122.76,77l.86.31v2.63h-1.41v.39h.13l0,1.32,0,2.21v.1l0,.1-.62,3.48v5l.29.63.12.26v.46l.27.57.12.27v.75l.23.69.13.4-.13.4-.14.43.17,16.05.27.65.11.24v.59l.18.31.32.54-.22.58-.14.37.06,12.24,0,23h9.3l5.27.12,0-2.2ZM121.45,70.08h-2V62.39c0-.77.45-1.39,1-1.39s1,.62,1,1.39Z"/><path class="cls-3" d="M121.78,115.24v-.69l-.37-.89-.18-16.5.2-.64-.29-.88V95l-.39-.84v-.47l-.41-.89V87.39l.64-3.58,0-2.21h-.11v-2l.08-1h1.33V78.2a15.67,15.67,0,0,1-2.69-1.45l-4-11.17L111,52.92l-4.58,12.66-4,11.07a16,16,0,0,1-2.84,1.55v.41h2.26v6l-14.07-21v-5.1h2.79V56.63H87.78V54.57H85.94v2.06H83.16v1.93h2.78v4.63L69,88.43v29.16l-7,7.75v0h-.63l.07.48v.73h-.07l0,.8.41,1.29v1.94l-.26.32v.17l-.26.31v.24l-.19.32.13.23-.11,6-.24.32v.25l-.24.22.14.22,0,4.5,0,8.35H81.13V135.23a9.37,9.37,0,0,1,1.53-5.13,11.55,11.55,0,0,1,4-4.06,11.5,11.5,0,0,1,4,4.06,9.37,9.37,0,0,1,1.53,5.13V152H122l0-23.12-.06-12.47.22-.59ZM86.7,102.64a7.38,7.38,0,1,1,7.39-7.38A7.38,7.38,0,0,1,86.7,102.64Z"/></svg>