<svg id="Layer_1" data-name="Layer 1" xmlns="http://www.w3.org/2000/svg" viewBox="0 0 210.83 210.83"><defs><style>.cls-1{fill:#575c71;}.cls-2{font-size:17px;fill:#15172d;font-family:Roboto-Regular, Roboto;}.cls-3{fill:#191c33;}</style></defs><title>Dokkum</title><rect class="cls-1" width="210.83" height="210.83" rx="15.54" ry="15.54"/><text class="cls-2" transform="translate(74.24 190.04)">Dokkum</text><path class="cls-3" d="M137.3,149.6l.08-3.54-.53-.76.07-19-1.94-1.8,0-12,.84-.52-.12-.41-3.1-2.2v-4.24c.16,0,.36-.13.37-.33,0,0,.5.07.51-.32l.1-4.7h.06V86.19l-.05-7.35.22-.35-.37-.37v-.4l-.37-.53-.17-9.73.2-.38-.29-.52v-.39l-.22-.28V59.76l.05-.18,0-1.3h-.09V57l.1-.67h-.1V55.17l-7-21.07-7-21.06-7,21.06-7,21.07V66.89l.63-1.75,4.58-12.66L111,49.11l1.22,3.37,3.48,9.61c.1-.62.5-1.09,1-1.09s1,.62,1,1.39V67.6l3,8.29A11.53,11.53,0,0,0,122.76,77l.86.31v2.63h-1.41v.39h.13l0,1.32,0,2.21v.1l0,.1-.62,3.48v5l.29.63.12.26v.46l.27.57.12.27v.75l.23.69.13.4-.13.4-.14.43.17,16.05.27.65.11.24v.59l.18.31.32.54-.22.58-.14.37.06,12.24,0,23h9.3l5.27.12,0-2.2ZM121.45,70.08h-2V62.39c0-.77.45-1.39,1-1.39s1,.62,1,1.39Z"/><path class="cls-3" d="M121.78,115.24v-.69l-.37-.89-.18-16.5.2-.64-.29-.88V95l-.39-.84v-.47l-.41-.89V87.39l.64-3.58,0-2.21h-.11v-2l.08-1h1.33V78.2a15.67,15.67,0,0,1-2.69-1.45l-4-11.17L111,52.92l-4.58,12.66-4,11.07a16,16,0,0,1-2.84,1.55v.41h2.26v6l-14.07-21v-5.1h2.79V56.63H87.78V54.57H85.94v2.06H83.16v1.93h2.78v4.63L69,88.43v29.16l-7,7.75v0h-.63l.07.48v.73h-.07l0,.8.41,1.29v1.94l-.26.32v.17l-.26.31v.24l-.19.32.13.23-.11,6-.24.32v.25l-.24.22.14.22,0,4.5,0,8.35H81.13V135.23a9.37,9.37,0,0,1,1.53-5.13,11.55,11.55,0,0,1,4-4.06,11.5,11.5,0,0,1,4,4.06,9.37,9.37,0,0,1,1.53,5.13V152H122l0-23.12-.06-12.47.22-.59ZM86.7,102.64a7.38,7.38,0,1,1,7.39-7.38A7.38,7.38,0,0,1,86.7,102.64Z"/></svg>