<svg id="Layer_1" data-name="Layer 1" xmlns="http://www.w3.org/2000/svg" viewBox="0 0 210.83 210.83"><defs><style>.cls-1{fill:#575c71;}.cls-2{fill:#191c33;}.cls-3{font-size:17px;fill:#15172d;font-family:Roboto-Regular, Roboto;}.cls-4{letter-spacing:-0.01em;}</style></defs><title>Leeuwarden</title><rect class="cls-1" width="210.83" height="210.83" rx="15.54" ry="15.54"/><path class="cls-2" d="M131.41,121.85v-4l-.68-.67V96.87l1-1.35-1.35-1.35v-30L128,62.44V48.6l-4.38-7.43V36.78H108.79l-2.7-4.05V23L109,20.1l-.23-.24-3.08,3.08H105l-3-3-.24.24,3,3v9.55L102,36.78H87.18v4.39L82.8,48.6V62.44l-2.37,1.68V94.17l-1.35,1.35,1,1.35v20.26l-.68.67v4h-2l1.36,3.38.33,28H100v-17a5,5,0,0,1,5-5h.76a5,5,0,0,1,5,5v17h20.93l.34-28,1.35-3.38ZM102.32,49.31A2.63,2.63,0,0,1,105,46.68h.93a2.63,2.63,0,0,1,2.63,2.63V59.45h-6.19ZM97.37,59.45H91.18V49.31a2.63,2.63,0,0,1,2.63-2.63h.93a2.63,2.63,0,0,1,2.63,2.63Zm14.57,57.89h-13V83.6A6.09,6.09,0,0,1,105,77.51h.87a6.09,6.09,0,0,1,6.09,6.09Zm7.72-57.89h-6.2V49.31a2.63,2.63,0,0,1,2.63-2.63H117a2.64,2.64,0,0,1,2.64,2.63Z"/><text class="cls-3" transform="translate(59.35 190.56)">Leeuwa<tspan class="cls-4" x="58.55" y="0">r</tspan><tspan x="64.15" y="0">den</tspan></text></svg>