<svg id="Layer_1" data-name="Layer 1" xmlns="http://www.w3.org/2000/svg" viewBox="0 0 210.83 210.83"><defs><style>.cls-1{fill:#575c71;}.cls-2{fill:#191c33;}.cls-3{fill:#15172d;}</style></defs><title>leeuwarden_1</title><rect class="cls-1" width="210.83" height="210.83" rx="15.54" ry="15.54"/><path class="cls-2" d="M131.41,121.85v-4l-.68-.67V96.87l1-1.35-1.35-1.35v-30L128,62.44V48.6l-4.38-7.43V36.78H108.79l-2.7-4.05V23L109,20.1l-.23-.24-3.08,3.08H105l-3-3-.24.24,3,3v9.55L102,36.78H87.18v4.39L82.8,48.6V62.44l-2.37,1.68V94.17l-1.35,1.35,1,1.35v20.26l-.68.67v4h-2l1.36,3.38.33,28H100v-17a5,5,0,0,1,5-5h.76a5,5,0,0,1,5,5v17h20.93l.34-28,1.35-3.38ZM102.32,49.31A2.63,2.63,0,0,1,105,46.68h.93a2.63,2.63,0,0,1,2.63,2.63V59.45h-6.19ZM97.37,59.45H91.18V49.31a2.63,2.63,0,0,1,2.63-2.63h.93a2.63,2.63,0,0,1,2.63,2.63Zm14.57,57.89h-13V83.6A6.09,6.09,0,0,1,105,77.51h.87a6.09,6.09,0,0,1,6.09,6.09Zm7.72-57.89h-6.2V49.31a2.63,2.63,0,0,1,2.63-2.63H117a2.64,2.64,0,0,1,2.64,2.63Z"/><path class="cls-3" d="M62.36,189.26h5.73v1.3H60.76V178.48h1.6Z"/><path class="cls-3" d="M73.39,190.73a4.26,4.26,0,0,1-1.7-.33,3.7,3.7,0,0,1-1.3-.9,4,4,0,0,1-.83-1.37,5.12,5.12,0,0,1-.29-1.74V186a5.48,5.48,0,0,1,.33-2,4.26,4.26,0,0,1,.88-1.45,3.68,3.68,0,0,1,2.72-1.21,3.84,3.84,0,0,1,1.66.33,3.18,3.18,0,0,1,1.15.93,4,4,0,0,1,.67,1.39,6.94,6.94,0,0,1,.21,1.75v.69H70.81a3.91,3.91,0,0,0,.2,1.16,2.87,2.87,0,0,0,.53.94,2.44,2.44,0,0,0,.83.63,2.47,2.47,0,0,0,1.1.24,2.66,2.66,0,0,0,1.38-.34,3.31,3.31,0,0,0,1-.88l.94.73a4,4,0,0,1-.53.65,3.62,3.62,0,0,1-.71.55,3.38,3.38,0,0,1-1,.39A4.38,4.38,0,0,1,73.39,190.73Zm-.19-8a2.05,2.05,0,0,0-1.55.66,2.54,2.54,0,0,0-.51.81,3.94,3.94,0,0,0-.28,1.1h4.5v-.12a4.5,4.5,0,0,0-.15-.88,2.3,2.3,0,0,0-.37-.79,2,2,0,0,0-.65-.57A2.13,2.13,0,0,0,73.2,182.68Z"/><path class="cls-3" d="M82.4,190.73a4.23,4.23,0,0,1-1.7-.33,3.61,3.61,0,0,1-1.3-.9,3.87,3.87,0,0,1-.83-1.37,5.12,5.12,0,0,1-.29-1.74V186a5.48,5.48,0,0,1,.33-2,4.41,4.41,0,0,1,.87-1.45,3.66,3.66,0,0,1,1.26-.9,3.56,3.56,0,0,1,1.47-.31,3.87,3.87,0,0,1,1.66.33,3.26,3.26,0,0,1,1.15.93,3.81,3.81,0,0,1,.66,1.39,6.5,6.5,0,0,1,.22,1.75v.69H79.82a3.62,3.62,0,0,0,.2,1.16,2.7,2.7,0,0,0,.53.94,2.51,2.51,0,0,0,1.93.87,2.71,2.71,0,0,0,1.38-.34,3.57,3.57,0,0,0,1-.88l.93.73a3.58,3.58,0,0,1-1.24,1.2,3.32,3.32,0,0,1-.94.39A4.38,4.38,0,0,1,82.4,190.73Zm-.19-8a2,2,0,0,0-.86.17,2.22,2.22,0,0,0-.7.49,3,3,0,0,0-.51.81,4.32,4.32,0,0,0-.27,1.1h4.49v-.12a3.84,3.84,0,0,0-.14-.88,2.5,2.5,0,0,0-.37-.79,1.92,1.92,0,0,0-.66-.57A2.06,2.06,0,0,0,82.21,182.68Z"/><path class="cls-3" d="M93.22,189.67a2.73,2.73,0,0,1-1.07.78,3.85,3.85,0,0,1-1.56.28,3.51,3.51,0,0,1-1.2-.19,2.28,2.28,0,0,1-.93-.59,2.67,2.67,0,0,1-.6-1,4.68,4.68,0,0,1-.22-1.54v-5.8h1.54v5.82a3.12,3.12,0,0,0,.14,1,1.62,1.62,0,0,0,.37.62,1.4,1.4,0,0,0,.53.32,2.16,2.16,0,0,0,.62.09,2.81,2.81,0,0,0,1.51-.36,2.21,2.21,0,0,0,.83-1v-6.53h1.54v9H93.25Z"/><path class="cls-3" d="M105,188.45l1.73-6.87h1.53l-2.61,9H104.4l-2.18-6.8-2.13,6.8H98.85l-2.61-9h1.53l1.77,6.72,2.09-6.72h1.24Z"/><path class="cls-3" d="M115.37,190.56a1.39,1.39,0,0,1-.13-.42,4.34,4.34,0,0,1-.09-.52,3.28,3.28,0,0,1-.48.42,3.21,3.21,0,0,1-.59.36,3.85,3.85,0,0,1-.7.24,3.33,3.33,0,0,1-.78.09,3.52,3.52,0,0,1-1.25-.21,3,3,0,0,1-1-.56,2.51,2.51,0,0,1-.82-1.89,2.73,2.73,0,0,1,.28-1.27,2.58,2.58,0,0,1,.81-.93,3.79,3.79,0,0,1,1.27-.56,6.66,6.66,0,0,1,1.67-.19h1.53v-.71a1.74,1.74,0,0,0-.48-1.28,2,2,0,0,0-1.42-.48,2.47,2.47,0,0,0-.79.12,2.06,2.06,0,0,0-.61.31,1.55,1.55,0,0,0-.4.45,1.14,1.14,0,0,0-.14.54h-1.54a2,2,0,0,1,.25-.95,2.75,2.75,0,0,1,.72-.85,3.65,3.65,0,0,1,1.12-.62,4.34,4.34,0,0,1,1.48-.23,4.89,4.89,0,0,1,1.35.18,2.8,2.8,0,0,1,1,.57,2.42,2.42,0,0,1,.69.94,3.17,3.17,0,0,1,.25,1.32v4.17a6.43,6.43,0,0,0,.08,1,3.22,3.22,0,0,0,.24.87v.13Zm-2.55-1.17a2.77,2.77,0,0,0,.78-.11,2.86,2.86,0,0,0,.66-.31,2.18,2.18,0,0,0,.52-.42,2.53,2.53,0,0,0,.35-.5V186.2h-1.28a4,4,0,0,0-2,.42,1.33,1.33,0,0,0-.72,1.24,1.73,1.73,0,0,0,.11.6,1.25,1.25,0,0,0,.33.49,1.58,1.58,0,0,0,.54.32A2.09,2.09,0,0,0,112.82,189.39Z"/><path class="cls-3" d="M123.41,183l-.37-.05h-.38a2.22,2.22,0,0,0-1.3.35,2,2,0,0,0-.75.94v6.37h-1.54v-9h1.49l0,1a2.62,2.62,0,0,1,.87-.88,2.33,2.33,0,0,1,1.27-.32l.38,0a1.18,1.18,0,0,1,.3.08Z"/><path class="cls-3" d="M124.29,186a6.77,6.77,0,0,1,.25-1.87,4.38,4.38,0,0,1,.72-1.45,3.23,3.23,0,0,1,1.12-.93,3.17,3.17,0,0,1,1.46-.33,3.54,3.54,0,0,1,1.43.27,3.1,3.1,0,0,1,1.06.8v-4.68h1.54v12.75h-1.41l-.08-1a2.88,2.88,0,0,1-1.08.84,3.55,3.55,0,0,1-1.48.29,3,3,0,0,1-1.44-.34,3.4,3.4,0,0,1-1.12-.95,4.58,4.58,0,0,1-.72-1.45,6.51,6.51,0,0,1-.25-1.82Zm1.54.17a5.76,5.76,0,0,0,.13,1.27,3.43,3.43,0,0,0,.43,1,2.25,2.25,0,0,0,.74.7,2.15,2.15,0,0,0,1.07.26,2.68,2.68,0,0,0,.73-.1,2,2,0,0,0,.59-.27,2.25,2.25,0,0,0,.46-.41,2.78,2.78,0,0,0,.35-.54V184a3.48,3.48,0,0,0-.34-.51,2.49,2.49,0,0,0-.46-.4,2.66,2.66,0,0,0-.59-.27,2.73,2.73,0,0,0-.72-.09,2.22,2.22,0,0,0-1.09.26,2.18,2.18,0,0,0-.74.71,3.61,3.61,0,0,0-.43,1,5.76,5.76,0,0,0-.13,1.27Z"/><path class="cls-3" d="M138,190.73a4.23,4.23,0,0,1-1.7-.33,3.7,3.7,0,0,1-1.3-.9,4,4,0,0,1-.83-1.37,5.12,5.12,0,0,1-.29-1.74V186a5.48,5.48,0,0,1,.33-2,4.26,4.26,0,0,1,.88-1.45,3.68,3.68,0,0,1,2.72-1.21,3.87,3.87,0,0,1,1.66.33,3.18,3.18,0,0,1,1.15.93,4,4,0,0,1,.67,1.39,6.94,6.94,0,0,1,.21,1.75v.69H135.4a3.91,3.91,0,0,0,.2,1.16,2.87,2.87,0,0,0,.53.94,2.44,2.44,0,0,0,.83.63,2.47,2.47,0,0,0,1.1.24,2.71,2.71,0,0,0,1.38-.34,3.31,3.31,0,0,0,1-.88l.94.73a4,4,0,0,1-.53.65,3.62,3.62,0,0,1-.71.55,3.38,3.38,0,0,1-.95.39A4.38,4.38,0,0,1,138,190.73Zm-.19-8a2,2,0,0,0-.86.17,2.07,2.07,0,0,0-.69.49,2.54,2.54,0,0,0-.51.81,3.94,3.94,0,0,0-.28,1.1H140v-.12a4.5,4.5,0,0,0-.15-.88,2.3,2.3,0,0,0-.37-.79,2,2,0,0,0-.65-.57A2.13,2.13,0,0,0,137.79,182.68Z"/><path class="cls-3" d="M144.71,181.58l0,1.13a3.54,3.54,0,0,1,1.16-1,3.37,3.37,0,0,1,1.53-.34,3.72,3.72,0,0,1,1.19.17,2.15,2.15,0,0,1,.9.58,2.68,2.68,0,0,1,.58,1,5,5,0,0,1,.2,1.5v5.88h-1.53v-5.9a2.86,2.86,0,0,0-.12-.89,1.45,1.45,0,0,0-.34-.6,1.32,1.32,0,0,0-.57-.34,2.27,2.27,0,0,0-.77-.11,2.22,2.22,0,0,0-1.32.4,2.71,2.71,0,0,0-.88,1v6.4h-1.53v-9Z"/></svg>