<svg id="Layer_1" data-name="Layer 1" xmlns="http://www.w3.org/2000/svg" viewBox="0 0 210.83 210.83"><defs><style>.cls-1{fill:#575c71;}.cls-2{fill:#15172d;}.cls-3{fill:#191c33;}</style></defs><title>franeker_1</title><rect class="cls-1" width="210.83" height="210.83" rx="15.54" ry="15.54"/><path class="cls-2" d="M80.76,184.84H75.69v5.33H74.1V178.09h7.48v1.31H75.69v4.13h5.07Z"/><path class="cls-2" d="M87.38,182.57a2.76,2.76,0,0,0-.37,0l-.39,0a2.27,2.27,0,0,0-1.3.35,2.19,2.19,0,0,0-.75.94v6.37H83v-9h1.49l0,1a2.84,2.84,0,0,1,.88-.88A2.42,2.42,0,0,1,86.7,181l.38,0,.3.08Z"/><path class="cls-2" d="M94,190.17a1.8,1.8,0,0,1-.13-.41c0-.17-.06-.35-.08-.53a5.19,5.19,0,0,1-.49.43,3.82,3.82,0,0,1-.59.35,3.5,3.5,0,0,1-.69.24,3.35,3.35,0,0,1-.79.09,3.52,3.52,0,0,1-1.25-.21,3,3,0,0,1-1-.56,2.67,2.67,0,0,1-.61-.84,2.63,2.63,0,0,1-.21-1,2.73,2.73,0,0,1,.28-1.27,2.47,2.47,0,0,1,.81-.92,3.9,3.9,0,0,1,1.27-.57,6.66,6.66,0,0,1,1.67-.19h1.53V184a1.74,1.74,0,0,0-.48-1.28,1.92,1.92,0,0,0-1.42-.48,2.47,2.47,0,0,0-.79.12,2.06,2.06,0,0,0-.61.31,1.38,1.38,0,0,0-.39.45,1.09,1.09,0,0,0-.14.54H88.38a2.07,2.07,0,0,1,.25-1,2.75,2.75,0,0,1,.72-.85,3.94,3.94,0,0,1,1.13-.62A4.53,4.53,0,0,1,92,181a4.79,4.79,0,0,1,1.35.18,3.09,3.09,0,0,1,1.06.57,2.64,2.64,0,0,1,.69.94A3.38,3.38,0,0,1,95.3,184v4.18a5.3,5.3,0,0,0,.08.95,3.65,3.65,0,0,0,.23.87v.13ZM91.45,189a2.45,2.45,0,0,0,.78-.11,2.75,2.75,0,0,0,.67-.31,2.39,2.39,0,0,0,.52-.42,2.21,2.21,0,0,0,.34-.5v-1.84H92.48a4,4,0,0,0-2,.41,1.34,1.34,0,0,0-.72,1.24,1.68,1.68,0,0,0,.11.6,1.25,1.25,0,0,0,.33.49,1.61,1.61,0,0,0,.54.32A2.09,2.09,0,0,0,91.45,189Z"/><path class="cls-2" d="M99.16,181.19l0,1.13a3.44,3.44,0,0,1,1.16-.95,3.31,3.31,0,0,1,1.53-.34,3.65,3.65,0,0,1,1.18.18,2.11,2.11,0,0,1,.91.57,2.54,2.54,0,0,1,.57,1,4.68,4.68,0,0,1,.21,1.5v5.88h-1.54v-5.9a3.28,3.28,0,0,0-.11-.89,1.47,1.47,0,0,0-.35-.6,1.28,1.28,0,0,0-.56-.34,2.67,2.67,0,0,0-.78-.11,2.19,2.19,0,0,0-1.31.4,2.59,2.59,0,0,0-.88,1.05v6.39H97.7v-9Z"/><path class="cls-2" d="M110.81,190.34a4.4,4.4,0,0,1-1.7-.32,4,4,0,0,1-1.3-.9,4.17,4.17,0,0,1-.83-1.38,5.12,5.12,0,0,1-.29-1.74v-.35a5.48,5.48,0,0,1,.33-2,4.36,4.36,0,0,1,.88-1.45,3.8,3.8,0,0,1,1.25-.9,3.56,3.56,0,0,1,1.47-.31,3.87,3.87,0,0,1,1.66.33,3.28,3.28,0,0,1,1.15.93,4.08,4.08,0,0,1,.67,1.39,7,7,0,0,1,.21,1.76v.68h-6.08a4,4,0,0,0,.2,1.17,2.82,2.82,0,0,0,.53.93,2.43,2.43,0,0,0,1.93.87,2.69,2.69,0,0,0,1.38-.33,3.61,3.61,0,0,0,1-.88l.94.73a4.38,4.38,0,0,1-.53.64,3.66,3.66,0,0,1-.71.56,3.7,3.7,0,0,1-.95.38A4.38,4.38,0,0,1,110.81,190.34Zm-.19-8.05a2.2,2.2,0,0,0-.86.17,2.07,2.07,0,0,0-.69.49,2.54,2.54,0,0,0-.51.81,3.94,3.94,0,0,0-.28,1.1h4.5v-.11a4.48,4.48,0,0,0-.15-.89,2.3,2.3,0,0,0-.37-.79,2.11,2.11,0,0,0-.65-.57A2.13,2.13,0,0,0,110.62,182.29Z"/><path class="cls-2" d="M118.6,186l-1,1v3.15H116.1V177.42h1.53v7.72l.83-1,2.79-3h1.87l-3.49,3.75,3.9,5.23h-1.8Z"/><path class="cls-2" d="M128.27,190.34a4.4,4.4,0,0,1-1.7-.32,3.88,3.88,0,0,1-1.3-.9,4,4,0,0,1-.83-1.38,5.12,5.12,0,0,1-.29-1.74v-.35a5.48,5.48,0,0,1,.33-2,4.52,4.52,0,0,1,.87-1.45,3.94,3.94,0,0,1,1.26-.9,3.56,3.56,0,0,1,1.47-.31,3.87,3.87,0,0,1,1.66.33,3.37,3.37,0,0,1,1.15.93,3.89,3.89,0,0,1,.66,1.39,6.53,6.53,0,0,1,.22,1.76v.68h-6.08a3.68,3.68,0,0,0,.2,1.17,2.66,2.66,0,0,0,.53.93,2.6,2.6,0,0,0,.83.64,2.57,2.57,0,0,0,1.1.23,2.71,2.71,0,0,0,1.38-.33,3.92,3.92,0,0,0,1-.88l.93.73a3.75,3.75,0,0,1-.52.64,3.45,3.45,0,0,1-.72.56,3.62,3.62,0,0,1-.94.38A4.38,4.38,0,0,1,128.27,190.34Zm-.19-8.05a2.1,2.1,0,0,0-1.56.66,3,3,0,0,0-.51.81,3.94,3.94,0,0,0-.27,1.1h4.49v-.11a3.84,3.84,0,0,0-.14-.89,2.5,2.5,0,0,0-.37-.79,2,2,0,0,0-.66-.57A2.06,2.06,0,0,0,128.08,182.29Z"/><path class="cls-2" d="M137.89,182.57a2.76,2.76,0,0,0-.37,0l-.39,0a2.27,2.27,0,0,0-1.3.35,2.19,2.19,0,0,0-.75.94v6.37h-1.53v-9H135l0,1a2.71,2.71,0,0,1,.87-.88,2.42,2.42,0,0,1,1.27-.32l.38,0,.3.08Z"/><polygon class="cls-3" points="111.43 93.62 117.59 93.62 117.59 82.14 118.38 82.14 118.38 81.57 110.64 81.57 110.64 82.14 111.43 82.14 111.43 93.62"/><path class="cls-3" d="M161.52,124.24V123h-2.47l-1.28-.93V112h0v-1.29s-.06-.11,0-.17v-2.32h.07v-1.14h0V97.26l.21-.09V97l-.21-.08h-.57V93.62H56.54V82.24h.57v-.49H49.38v.49h1V93.62h0V96.9h-.69l-.21.08v.19l.21.09v4.21h-.3v.25h0l.3.12v5.23h0v1.14h.07v2.32c.06.06,0,.17,0,.17v.16h0v4.94h0V128l.13.29.17.22.33.26v14.67l-1,1v7.84h80v-2.74h2v-2.77h2.1V144h17v2.76h2.1v2.77h2.05v2.74h3.46v-7.84l-.95-.95v-.91A2.87,2.87,0,0,0,159,141.3a1.11,1.11,0,0,0,1.07-1.12v-.55c.35-.21.3-1,.3-1h.67v-.71h-.35v-.61h-.25v-2.94l.28-.21-.25-.22v-4.65l.25-.25-.24-.25v-2.7l.36-.33-.35-.19v-1.29Zm-15.84,18.3h-7.34V129.78a2.78,2.78,0,0,1,2.78-2.78h1.78a2.77,2.77,0,0,1,2.78,2.78Z"/><polygon class="cls-3" points="155.04 92.61 155.04 93.62 157.19 93.62 157.19 92.61 157.39 91.75 157.94 91.45 157.94 91.21 157.19 91.21 157.19 86.16 157.39 85.3 157.94 85 157.94 84.75 157.19 84.75 157.19 82.1 157.19 80.27 156.12 79.47 155.04 80.27 155.04 82.1 155.04 84.75 154.29 84.75 154.29 85 154.84 85.3 155.04 86.16 155.04 91.21 154.29 91.21 154.29 91.45 154.84 91.75 155.04 92.61"/><path class="cls-3" d="M124.5,84.53l-.18.31c.28.1.24.58.24.58l.12,8.2h21.95l.12-8.2s-.05-.48.24-.58l-.18-.31,1.63-2.91-.26-.62.06-.61h-4V76.68h.54v3.71h1.33V76.68h.75v3.71h1.33V76.68h0v-.8h-4v-6l.22-.26-.22-.55-.1-.06,0-2.87.41-.72-.41-.34,1.1-2.29-.49-.42a4.32,4.32,0,0,0-2-3.48,1.11,1.11,0,0,1-.22-1.63l-.81-.75-.08-3.59.09-.2-.09-.22V50.84l.1-.1h.2v-.1l-.27-.66h-.06v-.33h.69l.13-.21.13-.07-.31-.88h-.23l0-.13s.15,0,.05-.16.32-.5.21-.74a1.19,1.19,0,0,0-.22-.33v-.27s.21,0,.06-.26c0,0,0-.15-.28-.16v-.11s.47-.09,0-.48c0,0-.58.26-.1.48v.12s-.23,0-.3.17,0,.3.1.27v.28s-.2.25-.22.29a.84.84,0,0,0,.25.7v.4l-.43,0v-.23s-1-.69-1.16-1.21l.3-.37,0-.07-.27,0v-.53s0-.22-.44-.13a.92.92,0,0,1,.18-.55.38.38,0,0,0-.18-.42l-.05-.35s.25-.18.06-.32l-.25-.21v-.1s.25,0,.12-.32c0,0,0-.16.23-.14,0,0-.06-.58-.21-.7l-.1,0,0-1,.23-.5-.13-.16.5-1.39.13-.18-.51-.48,0-.23-.12-.18s-.44-1.65-1.41-2a2.92,2.92,0,0,0-1.06-.86l-.31-.45V34a2.37,2.37,0,0,0,2.37-2.3c.17-2.38-2.65-2.1-3-4.29L136,26l.44-.42V25l-.11-.26-.34-.21-.06-1.77a.3.3,0,0,0,.05-.34l-.05-1.06s.24-.19-.11-.53v-.1a1,1,0,0,0,.87-.61c.3-.59-.87-1-.87-1l-.18-5.85-.18,5.85s-1.17.4-.88,1a1.07,1.07,0,0,0,.88.61v.1c-.36.34-.12.53-.12.53l0,1.06a.29.29,0,0,0,0,.34l0,1.77-.34.21-.12.26v.6l.45.42-.11,1.46c-.38,2.19-3.19,1.91-3,4.29a2.41,2.41,0,0,0,2.45,2.3v1.36l-.32.45a3,3,0,0,0-1,.86c-1,.35-1.41,2-1.41,2l-.13.18,0,.23-.5.48.12.18.51,1.39-.13.16.22.5,0,1-.1,0c-.15.12-.2.7-.2.7.21,0,.22.14.22.14-.13.3.12.32.12.32v.1l-.25.21c-.19.14.07.32.07.32l-.05.35a.38.38,0,0,0-.19.42.89.89,0,0,1,.19.55c-.45-.09-.44.13-.44.13v.53l-.27,0,0,.07.31.37c-.14.52-1.17,1.21-1.17,1.21v.23l-.43,0v-.4a.8.8,0,0,0,.25-.7,2.71,2.71,0,0,0-.22-.29v-.28c.11,0,.17-.13.1-.27s-.3-.17-.3-.17v-.12c.48-.22-.09-.48-.09-.48-.48.39,0,.48,0,.48v.11c-.28,0-.28.16-.28.16-.16.25.05.26.05.26v.27a1.37,1.37,0,0,0-.21.33c-.12.24.2.74.2.74a.09.09,0,0,0,0,.16l0,.13H129l-.31.88.12.07.14.21h.68V50h-.05l-.28.66v.1h.2l.11.1v1.61l-.09.22.09.2-.08,3.59-.82.75a1.1,1.1,0,0,1-.21,1.63,4.35,4.35,0,0,0-2,3.48l-.48.42,1.1,2.29-.41.34.41.72,0,2.87L127,69l-.21.55.21.26v6h-4v.66h0V80.4h0l.06.6-.26.62Zm14.27-16.65h.16s0-.06,0-.31-.09-1,.33-1,.4-.29.41-.44,0-.55.3-.52h.16s0,0,0,0h0s0,0,0,0h.16c.33,0,.3.36.3.52s0,.47.41.44.33.76.33,1,.06.31.06.31h.15v8h-2.88Zm0,8.8h.78v3.71h1.32V76.68h.78v3.71h-2.88ZM134,67.88h.18s.07-.06.07-.31-.11-1,.37-1,.45-.29.45-.44,0-.55.34-.52h.18s0,0,0,0h0s0,0,0,0h.18c.37,0,.34.36.34.52s0,.47.45.44.38.76.38,1,.06.31.06.31h.18v8H134Zm0,8.8h1v3.71h1.33V76.68h1v3.71H134Zm-4.39-8.8h.16s.06-.06.06-.31-.1-1,.33-1,.39-.29.39-.44,0-.55.3-.52H131s0,0,0,0h.05s0,0,0,0h.16c.32,0,.29.36.3.52s0,.47.39.44.33.76.33,1,.06.31.06.31h.16v8H129.6Zm0,8.8h.77v3.71h1.33V76.68h.77v3.71H129.6Zm-3.14,0H127V80.4h-.55Zm-2.07,0h.75V80.4h-.75Z"/><rect class="cls-3" x="134.35" y="144.82" width="15.32" height="1.88"/><rect class="cls-3" x="132.25" y="147.58" width="19.53" height="1.88"/><rect class="cls-3" x="130.2" y="150.35" width="23.62" height="1.88"/></svg>