<svg id="Layer_1" data-name="Layer 1" xmlns="http://www.w3.org/2000/svg" viewBox="0 0 210.83 210.83"><defs><style>.cls-1{fill:#575c71;}.cls-2{font-size:17px;fill:#15172d;font-family:Roboto-Regular, Roboto;}.cls-3{letter-spacing:-0.01em;}.cls-4{fill:#191c33;}</style></defs><title>Bolsward</title><rect class="cls-1" width="210.83" height="210.83" rx="15.54" ry="15.54"/><text class="cls-2" transform="translate(70.23 190.04)">Bolswa<tspan class="cls-3" x="55.19" y="0">r</tspan><tspan x="60.79" y="0">d</tspan></text><path class="cls-4" d="M163.6,113.59a9.85,9.85,0,0,0-.23-2.81,1.64,1.64,0,0,1-.23-1h1.13l.77-.9h-7.47l-.56-.66-.58-.68-.85-1-9.79-11.47V93h.35v-.2h-.35V92.4H146l.32-.49h-.53V88.73l.12-.13v-.17h-.16v-.29h.19l.21-.27v-.15l-1.59-.62-.34-.33v-.3s.12-.17.08-.2.61-.34-.08-.61v-.23s.34-.09,0-.25l-.13-.39-.13.39c-.35.16,0,.25,0,.25v.23c-.7.27,0,.57-.08.61s.08.2.08.2v.3l-.35.33-1.59.62v.15l.21.27h.2v.29h-.16v.17l.11.13v3.18h-.52l.31.49h.21v.42H142V93h.34v1.59h-26l-.17-8.48.17-.55-.17-.07L117,84l-.19-.17H116V81.12l.48-1L114.64,80l-1.57-.2V69.65h.65l.17-.39.55-.15,0-1.42h-.57l-.07-2,.2-.17,0-1.26-2.65-.38-.42-6.69.29-.18v-.79h-.29l.29-.35h.75l.1-1.19,0-.27H111a3,3,0,0,1-.92-1.64c-.3-1.19-1.64-.94-1.64-.94l-.34-3.75.27-.27,0-2.38.74-.18-.17-.79h-.82l-.7-.85a2.72,2.72,0,0,0,.3-1.48,2.76,2.76,0,0,1,0-1.12h.59l-.57-1.28h-1.6v-.45a2.84,2.84,0,0,1-.57-1,2.3,2.3,0,0,1,0-.45,3,3,0,0,0,1-1.37s0-1.11,0-1.3-1.43-3-1.43-3,.89-1-.12-1.54V29.35s1-.5,0-1.29l-.18-1.55s.59-.49-.13-.66V20h-.29v5.81c-.72.17-.13.66-.13.66L104,28.06c-1,.79,0,1.29,0,1.29v1.23c-1,.55-.12,1.54-.12,1.54s-1.4,2.85-1.42,3,0,1.3,0,1.3a3,3,0,0,0,1,1.37,2.3,2.3,0,0,1,0,.45,2.86,2.86,0,0,1-.56,1v.45h-1.61L100.59,41h.59a2.76,2.76,0,0,1,0,1.12,2.72,2.72,0,0,0,.3,1.48l-.7.85h-.82l-.17.79.75.18,0,2.38.27.27-.34,3.75s-1.34-.25-1.64.94a3,3,0,0,1-.92,1.64H96.77l0,.27.1,1.19h.75l.29.35h-.29V57l.29.18-.42,6.69-2.65.38,0,1.26.2.17-.07,2h-.57l0,1.42.55.15.17.39h.65v10.1l-1.57.2-1.87.22.48,1V83.8H92l-.2.17.87,1.54-.18.07.18.55-.18,8.48H67.79V93h.35v-.2h-.35V92.4H68l.32-.49h-.53V88.73l.12-.13v-.17h-.16v-.29h.19l.21-.27v-.15l-1.59-.62-.34-.33v-.3s.12-.17.08-.2.61-.34-.08-.61v-.23s.34-.09,0-.25l-.13-.39-.13.39c-.35.16,0,.25,0,.25v.23c-.7.27,0,.57-.08.61s.08.2.08.2v.3l-.35.33L64,87.72v.15l.21.27h.2v.29h-.17v.17l.11.13v3.18h-.53l.32.49h.21v.42H64V93h.34v2l-8,9.38-2.62,3.07-.68.79-.48.57H45.65l.77.9h5c0,.16,0,.3,0,.42l-.08.09-.61.72a1.13,1.13,0,0,0-.08-.22,1.65,1.65,0,0,1-.21-1h-.68a1.65,1.65,0,0,1-.21,1,6.1,6.1,0,0,0-.23,1.87l-.14.16h0l-.39.46a7.85,7.85,0,0,0-.26-2.5,1.47,1.47,0,0,1-.25-1h-.78a1.51,1.51,0,0,1-.24,1,9,9,0,0,0-.25,2.81H45.13v.27h.39l.37.22h1.63v16h0v2.59l-.49,0-.18.22.15.42c-.11.07.11.47.11.47l.22.09,0,.3s.28.24.3.24a2.12,2.12,0,0,1,.27.17l.27.24v12.11l-.3.28.23.2-.45.42v4.3H163.21v-4.3l-.45-.42.23-.2-.3-.28V134.81l.27-.24a2.12,2.12,0,0,1,.27-.17s.3-.24.3-.24l0-.3.21-.09s.22-.4.11-.47l.15-.42-.18-.22-.49,0v-2.34h0v-16.2h1.63l.37-.22h.39v-.27Zm-3.38-2.81a3.65,3.65,0,0,0-.18,1l-.56-.65a2.09,2.09,0,0,0-.07-.33,1.93,1.93,0,0,1-.17-1h1.2A1.69,1.69,0,0,1,160.22,110.78Zm-1.53-1a2.3,2.3,0,0,1,0,.39l-.33-.39Zm2.85,3.75a10,10,0,0,0-.22-2.74,1.65,1.65,0,0,1-.21-1h1.31a1.6,1.6,0,0,1-.22,1,10.32,10.32,0,0,0-.24,2.81h-.36Z"/></svg>