<svg id="Layer_1" data-name="Layer 1" xmlns="http://www.w3.org/2000/svg" viewBox="0 0 210.83 210.83"><defs><style>.cls-1{fill:#575c71;}.cls-2{fill:#15172d;}.cls-3{fill:#191c33;}</style></defs><title>bolsward_1</title><rect class="cls-1" width="210.83" height="210.83" rx="15.54" ry="15.54"/><path class="cls-2" d="M71.63,190V178h4a6.42,6.42,0,0,1,1.66.19,3.16,3.16,0,0,1,1.24.58,2.5,2.5,0,0,1,.78,1,3.54,3.54,0,0,1,.27,1.45,2.49,2.49,0,0,1-.48,1.5,3.19,3.19,0,0,1-1.31,1,2.85,2.85,0,0,1,.9.41,3,3,0,0,1,.67.65,3.28,3.28,0,0,1,.41.84,3.45,3.45,0,0,1,.14,1,3.75,3.75,0,0,1-.29,1.5,2.94,2.94,0,0,1-.81,1.09,3.46,3.46,0,0,1-1.26.67,5.6,5.6,0,0,1-1.64.23Zm1.59-6.94h2.41a3.05,3.05,0,0,0,.94-.13,2.2,2.2,0,0,0,.73-.38,1.88,1.88,0,0,0,.47-.61,1.94,1.94,0,0,0,.16-.82,1.72,1.72,0,0,0-.58-1.45,2.88,2.88,0,0,0-1.77-.45H73.22Zm0,1.28v4.35h2.64a3.11,3.11,0,0,0,1-.15,2.11,2.11,0,0,0,.75-.43,1.89,1.89,0,0,0,.47-.68,2.36,2.36,0,0,0,.16-.9,2.86,2.86,0,0,0-.13-.91,1.74,1.74,0,0,0-.42-.69,1.85,1.85,0,0,0-.72-.43,3.05,3.05,0,0,0-1-.16Z"/><path class="cls-2" d="M81.57,185.46a5.54,5.54,0,0,1,.28-1.81,4.38,4.38,0,0,1,.82-1.45,3.69,3.69,0,0,1,1.28-1,3.87,3.87,0,0,1,1.69-.35,4,4,0,0,1,1.72.35,3.82,3.82,0,0,1,1.29,1,4.36,4.36,0,0,1,.81,1.45,5.54,5.54,0,0,1,.28,1.81v.18a5.6,5.6,0,0,1-.28,1.82,4.31,4.31,0,0,1-.81,1.44,3.82,3.82,0,0,1-1.29,1,4.42,4.42,0,0,1-3.4,0,3.64,3.64,0,0,1-1.29-1,4.33,4.33,0,0,1-.82-1.44,5.6,5.6,0,0,1-.28-1.82Zm1.54.18a4.7,4.7,0,0,0,.16,1.27,3,3,0,0,0,.48,1.05,2.18,2.18,0,0,0,.79.72,2.44,2.44,0,0,0,2.23,0,2.21,2.21,0,0,0,.8-.72,3.37,3.37,0,0,0,.48-1.05,5.13,5.13,0,0,0,.16-1.27v-.18a5.18,5.18,0,0,0-.16-1.26,3.23,3.23,0,0,0-.49-1.06,2.4,2.4,0,0,0-.8-.72,2.24,2.24,0,0,0-1.12-.27,2.16,2.16,0,0,0-1.1.27,2.37,2.37,0,0,0-.79.72,3,3,0,0,0-.48,1.06,4.73,4.73,0,0,0-.16,1.26Z"/><path class="cls-2" d="M93.34,190H91.8V177.29h1.54Z"/><path class="cls-2" d="M101,187.65a1.49,1.49,0,0,0-.07-.47,1,1,0,0,0-.3-.41,2.07,2.07,0,0,0-.62-.36A7.19,7.19,0,0,0,99,186.1a10,10,0,0,1-1.35-.37,4.14,4.14,0,0,1-1-.52,2.12,2.12,0,0,1-.65-.72,2,2,0,0,1-.22-1,2.37,2.37,0,0,1,.23-1,2.7,2.7,0,0,1,.67-.84,3.3,3.3,0,0,1,1.05-.57,4.19,4.19,0,0,1,1.37-.21,4.35,4.35,0,0,1,1.44.22,3.32,3.32,0,0,1,1.08.6,2.52,2.52,0,0,1,.67.89,2.55,2.55,0,0,1,.24,1.09h-1.55a1.4,1.4,0,0,0-.12-.55,1.58,1.58,0,0,0-.37-.5,1.88,1.88,0,0,0-.59-.35,2.2,2.2,0,0,0-.8-.14,2.76,2.76,0,0,0-.82.11,1.79,1.79,0,0,0-.55.3,1.15,1.15,0,0,0-.32.42,1.38,1.38,0,0,0-.1.49,1.1,1.1,0,0,0,.09.45.86.86,0,0,0,.31.36,2.56,2.56,0,0,0,.64.3c.27.09.61.18,1,.28a9.43,9.43,0,0,1,1.43.43,3.64,3.64,0,0,1,1,.56,2,2,0,0,1,.59.73,2.4,2.4,0,0,1-.75,2.88,3.29,3.29,0,0,1-1.09.55,4.88,4.88,0,0,1-1.42.19,4.48,4.48,0,0,1-1.58-.25,3.31,3.31,0,0,1-1.15-.66,2.69,2.69,0,0,1-.71-.94,2.57,2.57,0,0,1-.24-1.08H97a1.47,1.47,0,0,0,.23.79,1.49,1.49,0,0,0,.51.52,1.92,1.92,0,0,0,.67.29,3.55,3.55,0,0,0,.73.08,3.43,3.43,0,0,0,.83-.1,1.86,1.86,0,0,0,.6-.28,1.11,1.11,0,0,0,.37-.41A1.07,1.07,0,0,0,101,187.65Z"/><path class="cls-2" d="M112.51,187.92l1.73-6.87h1.53l-2.61,9h-1.25l-2.18-6.81L107.61,190h-1.25l-2.61-9h1.53l1.77,6.73,2.09-6.73h1.24Z"/><path class="cls-2" d="M122.88,190a1.48,1.48,0,0,1-.13-.42c0-.17-.06-.35-.09-.53a4.06,4.06,0,0,1-.48.43,3.82,3.82,0,0,1-.59.35,2.69,2.69,0,0,1-.69.24,3.42,3.42,0,0,1-.79.09,3.52,3.52,0,0,1-1.25-.21,2.76,2.76,0,0,1-1-.56,2.67,2.67,0,0,1-.61-.84,2.61,2.61,0,0,1-.21-1,2.74,2.74,0,0,1,.28-1.28,2.47,2.47,0,0,1,.81-.92,3.9,3.9,0,0,1,1.27-.57,6.66,6.66,0,0,1,1.67-.19h1.53v-.71a1.74,1.74,0,0,0-.48-1.28,1.93,1.93,0,0,0-1.42-.47,2.48,2.48,0,0,0-.79.11,2.06,2.06,0,0,0-.61.31,1.38,1.38,0,0,0-.39.45,1.1,1.1,0,0,0-.15.54h-1.54a2,2,0,0,1,.25-.95,2.75,2.75,0,0,1,.72-.85,3.94,3.94,0,0,1,1.13-.62,4.53,4.53,0,0,1,1.47-.23,4.79,4.79,0,0,1,1.35.18,3.09,3.09,0,0,1,1.06.57,2.73,2.73,0,0,1,.69.94,3.38,3.38,0,0,1,.24,1.32v4.18a6.65,6.65,0,0,0,.08,1,4.23,4.23,0,0,0,.24.86V190Zm-2.55-1.17a2.45,2.45,0,0,0,.78-.12,3.16,3.16,0,0,0,.67-.3,2.42,2.42,0,0,0,.51-.43,2,2,0,0,0,.35-.5v-1.84h-1.28a4,4,0,0,0-2,.41,1.34,1.34,0,0,0-.72,1.24,1.74,1.74,0,0,0,.11.61,1.22,1.22,0,0,0,.33.48,1.61,1.61,0,0,0,.54.32A2.08,2.08,0,0,0,120.33,188.87Z"/><path class="cls-2" d="M130.92,182.43a2.46,2.46,0,0,0-.37,0l-.38,0a2.24,2.24,0,0,0-1.3.35,2.1,2.1,0,0,0-.75.94V190h-1.54v-9h1.5l0,1a2.71,2.71,0,0,1,.87-.88,2.42,2.42,0,0,1,1.27-.32,1.82,1.82,0,0,1,.38,0,1.32,1.32,0,0,1,.3.07Z"/><path class="cls-2" d="M131.8,185.47a6.4,6.4,0,0,1,.26-1.87,4.46,4.46,0,0,1,.71-1.45,3.32,3.32,0,0,1,1.12-.93,3.2,3.2,0,0,1,1.46-.33,3.35,3.35,0,0,1,1.43.28,3,3,0,0,1,1.07.8v-4.68h1.53V190H138l-.07-1a2.93,2.93,0,0,1-1.08.84,3.6,3.6,0,0,1-1.49.29,3.06,3.06,0,0,1-1.44-.34,3.39,3.39,0,0,1-1.12-1,4.61,4.61,0,0,1-.71-1.44,6.27,6.27,0,0,1-.26-1.83Zm1.54.17a5.21,5.21,0,0,0,.14,1.27,3.09,3.09,0,0,0,.42,1,2.06,2.06,0,0,0,1.81,1,2.34,2.34,0,0,0,.73-.1,2.12,2.12,0,0,0,1.05-.68,2.75,2.75,0,0,0,.36-.53v-4.13a3,3,0,0,0-.35-.5,2.55,2.55,0,0,0-.46-.41,2.25,2.25,0,0,0-.59-.26,2.28,2.28,0,0,0-.72-.1,2.16,2.16,0,0,0-1.08.26,2.21,2.21,0,0,0-.75.71,3.34,3.34,0,0,0-.42,1,5.21,5.21,0,0,0-.14,1.27Z"/><path class="cls-3" d="M163.6,113.59a9.85,9.85,0,0,0-.23-2.81,1.64,1.64,0,0,1-.23-1h1.13l.77-.9h-7.47l-.56-.66-.58-.68-.85-1-9.79-11.47V93h.35v-.2h-.35V92.4H146l.32-.49h-.53V88.73l.12-.13v-.17h-.16v-.29h.19l.21-.27v-.15l-1.59-.62-.34-.33v-.3s.12-.17.08-.2.61-.34-.08-.61v-.23s.34-.09,0-.25l-.13-.39-.13.39c-.35.16,0,.25,0,.25v.23c-.7.27,0,.57-.08.61s.08.2.08.2v.3l-.35.33-1.59.62v.15l.21.27h.2v.29h-.16v.17l.11.13v3.18h-.52l.31.49h.21v.42H142V93h.34v1.59h-26l-.17-8.48.17-.55-.17-.07L117,84l-.19-.17H116V81.12l.48-1L114.64,80l-1.57-.2V69.65h.65l.17-.39.55-.15,0-1.42h-.57l-.07-2,.2-.17,0-1.26-2.65-.38-.42-6.69.29-.18v-.79h-.29l.29-.35h.75l.1-1.19,0-.27H111a3,3,0,0,1-.92-1.64c-.3-1.19-1.64-.94-1.64-.94l-.34-3.75.27-.27,0-2.38.74-.18-.17-.79h-.82l-.7-.85a2.72,2.72,0,0,0,.3-1.48,2.76,2.76,0,0,1,0-1.12h.59l-.57-1.28h-1.6v-.45a2.84,2.84,0,0,1-.57-1,2.3,2.3,0,0,1,0-.45,3,3,0,0,0,1-1.37s0-1.11,0-1.3-1.43-3-1.43-3,.89-1-.12-1.54V29.35s1-.5,0-1.29l-.18-1.55s.59-.49-.13-.66V20h-.29v5.81c-.72.17-.13.66-.13.66L104,28.06c-1,.79,0,1.29,0,1.29v1.23c-1,.55-.12,1.54-.12,1.54s-1.4,2.85-1.42,3,0,1.3,0,1.3a3,3,0,0,0,1,1.37,2.3,2.3,0,0,1,0,.45,2.86,2.86,0,0,1-.56,1v.45h-1.61L100.59,41h.59a2.76,2.76,0,0,1,0,1.12,2.72,2.72,0,0,0,.3,1.48l-.7.85h-.82l-.17.79.75.18,0,2.38.27.27-.34,3.75s-1.34-.25-1.64.94a3,3,0,0,1-.92,1.64H96.77l0,.27.1,1.19h.75l.29.35h-.29V57l.29.18-.42,6.69-2.65.38,0,1.26.2.17-.07,2h-.57l0,1.42.55.15.17.39h.65v10.1l-1.57.2-1.87.22.48,1V83.8H92l-.2.17.87,1.54-.18.07.18.55-.18,8.48H67.79V93h.35v-.2h-.35V92.4H68l.32-.49h-.53V88.73l.12-.13v-.17h-.16v-.29h.19l.21-.27v-.15l-1.59-.62-.34-.33v-.3s.12-.17.08-.2.61-.34-.08-.61v-.23s.34-.09,0-.25l-.13-.39-.13.39c-.35.16,0,.25,0,.25v.23c-.7.27,0,.57-.08.61s.08.2.08.2v.3l-.35.33L64,87.72v.15l.21.27h.2v.29h-.17v.17l.11.13v3.18h-.53l.32.49h.21v.42H64V93h.34v2l-8,9.38-2.62,3.07-.68.79-.48.57H45.65l.77.9h5c0,.16,0,.3,0,.42l-.08.09-.61.72a1.13,1.13,0,0,0-.08-.22,1.65,1.65,0,0,1-.21-1h-.68a1.65,1.65,0,0,1-.21,1,6.1,6.1,0,0,0-.23,1.87l-.14.16h0l-.39.46a7.85,7.85,0,0,0-.26-2.5,1.47,1.47,0,0,1-.25-1h-.78a1.51,1.51,0,0,1-.24,1,9,9,0,0,0-.25,2.81H45.13v.27h.39l.37.22h1.63v16h0v2.59l-.49,0-.18.22.15.42c-.11.07.11.47.11.47l.22.09,0,.3s.28.24.3.24a2.12,2.12,0,0,1,.27.17l.27.24v12.11l-.3.28.23.2-.45.42v4.3H163.21v-4.3l-.45-.42.23-.2-.3-.28V134.81l.27-.24a2.12,2.12,0,0,1,.27-.17s.3-.24.3-.24l0-.3.21-.09s.22-.4.11-.47l.15-.42-.18-.22-.49,0v-2.34h0v-16.2h1.63l.37-.22h.39v-.27Zm-3.38-2.81a3.65,3.65,0,0,0-.18,1l-.56-.65a2.09,2.09,0,0,0-.07-.33,1.93,1.93,0,0,1-.17-1h1.2A1.69,1.69,0,0,1,160.22,110.78Zm-1.53-1a2.3,2.3,0,0,1,0,.39l-.33-.39Zm2.85,3.75a10,10,0,0,0-.22-2.74,1.65,1.65,0,0,1-.21-1h1.31a1.6,1.6,0,0,1-.22,1,10.32,10.32,0,0,0-.24,2.81h-.36Z"/></svg>