<svg id="Layer_1" data-name="Layer 1" xmlns="http://www.w3.org/2000/svg" viewBox="0 0 210.83 210.83"><defs><style>.cls-1{fill:#575c71;}.cls-2{fill:#15172d;}.cls-3{fill:#191c33;}</style></defs><title>sneek_1</title><rect class="cls-1" width="210.83" height="210.83" rx="15.54" ry="15.54"/><path class="cls-2" d="M90.21,187a2,2,0,0,0-.13-.75,1.44,1.44,0,0,0-.45-.59,3.8,3.8,0,0,0-.89-.51,13.33,13.33,0,0,0-1.41-.48,11.25,11.25,0,0,1-1.62-.59,5.67,5.67,0,0,1-1.24-.75,3,3,0,0,1-.78-1,2.77,2.77,0,0,1-.28-1.25,2.9,2.9,0,0,1,.3-1.31,3.08,3.08,0,0,1,.83-1,4,4,0,0,1,1.3-.7,5.49,5.49,0,0,1,1.68-.25,5.14,5.14,0,0,1,1.82.31,4.32,4.32,0,0,1,1.34.81,3.53,3.53,0,0,1,.83,1.17,3.46,3.46,0,0,1,.28,1.37h-1.6a2.79,2.79,0,0,0-.16-.93,2,2,0,0,0-.5-.75,2.34,2.34,0,0,0-.83-.49,3.45,3.45,0,0,0-1.18-.18,3.73,3.73,0,0,0-1.11.15,2.24,2.24,0,0,0-.78.42,1.7,1.7,0,0,0-.46.61,2,2,0,0,0-.15.78,1.48,1.48,0,0,0,.17.7,1.67,1.67,0,0,0,.5.58,3.91,3.91,0,0,0,.87.49,9.71,9.71,0,0,0,1.29.43,11.47,11.47,0,0,1,1.77.65,4.82,4.82,0,0,1,1.24.8,3,3,0,0,1,.72,1,3.15,3.15,0,0,1,.23,1.26,2.93,2.93,0,0,1-.29,1.34,3,3,0,0,1-.85,1,4.13,4.13,0,0,1-1.33.65,5.89,5.89,0,0,1-1.73.23,6.06,6.06,0,0,1-1.12-.1,6.17,6.17,0,0,1-1.06-.31,4.59,4.59,0,0,1-1-.52,3.66,3.66,0,0,1-.76-.71,3.27,3.27,0,0,1-.5-.92,3,3,0,0,1-.19-1.11h1.6a2.23,2.23,0,0,0,.25,1.07,2,2,0,0,0,.66.73,2.61,2.61,0,0,0,.94.43,4.6,4.6,0,0,0,1.13.14,3.08,3.08,0,0,0,1.93-.52A1.66,1.66,0,0,0,90.21,187Z"/><path class="cls-2" d="M95.07,181.05l.05,1.13a3.54,3.54,0,0,1,1.16-1,3.31,3.31,0,0,1,1.53-.34,3.65,3.65,0,0,1,1.18.18,2.2,2.2,0,0,1,.91.57,2.68,2.68,0,0,1,.58,1,5,5,0,0,1,.2,1.5V190H99.14v-5.91a2.93,2.93,0,0,0-.11-.89,1.37,1.37,0,0,0-.35-.6,1.28,1.28,0,0,0-.56-.34,2.57,2.57,0,0,0-.78-.11,2.19,2.19,0,0,0-1.31.4,2.74,2.74,0,0,0-.88,1V190H93.62v-9Z"/><path class="cls-2" d="M106.72,190.2a4.35,4.35,0,0,1-1.69-.32,3.88,3.88,0,0,1-1.3-.9,4,4,0,0,1-.83-1.38,4.89,4.89,0,0,1-.29-1.74v-.35a5.71,5.71,0,0,1,.32-2,4.36,4.36,0,0,1,.88-1.45,3.8,3.8,0,0,1,1.25-.9,3.56,3.56,0,0,1,1.47-.31,3.84,3.84,0,0,1,1.66.33,3.19,3.19,0,0,1,1.15.93,3.91,3.91,0,0,1,.67,1.39,7,7,0,0,1,.22,1.76V186h-6.09a4,4,0,0,0,.2,1.17,2.84,2.84,0,0,0,.54.93,2.5,2.5,0,0,0,.83.64,2.57,2.57,0,0,0,1.1.23,2.65,2.65,0,0,0,1.37-.33,3.61,3.61,0,0,0,1-.88l.94.73a4.29,4.29,0,0,1-.52.64,4.07,4.07,0,0,1-.72.56,4.21,4.21,0,0,1-.94.39A5,5,0,0,1,106.72,190.2Zm-.19-8a2.15,2.15,0,0,0-.85.17,2.11,2.11,0,0,0-.7.49,2.73,2.73,0,0,0-.51.81,3.94,3.94,0,0,0-.28,1.1h4.5v-.11a3.85,3.85,0,0,0-.15-.89,2.3,2.3,0,0,0-.37-.79,1.86,1.86,0,0,0-.65-.56A2,2,0,0,0,106.53,182.15Z"/><path class="cls-2" d="M115.73,190.2a4.4,4.4,0,0,1-1.7-.32,4,4,0,0,1-1.3-.9,4.17,4.17,0,0,1-.83-1.38,5.12,5.12,0,0,1-.29-1.74v-.35a5.48,5.48,0,0,1,.33-2,4.36,4.36,0,0,1,.88-1.45,3.8,3.8,0,0,1,1.25-.9,3.56,3.56,0,0,1,1.47-.31,3.87,3.87,0,0,1,1.66.33,3.28,3.28,0,0,1,1.15.93,4.08,4.08,0,0,1,.67,1.39,7,7,0,0,1,.21,1.76V186h-6.08a4,4,0,0,0,.2,1.17,2.82,2.82,0,0,0,.53.93,2.43,2.43,0,0,0,1.93.87,2.71,2.71,0,0,0,1.38-.33,3.61,3.61,0,0,0,1-.88l.94.73a4.38,4.38,0,0,1-.53.64,3.66,3.66,0,0,1-.71.56,4.1,4.1,0,0,1-.95.39A4.82,4.82,0,0,1,115.73,190.2Zm-.19-8a2.2,2.2,0,0,0-.86.17,2.07,2.07,0,0,0-.69.49,2.54,2.54,0,0,0-.51.81,3.94,3.94,0,0,0-.28,1.1h4.5v-.11a4.48,4.48,0,0,0-.15-.89,2.3,2.3,0,0,0-.37-.79,2,2,0,0,0-.65-.56A2,2,0,0,0,115.54,182.15Z"/><path class="cls-2" d="M123.52,185.88l-1,1V190H121V177.29h1.53V185l.82-1,2.8-3H128l-3.5,3.76,3.91,5.23h-1.81Z"/><path class="cls-3" d="M148.05,128.94l-.17-43.29.17-.55V81.43l1.51-.63s.09-.73.41-.86l-1.27-.22-4.52-6.43-6.62-46.47V21.65s1.24-1,0-1.6l-.21-5-.13,5s-1.58.61-.14,1.6L137,26.8l-7.14,46.76-3.55,5.15L124,75.4V74.27h-.69v1l-9.11.14-2.25-3,.49-.66s.07-.39-.16-.41l-1,0L111,71a.82.82,0,0,0-.28-1.34l-.47,0v-.47l-.56,0-.18-.3s-.2-.35.38-.57c0,0,.22-.76-.49-.74,0,0-.16-.32.3-.74l0-.38-.92,0v-3s.44-.59.42-.77v-.24h-1.75V58.05s.09-.47.35-.59v-.92h-4.63v.92c.26.12.35.59.35.59v4.32h-1.75v.24c0,.18.42.77.42.77v3l-.92,0,0,.38c.46.42.3.74.3.74-.71,0-.49.74-.49.74.58.22.38.57.38.57l-.18.3-.56,0v.47l-.47,0A.82.82,0,0,0,100,71l-.35.3-1,0c-.23,0-.16.41-.16.41l.49.66-2.25,3-9.11-.14v-1h-.69V75.4l-2.24,3.31-3.55-5.15L74,26.8l-.11-5.18c1.44-1-.14-1.6-.14-1.6l-.13-5-.21,5c-1.24.61,0,1.6,0,1.6v5.17L66.77,73.29l-4.52,6.43L61,79.94c.32.13.41.86.41.86l1.51.63V85.1l.17.55-.17,43.29-13.59,6.11v18.13H89.88V136.26s-.12-9.79,15.59-10c15.72.25,15.6,10,15.6,10v16.92l40.45-.1V135ZM95.93,117.62h-8l.13-9.18h.38l.14-1h-.48s.3-7.89,7.87-7.93,7.86,7.93,7.86,7.93h-.48l.14,1h.39l.12,9.18Zm18.31,0h-8l.13-9.18h.38l.14-1h-.48s.3-7.89,7.87-7.93,7.86,7.93,7.86,7.93h-.48l.14,1h.39l.12,9.18Z"/></svg>