<svg id="Layer_1" data-name="Layer 1" xmlns="http://www.w3.org/2000/svg" viewBox="0 0 210.83 210.83"><defs><style>.cls-1{fill:#575c71;}.cls-2{font-size:17px;fill:#15172d;font-family:Roboto-Regular, Roboto;}.cls-3{fill:#191c33;}</style></defs><title>Sneek</title><rect class="cls-1" width="210.83" height="210.83" rx="15.54" ry="15.54"/><text class="cls-2" transform="translate(82.37 190.04)">Sneek</text><path class="cls-3" d="M148.05,128.94l-.17-43.29.17-.55V81.43l1.51-.63s.09-.73.41-.86l-1.27-.22-4.52-6.43-6.62-46.47V21.65s1.24-1,0-1.6l-.21-5-.13,5s-1.58.61-.14,1.6L137,26.8l-7.14,46.76-3.55,5.15L124,75.4V74.27h-.69v1l-9.11.14-2.25-3,.49-.66s.07-.39-.16-.41l-1,0L111,71a.82.82,0,0,0-.28-1.34l-.47,0v-.47l-.56,0-.18-.3s-.2-.35.38-.57c0,0,.22-.76-.49-.74,0,0-.16-.32.3-.74l0-.38-.92,0v-3s.44-.59.42-.77v-.24h-1.75V58.05s.09-.47.35-.59v-.92h-4.63v.92c.26.12.35.59.35.59v4.32h-1.75v.24c0,.18.42.77.42.77v3l-.92,0,0,.38c.46.42.3.74.3.74-.71,0-.49.74-.49.74.58.22.38.57.38.57l-.18.3-.56,0v.47l-.47,0A.82.82,0,0,0,100,71l-.35.3-1,0c-.23,0-.16.41-.16.41l.49.66-2.25,3-9.11-.14v-1h-.69V75.4l-2.24,3.31-3.55-5.15L74,26.8l-.11-5.18c1.44-1-.14-1.6-.14-1.6l-.13-5-.21,5c-1.24.61,0,1.6,0,1.6v5.17L66.77,73.29l-4.52,6.43L61,79.94c.32.13.41.86.41.86l1.51.63V85.1l.17.55-.17,43.29-13.59,6.11v18.13H89.88V136.26s-.12-9.79,15.59-10c15.72.25,15.6,10,15.6,10v16.92l40.45-.1V135ZM95.93,117.62h-8l.13-9.18h.38l.14-1h-.48s.3-7.89,7.87-7.93,7.86,7.93,7.86,7.93h-.48l.14,1h.39l.12,9.18Zm18.31,0h-8l.13-9.18h.38l.14-1h-.48s.3-7.89,7.87-7.93,7.86,7.93,7.86,7.93h-.48l.14,1h.39l.12,9.18Z"/></svg>