<svg id="Layer_1" data-name="Layer 1" xmlns="http://www.w3.org/2000/svg" viewBox="0 0 210.83 210.83"><defs><style>.cls-1{fill:#575c71;}.cls-2{fill:#15172d;}.cls-3{fill:#191c33;}</style></defs><title>stavoren_1</title><rect class="cls-1" width="210.83" height="210.83" rx="15.54" ry="15.54"/><path class="cls-2" d="M80,187a2.18,2.18,0,0,0-.13-.75,1.56,1.56,0,0,0-.46-.59,3.72,3.72,0,0,0-.88-.51,13.33,13.33,0,0,0-1.41-.48,11.86,11.86,0,0,1-1.63-.59,5.59,5.59,0,0,1-1.23-.75,3.05,3.05,0,0,1-.79-1,2.77,2.77,0,0,1-.27-1.25,3,3,0,0,1,.29-1.31,3.11,3.11,0,0,1,.84-1,4,4,0,0,1,1.29-.7,5.56,5.56,0,0,1,1.69-.25,5.08,5.08,0,0,1,1.81.31,4.37,4.37,0,0,1,1.35.81,3.47,3.47,0,0,1,1.1,2.54H80a2.56,2.56,0,0,0-.16-.93,2,2,0,0,0-.49-.75,2.43,2.43,0,0,0-.83-.49,3.53,3.53,0,0,0-1.18-.18,3.75,3.75,0,0,0-1.12.15,2.24,2.24,0,0,0-.78.42,1.67,1.67,0,0,0-.45.61,2,2,0,0,0-.15.78,1.47,1.47,0,0,0,.16.7,1.78,1.78,0,0,0,.5.58,3.78,3.78,0,0,0,.88.49,9.07,9.07,0,0,0,1.28.43,11.62,11.62,0,0,1,1.78.65,4.76,4.76,0,0,1,1.23.8,3,3,0,0,1,.72,1,3.15,3.15,0,0,1,.24,1.26,2.93,2.93,0,0,1-.3,1.34,2.87,2.87,0,0,1-.85,1,4,4,0,0,1-1.33.65,5.84,5.84,0,0,1-1.73.23,6,6,0,0,1-1.11-.1,6.28,6.28,0,0,1-1.07-.31,4.59,4.59,0,0,1-1-.52,3.66,3.66,0,0,1-.76-.71,3.27,3.27,0,0,1-.5-.92,3.23,3.23,0,0,1-.18-1.11h1.6a2.23,2.23,0,0,0,.24,1.07,2.11,2.11,0,0,0,.66.73,2.7,2.7,0,0,0,.94.43,4.66,4.66,0,0,0,1.13.14,3.06,3.06,0,0,0,1.93-.52A1.67,1.67,0,0,0,80,187Z"/><path class="cls-2" d="M85.47,178.88v2.17h1.68v1.19H85.47v5.57a1.46,1.46,0,0,0,.09.56.71.71,0,0,0,.22.33.6.6,0,0,0,.31.15,1.5,1.5,0,0,0,.37,0,1.87,1.87,0,0,0,.4,0l.33-.06V190l-.47.1a3.62,3.62,0,0,1-.71.06,2.63,2.63,0,0,1-.8-.12,1.61,1.61,0,0,1-.66-.4,2,2,0,0,1-.45-.74,3.44,3.44,0,0,1-.16-1.14v-5.56H82.3v-1.19h1.64v-2.17Z"/><path class="cls-2" d="M94.49,190a2.07,2.07,0,0,1-.14-.42c0-.17-.06-.35-.08-.53a4.06,4.06,0,0,1-.48.43,3.82,3.82,0,0,1-.59.35,2.76,2.76,0,0,1-.7.24,3.35,3.35,0,0,1-.79.09,3.51,3.51,0,0,1-1.24-.21,2.67,2.67,0,0,1-1-.56,2.52,2.52,0,0,1-.61-.84,2.61,2.61,0,0,1-.21-1,2.74,2.74,0,0,1,.28-1.28,2.47,2.47,0,0,1,.81-.92,3.8,3.8,0,0,1,1.27-.57,6.61,6.61,0,0,1,1.67-.19h1.53v-.71a1.74,1.74,0,0,0-.48-1.28,2,2,0,0,0-1.42-.48,2.43,2.43,0,0,0-.79.12,2.06,2.06,0,0,0-.61.31,1.55,1.55,0,0,0-.4.45,1.21,1.21,0,0,0-.14.54H88.87a2,2,0,0,1,.25-.95,2.75,2.75,0,0,1,.72-.85,3.88,3.88,0,0,1,1.12-.62,4.55,4.55,0,0,1,1.48-.23,4.89,4.89,0,0,1,1.35.18,3,3,0,0,1,1,.57,2.42,2.42,0,0,1,.69.94,3.21,3.21,0,0,1,.25,1.32v4.18a6.65,6.65,0,0,0,.08,1,3.25,3.25,0,0,0,.24.86V190Zm-2.55-1.18a2.45,2.45,0,0,0,.78-.11,3.32,3.32,0,0,0,.66-.3,2.48,2.48,0,0,0,.52-.43,2.27,2.27,0,0,0,.35-.5v-1.84H93a4.09,4.09,0,0,0-2,.41,1.35,1.35,0,0,0-.71,1.24,1.74,1.74,0,0,0,.11.61,1.22,1.22,0,0,0,.33.48,1.44,1.44,0,0,0,.54.32A2.09,2.09,0,0,0,91.94,188.86Z"/><path class="cls-2" d="M101,188l2.22-6.9h1.57l-3.22,9h-1.17l-3.25-9h1.57Z"/><path class="cls-2" d="M105.77,185.46a5.54,5.54,0,0,1,.28-1.81,4.56,4.56,0,0,1,.82-1.45,3.69,3.69,0,0,1,1.28-1,3.87,3.87,0,0,1,1.69-.35,4,4,0,0,1,1.72.35,3.82,3.82,0,0,1,1.29,1,4.36,4.36,0,0,1,.81,1.45,5.54,5.54,0,0,1,.28,1.81v.18a5.6,5.6,0,0,1-.28,1.82,4.31,4.31,0,0,1-.81,1.44,3.73,3.73,0,0,1-1.29,1,4.42,4.42,0,0,1-3.4,0,3.82,3.82,0,0,1-1.29-1,4.51,4.51,0,0,1-.82-1.44,5.6,5.6,0,0,1-.28-1.82Zm1.54.18a4.7,4.7,0,0,0,.16,1.27A3,3,0,0,0,108,188a2.26,2.26,0,0,0,.79.72,2.44,2.44,0,0,0,2.23,0,2.21,2.21,0,0,0,.8-.72,3.37,3.37,0,0,0,.48-1.05,5.13,5.13,0,0,0,.16-1.27v-.18a5.18,5.18,0,0,0-.16-1.26,3.33,3.33,0,0,0-.48-1.06,2.44,2.44,0,0,0-.81-.72,2.24,2.24,0,0,0-1.12-.27,2.19,2.19,0,0,0-1.1.27,2.37,2.37,0,0,0-.79.72,2.94,2.94,0,0,0-.48,1.06,4.73,4.73,0,0,0-.16,1.26Z"/><path class="cls-2" d="M120.21,182.43a2.46,2.46,0,0,0-.37,0l-.38,0a2.22,2.22,0,0,0-1.3.35,2,2,0,0,0-.75.94V190h-1.54v-9h1.49l0,1a2.71,2.71,0,0,1,.87-.88,2.42,2.42,0,0,1,1.27-.32,1.82,1.82,0,0,1,.38,0,1.32,1.32,0,0,1,.3.07Z"/><path class="cls-2" d="M125.19,190.2a4.44,4.44,0,0,1-1.7-.32,3.94,3.94,0,0,1-1.29-.9,4,4,0,0,1-.83-1.38,4.89,4.89,0,0,1-.3-1.74v-.35a5.48,5.48,0,0,1,.33-2,4.36,4.36,0,0,1,.88-1.45,3.8,3.8,0,0,1,1.25-.9,3.56,3.56,0,0,1,1.47-.31,3.84,3.84,0,0,1,1.66.33,3.19,3.19,0,0,1,1.15.93,4.08,4.08,0,0,1,.67,1.39,7,7,0,0,1,.21,1.76V186h-6.08a4,4,0,0,0,.2,1.17,3,3,0,0,0,.53.93,2.6,2.6,0,0,0,.83.64,2.91,2.91,0,0,0,2.48-.1,3.61,3.61,0,0,0,1-.88l.94.73a5,5,0,0,1-.52.64,4.07,4.07,0,0,1-.72.56,4.21,4.21,0,0,1-.94.39A5,5,0,0,1,125.19,190.2Zm-.19-8a2.15,2.15,0,0,0-.85.17,2.11,2.11,0,0,0-.7.49,2.54,2.54,0,0,0-.51.81,3.94,3.94,0,0,0-.28,1.1h4.5v-.11a4.48,4.48,0,0,0-.15-.89,2.39,2.39,0,0,0-.37-.79,2,2,0,0,0-.65-.56A2,2,0,0,0,125,182.15Z"/><path class="cls-2" d="M131.92,181.05l.05,1.13a3.48,3.48,0,0,1,1.17-1,3.3,3.3,0,0,1,1.52-.34,3.67,3.67,0,0,1,1.19.18,2.17,2.17,0,0,1,.9.57,2.56,2.56,0,0,1,.58,1,4.68,4.68,0,0,1,.21,1.5V190H136v-5.91a2.9,2.9,0,0,0-.12-.89,1.35,1.35,0,0,0-.34-.6,1.26,1.26,0,0,0-.57-.34,2.55,2.55,0,0,0-.77-.11,2.17,2.17,0,0,0-1.31.4,2.66,2.66,0,0,0-.88,1V190h-1.54v-9Z"/><path class="cls-3" d="M130.21,151.19V136.81c.12,0,.18,0,.18,0,0-.2-12.93-.37-28.88-.37s-28.88.17-28.88.37c0,0,.06,0,.18,0v14.38l-.18,0c0,.21,12.93.38,28.88.38s28.88-.17,28.88-.38Z"/><path class="cls-3" d="M138,53.22l-.32-.35a12,12,0,0,0-1.27-1.39l-.58-.64h-.05c-3.84-3.78-12.1-11.28-12.1-11.28l-.6-.15c-1.45-1-6.61-3.52-6.61-3.52-1.36-.32-2.47-.56-3.37-.74a.09.09,0,0,1-.07,0,14.11,14.11,0,0,0-3.71-.08h-.09c-.72,0-1.58.1-1.76.14l-.67.35h-.43l-.68.4.06.49a15.53,15.53,0,0,0,4.09,1.23,3.49,3.49,0,0,1,2.63,1.48,2.15,2.15,0,0,1,.13,2.15c1.19,0,2.73.33,3.29.35a26.07,26.07,0,0,1,4.24,1.71l.22.43s5.07,6.89,6.29,7.85-.23,1.55-.23,1.55h0l-.24.06-5.28.09-.23-.23-3.5-.21v-.2l-2.76-.3-.16-.16L111.91,52l-2.32-.51s.11,1.22-.2-2,.51-3.9.51-3.9.9-.59,1.83-3.29a7.39,7.39,0,0,0,.25-1,.25.25,0,0,1,0-.17,1.69,1.69,0,0,0-.06-1.76,2.86,2.86,0,0,0-2.16-1.21,15.76,15.76,0,0,1-4.45-1.35l-.15-.07-.13-1.12,1.14-.66h.45l.55-.29c.06,0,.21-.12,2-.21a8.81,8.81,0,0,1,2.57-.06c-.69-3.18-4.75-21.73-4.84-22s-1.91-.78-2.32-.23S99.19,34.41,99,35.7a19.08,19.08,0,0,1-1.22,3.57c-.15.34.12,1.12,0,1.18a1.6,1.6,0,0,0-.46,1.31c.12.62-2,4-2,4v.72a12,12,0,0,1-6.53,10v1c-1.12.59-2.12,2.85-2.51,4s-.08,13.74,0,14.84S83,90.56,83,90.56l.47.41.07.59L82.29,95,83,99l1.59.62s-5.14,29.6-5.86,32.35a4,4,0,0,0,1.23,4.21,56.76,56.76,0,0,0,14.12-.55c2.94.64,7.32-.46,7.32-.46,5.61.74,7.31,0,7.72,0s4,.05,4.85.09,7.83,2.11,9.48.65c.32-.28-.52-1.47-.52-1.47l-.36-1.67-1.24-3.21s-2.08-14.4-2.55-27.52A75.81,75.81,0,0,0,115,80.19h0c-.08,0-8.65-2.41-24.22-.87l.44-3.57s9.88-2.35,23.37.21l0-1,4.16-11s15.81-5.91,18-7.74S138,53.22,138,53.22Z"/></svg>