<svg id="Layer_1" data-name="Layer 1" xmlns="http://www.w3.org/2000/svg" viewBox="0 0 210.83 210.83"><defs><style>.cls-1{fill:#575c71;}.cls-2{font-size:17px;fill:#15172d;font-family:Roboto-Regular, Roboto;}.cls-3{letter-spacing:-0.01em;}.cls-4{letter-spacing:-0.01em;}.cls-5{fill:#191c33;}</style></defs><title>Stavoren</title><rect class="cls-1" width="210.83" height="210.83" rx="15.54" ry="15.54"/><text class="cls-2" transform="translate(72.14 190.04)">St<tspan class="cls-3" x="15.64" y="0">av</tspan><tspan x="32.87" y="0">o</tspan><tspan class="cls-4" x="42.57" y="0">r</tspan><tspan x="48.16" y="0">en</tspan></text><path class="cls-5" d="M130.21,151.19V136.81c.12,0,.18,0,.18,0,0-.2-12.93-.37-28.88-.37s-28.88.17-28.88.37c0,0,.06,0,.18,0v14.38l-.18,0c0,.21,12.93.38,28.88.38s28.88-.17,28.88-.38Z"/><path class="cls-5" d="M138,53.22l-.32-.35a12,12,0,0,0-1.27-1.39l-.58-.64h-.05c-3.84-3.78-12.1-11.28-12.1-11.28l-.6-.15c-1.45-1-6.61-3.52-6.61-3.52-1.36-.32-2.47-.56-3.37-.74a.09.09,0,0,1-.07,0,14.11,14.11,0,0,0-3.71-.08h-.09c-.72,0-1.58.1-1.76.14l-.67.35h-.43l-.68.4.06.49a15.53,15.53,0,0,0,4.09,1.23,3.49,3.49,0,0,1,2.63,1.48,2.15,2.15,0,0,1,.13,2.15c1.19,0,2.73.33,3.29.35a26.07,26.07,0,0,1,4.24,1.71l.22.43s5.07,6.89,6.29,7.85-.23,1.55-.23,1.55h0l-.24.06-5.28.09-.23-.23-3.5-.21v-.2l-2.76-.3-.16-.16L111.91,52l-2.32-.51s.11,1.22-.2-2,.51-3.9.51-3.9.9-.59,1.83-3.29a7.39,7.39,0,0,0,.25-1,.25.25,0,0,1,0-.17,1.69,1.69,0,0,0-.06-1.76,2.86,2.86,0,0,0-2.16-1.21,15.76,15.76,0,0,1-4.45-1.35l-.15-.07-.13-1.12,1.14-.66h.45l.55-.29c.06,0,.21-.12,2-.21a8.81,8.81,0,0,1,2.57-.06c-.69-3.18-4.75-21.73-4.84-22s-1.91-.78-2.32-.23S99.19,34.41,99,35.7a19.08,19.08,0,0,1-1.22,3.57c-.15.34.12,1.12,0,1.18a1.6,1.6,0,0,0-.46,1.31c.12.62-2,4-2,4v.72a12,12,0,0,1-6.53,10v1c-1.12.59-2.12,2.85-2.51,4s-.08,13.74,0,14.84S83,90.56,83,90.56l.47.41.07.59L82.29,95,83,99l1.59.62s-5.14,29.6-5.86,32.35a4,4,0,0,0,1.23,4.21,56.76,56.76,0,0,0,14.12-.55c2.94.64,7.32-.46,7.32-.46,5.61.74,7.31,0,7.72,0s4,.05,4.85.09,7.83,2.11,9.48.65c.32-.28-.52-1.47-.52-1.47l-.36-1.67-1.24-3.21s-2.08-14.4-2.55-27.52A75.81,75.81,0,0,0,115,80.19h0c-.08,0-8.65-2.41-24.22-.87l.44-3.57s9.88-2.35,23.37.21l0-1,4.16-11s15.81-5.91,18-7.74S138,53.22,138,53.22Z"/></svg>